<mxfile host="app.diagrams.net" agent="Mozilla/5.0 (X11; Linux x86_64) AppleWebKit/537.36 (KHTML, like Gecko) Chrome/128.0.0.0 Safari/537.36" version="27.1.1" pages="3">
  <diagram id="hDWwUX_riiac_i_5ROyI" name="system design">
    <mxGraphModel dx="2556" dy="850" grid="0" gridSize="10" guides="1" tooltips="1" connect="1" arrows="1" fold="1" page="0" pageScale="1" pageWidth="827" pageHeight="1169" background="none" math="0" shadow="0">
      <root>
        <mxCell id="0" />
        <mxCell id="1" parent="0" />
        <mxCell id="pw6JsUR7cjv2rkqSTEG3-144" style="edgeStyle=none;curved=1;rounded=0;orthogonalLoop=1;jettySize=auto;html=1;exitX=0.5;exitY=1;exitDx=0;exitDy=0;entryX=0.5;entryY=0;entryDx=0;entryDy=0;fontSize=12;startSize=8;endSize=8;" parent="1" source="pw6JsUR7cjv2rkqSTEG3-1" target="pw6JsUR7cjv2rkqSTEG3-4" edge="1">
          <mxGeometry relative="1" as="geometry" />
        </mxCell>
        <mxCell id="pw6JsUR7cjv2rkqSTEG3-1" value="주문" style="rounded=0;whiteSpace=wrap;html=1;" parent="1" vertex="1">
          <mxGeometry x="-360" y="110" width="120" height="60" as="geometry" />
        </mxCell>
        <mxCell id="pw6JsUR7cjv2rkqSTEG3-3" value="완료" style="rounded=0;whiteSpace=wrap;html=1;" parent="1" vertex="1">
          <mxGeometry x="-180" y="1640" width="120" height="60" as="geometry" />
        </mxCell>
        <mxCell id="pw6JsUR7cjv2rkqSTEG3-71" style="edgeStyle=none;curved=1;rounded=0;orthogonalLoop=1;jettySize=auto;html=1;exitX=0.5;exitY=1;exitDx=0;exitDy=0;entryX=0.5;entryY=0;entryDx=0;entryDy=0;fontSize=12;startSize=8;endSize=8;" parent="1" source="pw6JsUR7cjv2rkqSTEG3-4" target="pw6JsUR7cjv2rkqSTEG3-7" edge="1">
          <mxGeometry relative="1" as="geometry" />
        </mxCell>
        <mxCell id="pw6JsUR7cjv2rkqSTEG3-4" value="주문 내역 확인" style="rounded=0;whiteSpace=wrap;html=1;fillColor=#fff2cc;strokeColor=#d6b656;" parent="1" vertex="1">
          <mxGeometry x="-360" y="280" width="120" height="60" as="geometry" />
        </mxCell>
        <mxCell id="pw6JsUR7cjv2rkqSTEG3-5" style="edgeStyle=none;curved=1;rounded=0;orthogonalLoop=1;jettySize=auto;html=1;exitX=0.5;exitY=1;exitDx=0;exitDy=0;fontSize=12;startSize=8;endSize=8;" parent="1" source="pw6JsUR7cjv2rkqSTEG3-4" target="pw6JsUR7cjv2rkqSTEG3-4" edge="1">
          <mxGeometry relative="1" as="geometry" />
        </mxCell>
        <mxCell id="pw6JsUR7cjv2rkqSTEG3-72" style="edgeStyle=none;curved=1;rounded=0;orthogonalLoop=1;jettySize=auto;html=1;exitX=0.5;exitY=1;exitDx=0;exitDy=0;entryX=0.5;entryY=0;entryDx=0;entryDy=0;fontSize=12;startSize=8;endSize=8;" parent="1" source="pw6JsUR7cjv2rkqSTEG3-7" target="pw6JsUR7cjv2rkqSTEG3-11" edge="1">
          <mxGeometry relative="1" as="geometry" />
        </mxCell>
        <mxCell id="pw6JsUR7cjv2rkqSTEG3-7" value="주문별 작업 &lt;br&gt;가능 상태 부여" style="rounded=0;whiteSpace=wrap;html=1;fillColor=#fff2cc;strokeColor=#d6b656;" parent="1" vertex="1">
          <mxGeometry x="-360" y="400" width="120" height="60" as="geometry" />
        </mxCell>
        <mxCell id="pw6JsUR7cjv2rkqSTEG3-11" value="가능한 작업이&lt;br&gt;&amp;nbsp;있나?" style="rhombus;whiteSpace=wrap;html=1;fillColor=#fff2cc;strokeColor=#d6b656;" parent="1" vertex="1">
          <mxGeometry x="-350" y="520" width="100" height="100" as="geometry" />
        </mxCell>
        <mxCell id="pw6JsUR7cjv2rkqSTEG3-13" value="대기 중인 &lt;br&gt;작업이 있나?" style="rhombus;whiteSpace=wrap;html=1;fillColor=#e1d5e7;strokeColor=#9673a6;" parent="1" vertex="1">
          <mxGeometry x="-170" y="680" width="100" height="100" as="geometry" />
        </mxCell>
        <mxCell id="pw6JsUR7cjv2rkqSTEG3-14" value="장비 사용 완료&amp;nbsp;&lt;div&gt;신호가 왔나?&lt;/div&gt;" style="rhombus;whiteSpace=wrap;html=1;fillColor=#e1d5e7;strokeColor=#9673a6;" parent="1" vertex="1">
          <mxGeometry x="-10" y="680" width="100" height="100" as="geometry" />
        </mxCell>
        <mxCell id="pw6JsUR7cjv2rkqSTEG3-15" value="조리 중인&amp;nbsp;&lt;div&gt;작업이 있나?&lt;/div&gt;" style="rhombus;whiteSpace=wrap;html=1;fillColor=#ffe6cc;strokeColor=#d79b00;" parent="1" vertex="1">
          <mxGeometry x="-170" y="520" width="100" height="100" as="geometry" />
        </mxCell>
        <mxCell id="pw6JsUR7cjv2rkqSTEG3-16" value="조리시간이&amp;nbsp;&lt;div&gt;지났나?&lt;/div&gt;" style="rhombus;whiteSpace=wrap;html=1;fillColor=#ffe6cc;strokeColor=#d79b00;" parent="1" vertex="1">
          <mxGeometry x="-10" y="520" width="100" height="100" as="geometry" />
        </mxCell>
        <mxCell id="pw6JsUR7cjv2rkqSTEG3-18" value="전자레인지&amp;nbsp;&lt;div&gt;작업인가?&lt;/div&gt;" style="rhombus;whiteSpace=wrap;html=1;fillColor=#ffe6cc;strokeColor=#d79b00;" parent="1" vertex="1">
          <mxGeometry x="150" y="520" width="100" height="100" as="geometry" />
        </mxCell>
        <mxCell id="pw6JsUR7cjv2rkqSTEG3-119" style="edgeStyle=none;curved=1;rounded=0;orthogonalLoop=1;jettySize=auto;html=1;exitX=1;exitY=0.5;exitDx=0;exitDy=0;entryX=0;entryY=0.5;entryDx=0;entryDy=0;fontSize=12;startSize=8;endSize=8;" parent="1" source="pw6JsUR7cjv2rkqSTEG3-22" target="pw6JsUR7cjv2rkqSTEG3-26" edge="1">
          <mxGeometry relative="1" as="geometry" />
        </mxCell>
        <mxCell id="pw6JsUR7cjv2rkqSTEG3-22" value="라면 전달" style="rounded=0;whiteSpace=wrap;html=1;fillColor=#ffe6cc;strokeColor=#d79b00;" parent="1" vertex="1">
          <mxGeometry x="310" y="400" width="120" height="60" as="geometry" />
        </mxCell>
        <mxCell id="pw6JsUR7cjv2rkqSTEG3-120" style="edgeStyle=none;curved=1;rounded=0;orthogonalLoop=1;jettySize=auto;html=1;exitX=1;exitY=0.5;exitDx=0;exitDy=0;entryX=0;entryY=0.5;entryDx=0;entryDy=0;fontSize=12;startSize=8;endSize=8;" parent="1" source="pw6JsUR7cjv2rkqSTEG3-23" target="pw6JsUR7cjv2rkqSTEG3-22" edge="1">
          <mxGeometry relative="1" as="geometry" />
        </mxCell>
        <mxCell id="pw6JsUR7cjv2rkqSTEG3-23" value="라면 들기" style="rounded=0;whiteSpace=wrap;html=1;fillColor=#ffe6cc;strokeColor=#d79b00;" parent="1" vertex="1">
          <mxGeometry x="140" y="400" width="120" height="60" as="geometry" />
        </mxCell>
        <mxCell id="pw6JsUR7cjv2rkqSTEG3-121" style="edgeStyle=none;curved=1;rounded=0;orthogonalLoop=1;jettySize=auto;html=1;exitX=0.5;exitY=0;exitDx=0;exitDy=0;entryX=0.5;entryY=1;entryDx=0;entryDy=0;fontSize=12;startSize=8;endSize=8;" parent="1" source="pw6JsUR7cjv2rkqSTEG3-24" target="pw6JsUR7cjv2rkqSTEG3-26" edge="1">
          <mxGeometry relative="1" as="geometry" />
        </mxCell>
        <mxCell id="pw6JsUR7cjv2rkqSTEG3-24" value="음식 전달" style="rounded=0;whiteSpace=wrap;html=1;fillColor=#ffe6cc;strokeColor=#d79b00;" parent="1" vertex="1">
          <mxGeometry x="490" y="540" width="120" height="60" as="geometry" />
        </mxCell>
        <mxCell id="pw6JsUR7cjv2rkqSTEG3-118" style="edgeStyle=none;curved=1;rounded=0;orthogonalLoop=1;jettySize=auto;html=1;exitX=1;exitY=0.5;exitDx=0;exitDy=0;entryX=0;entryY=0.5;entryDx=0;entryDy=0;fontSize=12;startSize=8;endSize=8;" parent="1" source="pw6JsUR7cjv2rkqSTEG3-25" target="pw6JsUR7cjv2rkqSTEG3-24" edge="1">
          <mxGeometry relative="1" as="geometry" />
        </mxCell>
        <mxCell id="pw6JsUR7cjv2rkqSTEG3-25" value="전자레인지 열기" style="rounded=0;whiteSpace=wrap;html=1;fillColor=#ffe6cc;strokeColor=#d79b00;" parent="1" vertex="1">
          <mxGeometry x="310" y="540" width="120" height="60" as="geometry" />
        </mxCell>
        <mxCell id="pw6JsUR7cjv2rkqSTEG3-141" style="edgeStyle=orthogonalEdgeStyle;rounded=0;orthogonalLoop=1;jettySize=auto;html=1;exitX=0.5;exitY=0;exitDx=0;exitDy=0;entryX=0.5;entryY=0;entryDx=0;entryDy=0;fontSize=12;startSize=8;endSize=8;" parent="1" source="pw6JsUR7cjv2rkqSTEG3-26" target="pw6JsUR7cjv2rkqSTEG3-11" edge="1">
          <mxGeometry relative="1" as="geometry">
            <Array as="points">
              <mxPoint x="550" y="380" />
              <mxPoint x="-60" y="380" />
              <mxPoint x="-60" y="490" />
              <mxPoint x="-300" y="490" />
            </Array>
          </mxGeometry>
        </mxCell>
        <mxCell id="pw6JsUR7cjv2rkqSTEG3-26" value="작업 상태&amp;nbsp;&lt;div&gt;완료로 전환&lt;/div&gt;" style="rounded=0;whiteSpace=wrap;html=1;fillColor=#ffe6cc;strokeColor=#d79b00;" parent="1" vertex="1">
          <mxGeometry x="490" y="400" width="120" height="60" as="geometry" />
        </mxCell>
        <mxCell id="pw6JsUR7cjv2rkqSTEG3-27" value="전자레인지가 &lt;br&gt;필요한가?" style="rhombus;whiteSpace=wrap;html=1;fillColor=#dae8fc;strokeColor=#6c8ebf;" parent="1" vertex="1">
          <mxGeometry x="-350" y="680" width="100" height="100" as="geometry" />
        </mxCell>
        <mxCell id="pw6JsUR7cjv2rkqSTEG3-86" style="edgeStyle=none;curved=1;rounded=0;orthogonalLoop=1;jettySize=auto;html=1;exitX=0.5;exitY=1;exitDx=0;exitDy=0;fontSize=12;startSize=8;endSize=8;entryX=0.5;entryY=0;entryDx=0;entryDy=0;" parent="1" source="pw6JsUR7cjv2rkqSTEG3-31" target="pw6JsUR7cjv2rkqSTEG3-32" edge="1">
          <mxGeometry relative="1" as="geometry" />
        </mxCell>
        <mxCell id="pw6JsUR7cjv2rkqSTEG3-31" value="전자레인지 문 열기" style="rounded=0;whiteSpace=wrap;html=1;fillColor=#dae8fc;strokeColor=#6c8ebf;" parent="1" vertex="1">
          <mxGeometry x="-360" y="1000" width="120" height="60" as="geometry" />
        </mxCell>
        <mxCell id="pw6JsUR7cjv2rkqSTEG3-87" style="edgeStyle=none;curved=1;rounded=0;orthogonalLoop=1;jettySize=auto;html=1;exitX=0.5;exitY=1;exitDx=0;exitDy=0;fontSize=12;startSize=8;endSize=8;entryX=0.5;entryY=0;entryDx=0;entryDy=0;" parent="1" source="pw6JsUR7cjv2rkqSTEG3-32" target="pw6JsUR7cjv2rkqSTEG3-33" edge="1">
          <mxGeometry relative="1" as="geometry" />
        </mxCell>
        <mxCell id="pw6JsUR7cjv2rkqSTEG3-32" value="재고 꺼내기" style="rounded=0;whiteSpace=wrap;html=1;fillColor=#dae8fc;strokeColor=#6c8ebf;" parent="1" vertex="1">
          <mxGeometry x="-360" y="1120" width="120" height="60" as="geometry" />
        </mxCell>
        <mxCell id="pw6JsUR7cjv2rkqSTEG3-88" style="edgeStyle=none;curved=1;rounded=0;orthogonalLoop=1;jettySize=auto;html=1;exitX=0.5;exitY=1;exitDx=0;exitDy=0;entryX=0.5;entryY=0;entryDx=0;entryDy=0;fontSize=12;startSize=8;endSize=8;" parent="1" source="pw6JsUR7cjv2rkqSTEG3-33" target="pw6JsUR7cjv2rkqSTEG3-34" edge="1">
          <mxGeometry relative="1" as="geometry" />
        </mxCell>
        <mxCell id="pw6JsUR7cjv2rkqSTEG3-33" value="전자레인지에 넣기" style="rounded=0;whiteSpace=wrap;html=1;fillColor=#dae8fc;strokeColor=#6c8ebf;" parent="1" vertex="1">
          <mxGeometry x="-360" y="1240" width="120" height="60" as="geometry" />
        </mxCell>
        <mxCell id="pw6JsUR7cjv2rkqSTEG3-90" value="" style="edgeStyle=none;curved=1;rounded=0;orthogonalLoop=1;jettySize=auto;html=1;fontSize=12;startSize=8;endSize=8;entryX=0.5;entryY=0;entryDx=0;entryDy=0;exitX=0.5;exitY=1;exitDx=0;exitDy=0;" parent="1" source="pw6JsUR7cjv2rkqSTEG3-34" target="pw6JsUR7cjv2rkqSTEG3-67" edge="1">
          <mxGeometry relative="1" as="geometry" />
        </mxCell>
        <mxCell id="pw6JsUR7cjv2rkqSTEG3-34" value="전자레인지에 닫기" style="rounded=0;whiteSpace=wrap;html=1;fillColor=#dae8fc;strokeColor=#6c8ebf;" parent="1" vertex="1">
          <mxGeometry x="-360" y="1360" width="120" height="60" as="geometry" />
        </mxCell>
        <mxCell id="pw6JsUR7cjv2rkqSTEG3-36" value="작업 상태&amp;nbsp;&lt;div&gt;조리&amp;nbsp;&lt;span style=&quot;background-color: transparent; color: light-dark(rgb(0, 0, 0), rgb(255, 255, 255));&quot;&gt;중으로 전환&lt;/span&gt;&lt;/div&gt;" style="rounded=0;whiteSpace=wrap;html=1;fillColor=#dae8fc;strokeColor=#6c8ebf;" parent="1" vertex="1">
          <mxGeometry x="-720" y="1480" width="120" height="60" as="geometry" />
        </mxCell>
        <mxCell id="pw6JsUR7cjv2rkqSTEG3-81" style="edgeStyle=none;curved=1;rounded=0;orthogonalLoop=1;jettySize=auto;html=1;entryX=0.5;entryY=0;entryDx=0;entryDy=0;fontSize=12;startSize=8;endSize=8;exitX=0.5;exitY=1;exitDx=0;exitDy=0;" parent="1" source="pw6JsUR7cjv2rkqSTEG3-37" target="pw6JsUR7cjv2rkqSTEG3-38" edge="1">
          <mxGeometry relative="1" as="geometry">
            <mxPoint x="-630" y="950" as="sourcePoint" />
          </mxGeometry>
        </mxCell>
        <mxCell id="pw6JsUR7cjv2rkqSTEG3-37" value="면 꺼내기" style="rounded=0;whiteSpace=wrap;html=1;fillColor=#dae8fc;strokeColor=#6c8ebf;" parent="1" vertex="1">
          <mxGeometry x="-720" y="860" width="120" height="60" as="geometry" />
        </mxCell>
        <mxCell id="pw6JsUR7cjv2rkqSTEG3-82" style="edgeStyle=none;curved=1;rounded=0;orthogonalLoop=1;jettySize=auto;html=1;exitX=0.5;exitY=1;exitDx=0;exitDy=0;fontSize=12;startSize=8;endSize=8;entryX=0.5;entryY=0;entryDx=0;entryDy=0;" parent="1" source="pw6JsUR7cjv2rkqSTEG3-38" target="pw6JsUR7cjv2rkqSTEG3-47" edge="1">
          <mxGeometry relative="1" as="geometry" />
        </mxCell>
        <mxCell id="pw6JsUR7cjv2rkqSTEG3-38" value="면 넣기" style="rounded=0;whiteSpace=wrap;html=1;fillColor=#dae8fc;strokeColor=#6c8ebf;" parent="1" vertex="1">
          <mxGeometry x="-720" y="1000" width="120" height="60" as="geometry" />
        </mxCell>
        <mxCell id="pw6JsUR7cjv2rkqSTEG3-85" style="edgeStyle=none;curved=1;rounded=0;orthogonalLoop=1;jettySize=auto;html=1;exitX=0.5;exitY=1;exitDx=0;exitDy=0;entryX=0.5;entryY=0;entryDx=0;entryDy=0;fontSize=12;startSize=8;endSize=8;" parent="1" source="pw6JsUR7cjv2rkqSTEG3-39" target="pw6JsUR7cjv2rkqSTEG3-36" edge="1">
          <mxGeometry relative="1" as="geometry" />
        </mxCell>
        <mxCell id="pw6JsUR7cjv2rkqSTEG3-39" value="시간 설정" style="rounded=0;whiteSpace=wrap;html=1;fillColor=#dae8fc;strokeColor=#6c8ebf;" parent="1" vertex="1">
          <mxGeometry x="-720" y="1360" width="120" height="60" as="geometry" />
        </mxCell>
        <mxCell id="pw6JsUR7cjv2rkqSTEG3-84" style="edgeStyle=none;curved=1;rounded=0;orthogonalLoop=1;jettySize=auto;html=1;exitX=0.5;exitY=1;exitDx=0;exitDy=0;entryX=0.5;entryY=0;entryDx=0;entryDy=0;fontSize=12;startSize=8;endSize=8;" parent="1" source="pw6JsUR7cjv2rkqSTEG3-43" target="pw6JsUR7cjv2rkqSTEG3-39" edge="1">
          <mxGeometry relative="1" as="geometry" />
        </mxCell>
        <mxCell id="pw6JsUR7cjv2rkqSTEG3-43" value="스프 넣기" style="rounded=0;whiteSpace=wrap;html=1;fillColor=#dae8fc;strokeColor=#6c8ebf;" parent="1" vertex="1">
          <mxGeometry x="-720" y="1240" width="120" height="60" as="geometry" />
        </mxCell>
        <mxCell id="pw6JsUR7cjv2rkqSTEG3-83" style="edgeStyle=none;curved=1;rounded=0;orthogonalLoop=1;jettySize=auto;html=1;exitX=0.5;exitY=1;exitDx=0;exitDy=0;fontSize=12;startSize=8;endSize=8;entryX=0.5;entryY=0;entryDx=0;entryDy=0;" parent="1" source="pw6JsUR7cjv2rkqSTEG3-47" target="pw6JsUR7cjv2rkqSTEG3-43" edge="1">
          <mxGeometry relative="1" as="geometry" />
        </mxCell>
        <mxCell id="pw6JsUR7cjv2rkqSTEG3-47" value="스프 푸기" style="rounded=0;whiteSpace=wrap;html=1;fillColor=#dae8fc;strokeColor=#6c8ebf;" parent="1" vertex="1">
          <mxGeometry x="-720" y="1120" width="120" height="60" as="geometry" />
        </mxCell>
        <mxCell id="pw6JsUR7cjv2rkqSTEG3-60" value="전자레인지를 &lt;br&gt;사용 중인가?" style="rhombus;whiteSpace=wrap;html=1;fillColor=#dae8fc;strokeColor=#6c8ebf;" parent="1" vertex="1">
          <mxGeometry x="-350" y="840" width="100" height="100" as="geometry" />
        </mxCell>
        <mxCell id="pw6JsUR7cjv2rkqSTEG3-61" value="라면 조리기를 &lt;br&gt;사용 중인가?" style="rhombus;whiteSpace=wrap;html=1;fillColor=#dae8fc;strokeColor=#6c8ebf;" parent="1" vertex="1">
          <mxGeometry x="-710" y="680" width="100" height="100" as="geometry" />
        </mxCell>
        <mxCell id="pw6JsUR7cjv2rkqSTEG3-62" value="작업 상태&amp;nbsp;&lt;div&gt;대기로 전환&lt;/div&gt;" style="rounded=0;whiteSpace=wrap;html=1;fillColor=#dae8fc;strokeColor=#6c8ebf;" parent="1" vertex="1">
          <mxGeometry x="-530" y="860" width="120" height="60" as="geometry" />
        </mxCell>
        <mxCell id="pw6JsUR7cjv2rkqSTEG3-66" value="작업 상태&amp;nbsp;&lt;div&gt;대기로 전환&lt;/div&gt;" style="rounded=0;whiteSpace=wrap;html=1;fillColor=#dae8fc;strokeColor=#6c8ebf;" parent="1" vertex="1">
          <mxGeometry x="-890" y="700" width="120" height="60" as="geometry" />
        </mxCell>
        <mxCell id="pw6JsUR7cjv2rkqSTEG3-67" value="작업 상태&amp;nbsp;&lt;div&gt;조리&amp;nbsp;&lt;span style=&quot;background-color: transparent; color: light-dark(rgb(0, 0, 0), rgb(255, 255, 255));&quot;&gt;중으로 전환&lt;/span&gt;&lt;/div&gt;" style="rounded=0;whiteSpace=wrap;html=1;fillColor=#dae8fc;strokeColor=#6c8ebf;" parent="1" vertex="1">
          <mxGeometry x="-360" y="1480" width="120" height="60" as="geometry" />
        </mxCell>
        <mxCell id="pw6JsUR7cjv2rkqSTEG3-142" style="edgeStyle=orthogonalEdgeStyle;rounded=0;orthogonalLoop=1;jettySize=auto;html=1;exitX=1;exitY=0.5;exitDx=0;exitDy=0;entryX=0.5;entryY=0;entryDx=0;entryDy=0;fontSize=12;startSize=8;endSize=8;" parent="1" source="pw6JsUR7cjv2rkqSTEG3-68" target="pw6JsUR7cjv2rkqSTEG3-11" edge="1">
          <mxGeometry relative="1" as="geometry">
            <Array as="points">
              <mxPoint x="630" y="730" />
              <mxPoint x="630" y="380" />
              <mxPoint x="-60" y="380" />
              <mxPoint x="-60" y="490" />
              <mxPoint x="-300" y="490" />
            </Array>
          </mxGeometry>
        </mxCell>
        <mxCell id="pw6JsUR7cjv2rkqSTEG3-68" value="작업 상태&amp;nbsp;&lt;div&gt;가능으로 전환&lt;/div&gt;" style="rounded=0;whiteSpace=wrap;html=1;fillColor=#e1d5e7;strokeColor=#9673a6;" parent="1" vertex="1">
          <mxGeometry x="150" y="700" width="120" height="60" as="geometry" />
        </mxCell>
        <mxCell id="pw6JsUR7cjv2rkqSTEG3-143" style="edgeStyle=none;curved=1;rounded=0;orthogonalLoop=1;jettySize=auto;html=1;exitX=0.5;exitY=1;exitDx=0;exitDy=0;entryX=0.5;entryY=0;entryDx=0;entryDy=0;fontSize=12;startSize=8;endSize=8;" parent="1" source="pw6JsUR7cjv2rkqSTEG3-69" target="pw6JsUR7cjv2rkqSTEG3-3" edge="1">
          <mxGeometry relative="1" as="geometry" />
        </mxCell>
        <mxCell id="pw6JsUR7cjv2rkqSTEG3-73" value="" style="endArrow=classic;html=1;rounded=0;fontSize=12;startSize=8;endSize=8;curved=1;exitX=0.5;exitY=1;exitDx=0;exitDy=0;entryX=0.5;entryY=0;entryDx=0;entryDy=0;" parent="1" source="pw6JsUR7cjv2rkqSTEG3-11" target="pw6JsUR7cjv2rkqSTEG3-27" edge="1">
          <mxGeometry relative="1" as="geometry">
            <mxPoint x="-260" y="720" as="sourcePoint" />
            <mxPoint x="-160" y="720" as="targetPoint" />
          </mxGeometry>
        </mxCell>
        <mxCell id="pw6JsUR7cjv2rkqSTEG3-74" value="yes" style="edgeLabel;resizable=0;html=1;;align=center;verticalAlign=middle;" parent="pw6JsUR7cjv2rkqSTEG3-73" connectable="0" vertex="1">
          <mxGeometry relative="1" as="geometry" />
        </mxCell>
        <mxCell id="pw6JsUR7cjv2rkqSTEG3-75" value="" style="endArrow=classic;html=1;rounded=0;fontSize=12;startSize=8;endSize=8;curved=1;exitX=0.5;exitY=1;exitDx=0;exitDy=0;entryX=0.5;entryY=0;entryDx=0;entryDy=0;" parent="1" source="pw6JsUR7cjv2rkqSTEG3-27" target="pw6JsUR7cjv2rkqSTEG3-60" edge="1">
          <mxGeometry relative="1" as="geometry">
            <mxPoint x="-290" y="630" as="sourcePoint" />
            <mxPoint x="-290" y="690" as="targetPoint" />
          </mxGeometry>
        </mxCell>
        <mxCell id="pw6JsUR7cjv2rkqSTEG3-76" value="yes" style="edgeLabel;resizable=0;html=1;;align=center;verticalAlign=middle;" parent="pw6JsUR7cjv2rkqSTEG3-75" connectable="0" vertex="1">
          <mxGeometry relative="1" as="geometry" />
        </mxCell>
        <mxCell id="pw6JsUR7cjv2rkqSTEG3-77" value="" style="endArrow=classic;html=1;rounded=0;fontSize=12;startSize=8;endSize=8;curved=1;exitX=0;exitY=0.5;exitDx=0;exitDy=0;entryX=1;entryY=0.5;entryDx=0;entryDy=0;" parent="1" source="pw6JsUR7cjv2rkqSTEG3-60" target="pw6JsUR7cjv2rkqSTEG3-62" edge="1">
          <mxGeometry relative="1" as="geometry">
            <mxPoint x="-210" y="920" as="sourcePoint" />
            <mxPoint x="-210" y="980" as="targetPoint" />
          </mxGeometry>
        </mxCell>
        <mxCell id="pw6JsUR7cjv2rkqSTEG3-78" value="yes" style="edgeLabel;resizable=0;html=1;;align=center;verticalAlign=middle;" parent="pw6JsUR7cjv2rkqSTEG3-77" connectable="0" vertex="1">
          <mxGeometry relative="1" as="geometry" />
        </mxCell>
        <mxCell id="pw6JsUR7cjv2rkqSTEG3-79" value="" style="endArrow=classic;html=1;rounded=0;fontSize=12;startSize=8;endSize=8;curved=1;exitX=0;exitY=0.5;exitDx=0;exitDy=0;" parent="1" source="pw6JsUR7cjv2rkqSTEG3-61" target="pw6JsUR7cjv2rkqSTEG3-66" edge="1">
          <mxGeometry relative="1" as="geometry">
            <mxPoint x="-770" y="800" as="sourcePoint" />
            <mxPoint x="-830" y="800" as="targetPoint" />
          </mxGeometry>
        </mxCell>
        <mxCell id="pw6JsUR7cjv2rkqSTEG3-80" value="yes" style="edgeLabel;resizable=0;html=1;;align=center;verticalAlign=middle;" parent="pw6JsUR7cjv2rkqSTEG3-79" connectable="0" vertex="1">
          <mxGeometry relative="1" as="geometry" />
        </mxCell>
        <mxCell id="pw6JsUR7cjv2rkqSTEG3-91" value="" style="endArrow=classic;html=1;rounded=0;fontSize=12;startSize=8;endSize=8;curved=1;exitX=0.5;exitY=1;exitDx=0;exitDy=0;entryX=0.5;entryY=0;entryDx=0;entryDy=0;" parent="1" source="pw6JsUR7cjv2rkqSTEG3-60" target="pw6JsUR7cjv2rkqSTEG3-31" edge="1">
          <mxGeometry relative="1" as="geometry">
            <mxPoint x="-380" y="990" as="sourcePoint" />
            <mxPoint x="-440" y="990" as="targetPoint" />
          </mxGeometry>
        </mxCell>
        <mxCell id="pw6JsUR7cjv2rkqSTEG3-92" value="no" style="edgeLabel;resizable=0;html=1;;align=center;verticalAlign=middle;" parent="pw6JsUR7cjv2rkqSTEG3-91" connectable="0" vertex="1">
          <mxGeometry relative="1" as="geometry" />
        </mxCell>
        <mxCell id="pw6JsUR7cjv2rkqSTEG3-93" value="" style="endArrow=classic;html=1;rounded=0;fontSize=12;startSize=8;endSize=8;curved=1;exitX=0.5;exitY=1;exitDx=0;exitDy=0;entryX=0.5;entryY=0;entryDx=0;entryDy=0;" parent="1" source="pw6JsUR7cjv2rkqSTEG3-61" target="pw6JsUR7cjv2rkqSTEG3-37" edge="1">
          <mxGeometry relative="1" as="geometry">
            <mxPoint x="-310" y="950" as="sourcePoint" />
            <mxPoint x="-310" y="1010" as="targetPoint" />
          </mxGeometry>
        </mxCell>
        <mxCell id="pw6JsUR7cjv2rkqSTEG3-94" value="no" style="edgeLabel;resizable=0;html=1;;align=center;verticalAlign=middle;" parent="pw6JsUR7cjv2rkqSTEG3-93" connectable="0" vertex="1">
          <mxGeometry relative="1" as="geometry" />
        </mxCell>
        <mxCell id="pw6JsUR7cjv2rkqSTEG3-95" value="" style="endArrow=classic;html=1;rounded=0;fontSize=12;startSize=8;endSize=8;curved=1;exitX=0;exitY=0.5;exitDx=0;exitDy=0;entryX=1;entryY=0.5;entryDx=0;entryDy=0;" parent="1" source="pw6JsUR7cjv2rkqSTEG3-27" target="pw6JsUR7cjv2rkqSTEG3-61" edge="1">
          <mxGeometry relative="1" as="geometry">
            <mxPoint x="-280" y="960" as="sourcePoint" />
            <mxPoint x="-280" y="1020" as="targetPoint" />
          </mxGeometry>
        </mxCell>
        <mxCell id="pw6JsUR7cjv2rkqSTEG3-96" value="no" style="edgeLabel;resizable=0;html=1;;align=center;verticalAlign=middle;" parent="pw6JsUR7cjv2rkqSTEG3-95" connectable="0" vertex="1">
          <mxGeometry relative="1" as="geometry" />
        </mxCell>
        <mxCell id="pw6JsUR7cjv2rkqSTEG3-97" value="" style="endArrow=classic;html=1;rounded=0;fontSize=12;startSize=8;endSize=8;curved=1;exitX=1;exitY=0.5;exitDx=0;exitDy=0;entryX=0;entryY=0.5;entryDx=0;entryDy=0;" parent="1" source="pw6JsUR7cjv2rkqSTEG3-11" target="pw6JsUR7cjv2rkqSTEG3-15" edge="1">
          <mxGeometry relative="1" as="geometry">
            <mxPoint x="-270" y="970" as="sourcePoint" />
            <mxPoint x="-170" y="650" as="targetPoint" />
          </mxGeometry>
        </mxCell>
        <mxCell id="pw6JsUR7cjv2rkqSTEG3-98" value="no" style="edgeLabel;resizable=0;html=1;;align=center;verticalAlign=middle;" parent="pw6JsUR7cjv2rkqSTEG3-97" connectable="0" vertex="1">
          <mxGeometry relative="1" as="geometry" />
        </mxCell>
        <mxCell id="pw6JsUR7cjv2rkqSTEG3-99" value="" style="endArrow=classic;html=1;rounded=0;fontSize=12;startSize=8;endSize=8;exitX=0;exitY=0.5;exitDx=0;exitDy=0;entryX=0;entryY=0.5;entryDx=0;entryDy=0;edgeStyle=orthogonalEdgeStyle;" parent="1" source="pw6JsUR7cjv2rkqSTEG3-66" target="pw6JsUR7cjv2rkqSTEG3-11" edge="1">
          <mxGeometry width="50" height="50" relative="1" as="geometry">
            <mxPoint x="-240" y="1140" as="sourcePoint" />
            <mxPoint x="-190" y="1090" as="targetPoint" />
            <Array as="points">
              <mxPoint x="-910" y="730" />
              <mxPoint x="-910" y="570" />
            </Array>
          </mxGeometry>
        </mxCell>
        <mxCell id="pw6JsUR7cjv2rkqSTEG3-101" value="" style="endArrow=classic;html=1;rounded=0;fontSize=12;startSize=8;endSize=8;exitX=0.5;exitY=1;exitDx=0;exitDy=0;entryX=0;entryY=0.5;entryDx=0;entryDy=0;edgeStyle=orthogonalEdgeStyle;" parent="1" source="pw6JsUR7cjv2rkqSTEG3-36" target="pw6JsUR7cjv2rkqSTEG3-11" edge="1">
          <mxGeometry width="50" height="50" relative="1" as="geometry">
            <mxPoint x="-470" y="980" as="sourcePoint" />
            <mxPoint x="-420" y="930" as="targetPoint" />
            <Array as="points">
              <mxPoint x="-660" y="1560" />
              <mxPoint x="-910" y="1560" />
              <mxPoint x="-910" y="570" />
            </Array>
          </mxGeometry>
        </mxCell>
        <mxCell id="pw6JsUR7cjv2rkqSTEG3-102" value="" style="endArrow=classic;html=1;rounded=0;fontSize=12;startSize=8;endSize=8;exitX=0.5;exitY=1;exitDx=0;exitDy=0;entryX=0;entryY=0.5;entryDx=0;entryDy=0;edgeStyle=orthogonalEdgeStyle;" parent="1" source="pw6JsUR7cjv2rkqSTEG3-67" target="pw6JsUR7cjv2rkqSTEG3-11" edge="1">
          <mxGeometry width="50" height="50" relative="1" as="geometry">
            <mxPoint x="-650" y="1550" as="sourcePoint" />
            <mxPoint x="-440" y="640" as="targetPoint" />
            <Array as="points">
              <mxPoint x="-300" y="1560" />
              <mxPoint x="-910" y="1560" />
              <mxPoint x="-910" y="570" />
            </Array>
          </mxGeometry>
        </mxCell>
        <mxCell id="pw6JsUR7cjv2rkqSTEG3-103" value="" style="endArrow=classic;html=1;rounded=0;fontSize=12;startSize=8;endSize=8;exitX=0.5;exitY=1;exitDx=0;exitDy=0;entryX=0;entryY=0.5;entryDx=0;entryDy=0;edgeStyle=orthogonalEdgeStyle;" parent="1" source="pw6JsUR7cjv2rkqSTEG3-62" target="pw6JsUR7cjv2rkqSTEG3-11" edge="1">
          <mxGeometry width="50" height="50" relative="1" as="geometry">
            <mxPoint x="-640" y="1560" as="sourcePoint" />
            <mxPoint x="-480" y="530" as="targetPoint" />
            <Array as="points">
              <mxPoint x="-470" y="1560" />
              <mxPoint x="-910" y="1560" />
              <mxPoint x="-910" y="570" />
            </Array>
          </mxGeometry>
        </mxCell>
        <mxCell id="pw6JsUR7cjv2rkqSTEG3-104" value="" style="endArrow=classic;html=1;rounded=0;fontSize=12;startSize=8;endSize=8;curved=1;exitX=1;exitY=0.5;exitDx=0;exitDy=0;entryX=0;entryY=0.5;entryDx=0;entryDy=0;" parent="1" source="pw6JsUR7cjv2rkqSTEG3-15" target="pw6JsUR7cjv2rkqSTEG3-16" edge="1">
          <mxGeometry relative="1" as="geometry">
            <mxPoint x="30" y="650" as="sourcePoint" />
            <mxPoint x="30" y="710" as="targetPoint" />
          </mxGeometry>
        </mxCell>
        <mxCell id="pw6JsUR7cjv2rkqSTEG3-105" value="yes" style="edgeLabel;resizable=0;html=1;;align=center;verticalAlign=middle;" parent="pw6JsUR7cjv2rkqSTEG3-104" connectable="0" vertex="1">
          <mxGeometry relative="1" as="geometry" />
        </mxCell>
        <mxCell id="pw6JsUR7cjv2rkqSTEG3-106" value="" style="endArrow=classic;html=1;rounded=0;fontSize=12;startSize=8;endSize=8;curved=1;exitX=1;exitY=0.5;exitDx=0;exitDy=0;entryX=0;entryY=0.5;entryDx=0;entryDy=0;" parent="1" source="pw6JsUR7cjv2rkqSTEG3-16" target="pw6JsUR7cjv2rkqSTEG3-18" edge="1">
          <mxGeometry relative="1" as="geometry">
            <mxPoint x="80" y="590" as="sourcePoint" />
            <mxPoint x="140" y="590" as="targetPoint" />
          </mxGeometry>
        </mxCell>
        <mxCell id="pw6JsUR7cjv2rkqSTEG3-107" value="yes" style="edgeLabel;resizable=0;html=1;;align=center;verticalAlign=middle;" parent="pw6JsUR7cjv2rkqSTEG3-106" connectable="0" vertex="1">
          <mxGeometry relative="1" as="geometry" />
        </mxCell>
        <mxCell id="pw6JsUR7cjv2rkqSTEG3-108" value="" style="endArrow=classic;html=1;rounded=0;fontSize=12;startSize=8;endSize=8;curved=1;exitX=1;exitY=0.5;exitDx=0;exitDy=0;entryX=0;entryY=0.5;entryDx=0;entryDy=0;" parent="1" source="pw6JsUR7cjv2rkqSTEG3-18" target="pw6JsUR7cjv2rkqSTEG3-25" edge="1">
          <mxGeometry relative="1" as="geometry">
            <mxPoint x="240" y="610" as="sourcePoint" />
            <mxPoint x="300" y="610" as="targetPoint" />
          </mxGeometry>
        </mxCell>
        <mxCell id="pw6JsUR7cjv2rkqSTEG3-109" value="yes" style="edgeLabel;resizable=0;html=1;;align=center;verticalAlign=middle;" parent="pw6JsUR7cjv2rkqSTEG3-108" connectable="0" vertex="1">
          <mxGeometry relative="1" as="geometry" />
        </mxCell>
        <mxCell id="pw6JsUR7cjv2rkqSTEG3-110" value="" style="endArrow=classic;html=1;rounded=0;fontSize=12;startSize=8;endSize=8;curved=1;exitX=1;exitY=0.5;exitDx=0;exitDy=0;entryX=0;entryY=0.5;entryDx=0;entryDy=0;" parent="1" source="pw6JsUR7cjv2rkqSTEG3-13" target="pw6JsUR7cjv2rkqSTEG3-14" edge="1">
          <mxGeometry relative="1" as="geometry">
            <mxPoint x="-60" y="770" as="sourcePoint" />
            <mxPoint y="770" as="targetPoint" />
          </mxGeometry>
        </mxCell>
        <mxCell id="pw6JsUR7cjv2rkqSTEG3-111" value="yes" style="edgeLabel;resizable=0;html=1;;align=center;verticalAlign=middle;" parent="pw6JsUR7cjv2rkqSTEG3-110" connectable="0" vertex="1">
          <mxGeometry relative="1" as="geometry" />
        </mxCell>
        <mxCell id="pw6JsUR7cjv2rkqSTEG3-116" value="" style="endArrow=classic;html=1;rounded=0;fontSize=12;startSize=8;endSize=8;curved=1;exitX=1;exitY=0.5;exitDx=0;exitDy=0;entryX=0;entryY=0.5;entryDx=0;entryDy=0;" parent="1" source="pw6JsUR7cjv2rkqSTEG3-14" target="pw6JsUR7cjv2rkqSTEG3-68" edge="1">
          <mxGeometry relative="1" as="geometry">
            <mxPoint x="90" y="780" as="sourcePoint" />
            <mxPoint x="150" y="780" as="targetPoint" />
          </mxGeometry>
        </mxCell>
        <mxCell id="pw6JsUR7cjv2rkqSTEG3-117" value="yes" style="edgeLabel;resizable=0;html=1;;align=center;verticalAlign=middle;" parent="pw6JsUR7cjv2rkqSTEG3-116" connectable="0" vertex="1">
          <mxGeometry relative="1" as="geometry" />
        </mxCell>
        <mxCell id="pw6JsUR7cjv2rkqSTEG3-122" value="" style="endArrow=classic;html=1;rounded=0;fontSize=12;startSize=8;endSize=8;curved=1;exitX=0.5;exitY=1;exitDx=0;exitDy=0;entryX=0.5;entryY=0;entryDx=0;entryDy=0;" parent="1" source="pw6JsUR7cjv2rkqSTEG3-15" target="pw6JsUR7cjv2rkqSTEG3-13" edge="1">
          <mxGeometry relative="1" as="geometry">
            <mxPoint x="-130" y="640" as="sourcePoint" />
            <mxPoint x="-60" y="650" as="targetPoint" />
          </mxGeometry>
        </mxCell>
        <mxCell id="pw6JsUR7cjv2rkqSTEG3-123" value="no" style="edgeLabel;resizable=0;html=1;;align=center;verticalAlign=middle;" parent="pw6JsUR7cjv2rkqSTEG3-122" connectable="0" vertex="1">
          <mxGeometry relative="1" as="geometry" />
        </mxCell>
        <mxCell id="pw6JsUR7cjv2rkqSTEG3-124" value="" style="endArrow=classic;html=1;rounded=0;fontSize=12;startSize=8;endSize=8;curved=1;exitX=0.5;exitY=0;exitDx=0;exitDy=0;entryX=0.5;entryY=1;entryDx=0;entryDy=0;" parent="1" source="pw6JsUR7cjv2rkqSTEG3-18" target="pw6JsUR7cjv2rkqSTEG3-23" edge="1">
          <mxGeometry relative="1" as="geometry">
            <mxPoint x="170" y="500" as="sourcePoint" />
            <mxPoint x="230" y="500" as="targetPoint" />
          </mxGeometry>
        </mxCell>
        <mxCell id="pw6JsUR7cjv2rkqSTEG3-125" value="no" style="edgeLabel;resizable=0;html=1;;align=center;verticalAlign=middle;" parent="pw6JsUR7cjv2rkqSTEG3-124" connectable="0" vertex="1">
          <mxGeometry relative="1" as="geometry" />
        </mxCell>
        <mxCell id="pw6JsUR7cjv2rkqSTEG3-126" value="" style="endArrow=classic;html=1;rounded=0;fontSize=12;startSize=8;endSize=8;curved=1;exitX=0;exitY=1;exitDx=0;exitDy=0;entryX=1;entryY=0;entryDx=0;entryDy=0;" parent="1" source="pw6JsUR7cjv2rkqSTEG3-16" target="pw6JsUR7cjv2rkqSTEG3-13" edge="1">
          <mxGeometry relative="1" as="geometry">
            <mxPoint y="470" as="sourcePoint" />
            <mxPoint x="60" y="470" as="targetPoint" />
          </mxGeometry>
        </mxCell>
        <mxCell id="pw6JsUR7cjv2rkqSTEG3-127" value="no" style="edgeLabel;resizable=0;html=1;;align=center;verticalAlign=middle;" parent="pw6JsUR7cjv2rkqSTEG3-126" connectable="0" vertex="1">
          <mxGeometry relative="1" as="geometry" />
        </mxCell>
        <mxCell id="pw6JsUR7cjv2rkqSTEG3-132" value="모두 완료했나?" style="rhombus;whiteSpace=wrap;html=1;fillColor=#d5e8d4;strokeColor=#82b366;" parent="1" vertex="1">
          <mxGeometry x="-170" y="840" width="100" height="100" as="geometry" />
        </mxCell>
        <mxCell id="pw6JsUR7cjv2rkqSTEG3-133" value="" style="endArrow=classic;html=1;rounded=0;fontSize=12;startSize=8;endSize=8;curved=1;exitX=0.5;exitY=1;exitDx=0;exitDy=0;entryX=0.5;entryY=0;entryDx=0;entryDy=0;" parent="1" source="pw6JsUR7cjv2rkqSTEG3-132" target="pw6JsUR7cjv2rkqSTEG3-69" edge="1">
          <mxGeometry relative="1" as="geometry">
            <mxPoint x="-270" y="790" as="sourcePoint" />
            <mxPoint x="-270" y="850" as="targetPoint" />
          </mxGeometry>
        </mxCell>
        <mxCell id="pw6JsUR7cjv2rkqSTEG3-134" value="yes" style="edgeLabel;resizable=0;html=1;;align=center;verticalAlign=middle;" parent="pw6JsUR7cjv2rkqSTEG3-133" connectable="0" vertex="1">
          <mxGeometry relative="1" as="geometry" />
        </mxCell>
        <mxCell id="pw6JsUR7cjv2rkqSTEG3-135" value="" style="endArrow=classic;html=1;rounded=0;fontSize=12;startSize=8;endSize=8;curved=1;exitX=0.5;exitY=1;exitDx=0;exitDy=0;" parent="1" source="pw6JsUR7cjv2rkqSTEG3-13" target="pw6JsUR7cjv2rkqSTEG3-132" edge="1">
          <mxGeometry relative="1" as="geometry">
            <mxPoint x="-120" y="800" as="sourcePoint" />
            <mxPoint x="-120" y="860" as="targetPoint" />
          </mxGeometry>
        </mxCell>
        <mxCell id="pw6JsUR7cjv2rkqSTEG3-136" value="no" style="edgeLabel;resizable=0;html=1;;align=center;verticalAlign=middle;" parent="pw6JsUR7cjv2rkqSTEG3-135" connectable="0" vertex="1">
          <mxGeometry relative="1" as="geometry" />
        </mxCell>
        <mxCell id="pw6JsUR7cjv2rkqSTEG3-137" value="" style="endArrow=classic;html=1;rounded=0;fontSize=12;startSize=8;endSize=8;exitX=1;exitY=0.5;exitDx=0;exitDy=0;entryX=0.5;entryY=0;entryDx=0;entryDy=0;edgeStyle=orthogonalEdgeStyle;" parent="1" source="pw6JsUR7cjv2rkqSTEG3-132" target="pw6JsUR7cjv2rkqSTEG3-11" edge="1">
          <mxGeometry relative="1" as="geometry">
            <mxPoint x="-10" y="880" as="sourcePoint" />
            <mxPoint x="20" y="890" as="targetPoint" />
            <Array as="points">
              <mxPoint x="630" y="890" />
              <mxPoint x="630" y="380" />
              <mxPoint x="-60" y="380" />
              <mxPoint x="-60" y="490" />
              <mxPoint x="-300" y="490" />
            </Array>
          </mxGeometry>
        </mxCell>
        <mxCell id="pw6JsUR7cjv2rkqSTEG3-138" value="no" style="edgeLabel;resizable=0;html=1;;align=center;verticalAlign=middle;" parent="pw6JsUR7cjv2rkqSTEG3-137" connectable="0" vertex="1">
          <mxGeometry relative="1" as="geometry">
            <mxPoint x="-660" y="440" as="offset" />
          </mxGeometry>
        </mxCell>
        <mxCell id="pw6JsUR7cjv2rkqSTEG3-145" value="작업 관리자" style="swimlane;whiteSpace=wrap;html=1;" parent="1" vertex="1">
          <mxGeometry x="-930" y="240" width="1580" height="1340" as="geometry" />
        </mxCell>
        <mxCell id="pw6JsUR7cjv2rkqSTEG3-69" value="초기 위치로 이동" style="rounded=0;whiteSpace=wrap;html=1;fillColor=#d5e8d4;strokeColor=#82b366;" parent="pw6JsUR7cjv2rkqSTEG3-145" vertex="1">
          <mxGeometry x="750" y="760" width="120" height="60" as="geometry" />
        </mxCell>
      </root>
    </mxGraphModel>
  </diagram>
  <diagram id="EeEqdQe6fp30MhytSwmj" name="system detail design">
    <mxGraphModel dx="2178" dy="1700" grid="1" gridSize="10" guides="1" tooltips="1" connect="1" arrows="1" fold="1" page="0" pageScale="1" pageWidth="827" pageHeight="1169" math="0" shadow="0">
      <root>
        <mxCell id="0" />
        <mxCell id="1" parent="0" />
        <mxCell id="Wtpfo83ekagGaFUSsDka-12" value="Kiosk" style="swimlane;whiteSpace=wrap;html=1;" parent="1" vertex="1">
          <mxGeometry x="-120" y="350" width="160" height="280" as="geometry" />
        </mxCell>
        <mxCell id="Wtpfo83ekagGaFUSsDka-13" value="Order GUI" style="rounded=0;whiteSpace=wrap;html=1;" parent="Wtpfo83ekagGaFUSsDka-12" vertex="1">
          <mxGeometry x="20" y="50" width="120" height="60" as="geometry" />
        </mxCell>
        <mxCell id="Wtpfo83ekagGaFUSsDka-16" value="Check Stock" style="rounded=0;whiteSpace=wrap;html=1;" parent="Wtpfo83ekagGaFUSsDka-12" vertex="1">
          <mxGeometry x="20" y="200" width="120" height="60" as="geometry" />
        </mxCell>
        <mxCell id="Wtpfo83ekagGaFUSsDka-19" value="" style="endArrow=classic;html=1;rounded=0;fontSize=12;startSize=8;endSize=8;curved=1;exitX=0.75;exitY=1;exitDx=0;exitDy=0;entryX=0.75;entryY=0;entryDx=0;entryDy=0;" parent="Wtpfo83ekagGaFUSsDka-12" source="Wtpfo83ekagGaFUSsDka-13" target="Wtpfo83ekagGaFUSsDka-16" edge="1">
          <mxGeometry relative="1" as="geometry">
            <mxPoint x="150" y="260" as="sourcePoint" />
            <mxPoint x="250" y="260" as="targetPoint" />
          </mxGeometry>
        </mxCell>
        <mxCell id="Wtpfo83ekagGaFUSsDka-20" value="order list" style="edgeLabel;resizable=0;html=1;;align=center;verticalAlign=middle;" parent="Wtpfo83ekagGaFUSsDka-19" connectable="0" vertex="1">
          <mxGeometry relative="1" as="geometry" />
        </mxCell>
        <mxCell id="Wtpfo83ekagGaFUSsDka-21" value="" style="endArrow=classic;html=1;rounded=0;fontSize=12;startSize=8;endSize=8;curved=1;exitX=0.25;exitY=0;exitDx=0;exitDy=0;entryX=0.25;entryY=1;entryDx=0;entryDy=0;" parent="Wtpfo83ekagGaFUSsDka-12" source="Wtpfo83ekagGaFUSsDka-16" target="Wtpfo83ekagGaFUSsDka-13" edge="1">
          <mxGeometry relative="1" as="geometry">
            <mxPoint x="120" y="120" as="sourcePoint" />
            <mxPoint x="120" y="210" as="targetPoint" />
          </mxGeometry>
        </mxCell>
        <mxCell id="Wtpfo83ekagGaFUSsDka-22" value="stock list" style="edgeLabel;resizable=0;html=1;;align=center;verticalAlign=middle;" parent="Wtpfo83ekagGaFUSsDka-21" connectable="0" vertex="1">
          <mxGeometry relative="1" as="geometry" />
        </mxCell>
        <mxCell id="Wtpfo83ekagGaFUSsDka-14" value="" style="endArrow=classic;html=1;rounded=0;fontSize=12;startSize=8;endSize=8;curved=1;exitX=1;exitY=0.25;exitDx=0;exitDy=0;entryX=0;entryY=0.25;entryDx=0;entryDy=0;" parent="1" source="Wtpfo83ekagGaFUSsDka-13" target="Wtpfo83ekagGaFUSsDka-24" edge="1">
          <mxGeometry relative="1" as="geometry">
            <mxPoint x="110" y="415" as="sourcePoint" />
            <mxPoint x="180" y="415" as="targetPoint" />
          </mxGeometry>
        </mxCell>
        <mxCell id="Wtpfo83ekagGaFUSsDka-15" value="Service Request&lt;div&gt;order list&lt;/div&gt;" style="edgeLabel;resizable=0;html=1;;align=center;verticalAlign=middle;" parent="Wtpfo83ekagGaFUSsDka-14" connectable="0" vertex="1">
          <mxGeometry relative="1" as="geometry" />
        </mxCell>
        <mxCell id="Wtpfo83ekagGaFUSsDka-23" value="Controller" style="swimlane;whiteSpace=wrap;html=1;" parent="1" vertex="1">
          <mxGeometry x="200" y="350" width="1210" height="770" as="geometry" />
        </mxCell>
        <mxCell id="oFeijelknk6A-1aKBPob-1" value="Detect Signal" style="swimlane;fontStyle=0;childLayout=stackLayout;horizontal=1;startSize=30;horizontalStack=0;resizeParent=1;resizeParentMax=0;resizeLast=0;collapsible=1;marginBottom=0;whiteSpace=wrap;html=1;" vertex="1" parent="Wtpfo83ekagGaFUSsDka-23">
          <mxGeometry x="579.96" y="359.68000000000006" width="140" height="120" as="geometry" />
        </mxCell>
        <mxCell id="oFeijelknk6A-1aKBPob-2" value="&lt;div style=&quot;text-align: center;&quot;&gt;detect compress&lt;br&gt;&lt;/div&gt;" style="text;strokeColor=none;fillColor=none;align=left;verticalAlign=middle;spacingLeft=4;spacingRight=4;overflow=hidden;points=[[0,0.5],[1,0.5]];portConstraint=eastwest;rotatable=0;whiteSpace=wrap;html=1;" vertex="1" parent="oFeijelknk6A-1aKBPob-1">
          <mxGeometry y="30" width="140" height="30" as="geometry" />
        </mxCell>
        <mxCell id="oFeijelknk6A-1aKBPob-3" value="&lt;div style=&quot;text-align: center;&quot;&gt;&lt;span style=&quot;background-color: transparent;&quot;&gt;change machine state&lt;/span&gt;&lt;/div&gt;" style="text;strokeColor=none;fillColor=none;align=left;verticalAlign=middle;spacingLeft=4;spacingRight=4;overflow=hidden;points=[[0,0.5],[1,0.5]];portConstraint=eastwest;rotatable=0;whiteSpace=wrap;html=1;" vertex="1" parent="oFeijelknk6A-1aKBPob-1">
          <mxGeometry y="60" width="140" height="30" as="geometry" />
        </mxCell>
        <mxCell id="oFeijelknk6A-1aKBPob-4" value="&lt;div style=&quot;text-align: center;&quot;&gt;change Task state&lt;br&gt;&lt;/div&gt;" style="text;strokeColor=none;fillColor=none;align=left;verticalAlign=middle;spacingLeft=4;spacingRight=4;overflow=hidden;points=[[0,0.5],[1,0.5]];portConstraint=eastwest;rotatable=0;whiteSpace=wrap;html=1;" vertex="1" parent="oFeijelknk6A-1aKBPob-1">
          <mxGeometry y="90" width="140" height="30" as="geometry" />
        </mxCell>
        <mxCell id="Wtpfo83ekagGaFUSsDka-32" value="Check Cooking Time" style="rounded=0;whiteSpace=wrap;html=1;" parent="Wtpfo83ekagGaFUSsDka-23" vertex="1">
          <mxGeometry x="589.96" y="230" width="120" height="60" as="geometry" />
        </mxCell>
        <mxCell id="Wtpfo83ekagGaFUSsDka-37" value="state == finish" style="rhombus;whiteSpace=wrap;html=1;" parent="Wtpfo83ekagGaFUSsDka-23" vertex="1">
          <mxGeometry x="429.96" y="510" width="100" height="100" as="geometry" />
        </mxCell>
        <mxCell id="Wtpfo83ekagGaFUSsDka-24" value="Task Manager" style="rounded=0;whiteSpace=wrap;html=1;" parent="Wtpfo83ekagGaFUSsDka-23" vertex="1">
          <mxGeometry x="49.96" y="50" width="120" height="60" as="geometry" />
        </mxCell>
        <mxCell id="Wtpfo83ekagGaFUSsDka-38" value="state ==&amp;nbsp;&lt;span style=&quot;background-color: transparent; color: light-dark(rgb(0, 0, 0), rgb(255, 255, 255));&quot;&gt;possible&lt;/span&gt;" style="rhombus;whiteSpace=wrap;html=1;" parent="Wtpfo83ekagGaFUSsDka-23" vertex="1">
          <mxGeometry x="59.96" y="210" width="100" height="100" as="geometry" />
        </mxCell>
        <mxCell id="Wtpfo83ekagGaFUSsDka-39" value="&lt;span style=&quot;font-size: 11px; text-wrap: nowrap; background-color: rgb(255, 255, 255);&quot;&gt;machine ==&amp;nbsp;&lt;/span&gt;&lt;div&gt;microwave&lt;/div&gt;" style="rhombus;whiteSpace=wrap;html=1;" parent="Wtpfo83ekagGaFUSsDka-23" vertex="1">
          <mxGeometry x="59.96" y="370" width="100" height="100" as="geometry" />
        </mxCell>
        <mxCell id="RB__XyWFmSgpDCHGHVvj-18" style="edgeStyle=orthogonalEdgeStyle;rounded=0;orthogonalLoop=1;jettySize=auto;html=1;entryX=0.25;entryY=1;entryDx=0;entryDy=0;fontSize=12;startSize=8;endSize=8;exitX=0.502;exitY=1.002;exitDx=0;exitDy=0;exitPerimeter=0;" parent="Wtpfo83ekagGaFUSsDka-23" source="xNgpLalz-9ATGTOnf1iT-12" target="Wtpfo83ekagGaFUSsDka-24" edge="1">
          <mxGeometry relative="1" as="geometry">
            <Array as="points">
              <mxPoint x="299.96" y="750" />
              <mxPoint x="19.96" y="750" />
              <mxPoint x="19.96" y="140" />
              <mxPoint x="79.96000000000001" y="140" />
            </Array>
            <mxPoint x="299.96" y="870" as="sourcePoint" />
          </mxGeometry>
        </mxCell>
        <mxCell id="Wtpfo83ekagGaFUSsDka-44" value="" style="endArrow=classic;html=1;rounded=0;fontSize=12;startSize=8;endSize=8;curved=1;exitX=0.5;exitY=1;exitDx=0;exitDy=0;entryX=0.5;entryY=0;entryDx=0;entryDy=0;" parent="Wtpfo83ekagGaFUSsDka-23" source="Wtpfo83ekagGaFUSsDka-24" target="Wtpfo83ekagGaFUSsDka-38" edge="1">
          <mxGeometry relative="1" as="geometry">
            <mxPoint x="89.96000000000001" y="230" as="sourcePoint" />
            <mxPoint x="189.96" y="230" as="targetPoint" />
          </mxGeometry>
        </mxCell>
        <mxCell id="Wtpfo83ekagGaFUSsDka-45" value="Task info&lt;div&gt;(order,&amp;nbsp;quantity,&amp;nbsp;&lt;/div&gt;&lt;div&gt;machine, state, time)&lt;/div&gt;" style="edgeLabel;resizable=0;html=1;;align=center;verticalAlign=middle;" parent="Wtpfo83ekagGaFUSsDka-44" connectable="0" vertex="1">
          <mxGeometry relative="1" as="geometry" />
        </mxCell>
        <mxCell id="Wtpfo83ekagGaFUSsDka-46" value="" style="endArrow=classic;html=1;rounded=0;fontSize=12;startSize=8;endSize=8;curved=1;exitX=0.5;exitY=1;exitDx=0;exitDy=0;entryX=0.5;entryY=0;entryDx=0;entryDy=0;" parent="Wtpfo83ekagGaFUSsDka-23" source="Wtpfo83ekagGaFUSsDka-38" target="Wtpfo83ekagGaFUSsDka-39" edge="1">
          <mxGeometry relative="1" as="geometry">
            <mxPoint x="229.96" y="430" as="sourcePoint" />
            <mxPoint x="329.96" y="430" as="targetPoint" />
          </mxGeometry>
        </mxCell>
        <mxCell id="Wtpfo83ekagGaFUSsDka-47" value="yes" style="edgeLabel;resizable=0;html=1;;align=center;verticalAlign=middle;" parent="Wtpfo83ekagGaFUSsDka-46" connectable="0" vertex="1">
          <mxGeometry relative="1" as="geometry" />
        </mxCell>
        <mxCell id="Wtpfo83ekagGaFUSsDka-48" value="" style="endArrow=classic;html=1;rounded=0;fontSize=12;startSize=8;endSize=8;curved=1;exitX=0.5;exitY=1;exitDx=0;exitDy=0;entryX=0.5;entryY=0;entryDx=0;entryDy=0;" parent="Wtpfo83ekagGaFUSsDka-23" source="Wtpfo83ekagGaFUSsDka-39" target="xNgpLalz-9ATGTOnf1iT-1" edge="1">
          <mxGeometry relative="1" as="geometry">
            <mxPoint x="119.96000000000001" y="320" as="sourcePoint" />
            <mxPoint x="109.96000000000001" y="530" as="targetPoint" />
          </mxGeometry>
        </mxCell>
        <mxCell id="Wtpfo83ekagGaFUSsDka-49" value="yes" style="edgeLabel;resizable=0;html=1;;align=center;verticalAlign=middle;" parent="Wtpfo83ekagGaFUSsDka-48" connectable="0" vertex="1">
          <mxGeometry relative="1" as="geometry" />
        </mxCell>
        <mxCell id="Wtpfo83ekagGaFUSsDka-51" value="" style="endArrow=classic;html=1;rounded=0;fontSize=12;startSize=8;endSize=8;curved=1;exitX=1;exitY=0.5;exitDx=0;exitDy=0;entryX=-0.003;entryY=0.003;entryDx=0;entryDy=0;entryPerimeter=0;" parent="Wtpfo83ekagGaFUSsDka-23" source="Wtpfo83ekagGaFUSsDka-39" target="xNgpLalz-9ATGTOnf1iT-10" edge="1">
          <mxGeometry relative="1" as="geometry">
            <mxPoint x="129.96" y="330" as="sourcePoint" />
            <mxPoint x="219.96" y="419" as="targetPoint" />
          </mxGeometry>
        </mxCell>
        <mxCell id="Wtpfo83ekagGaFUSsDka-52" value="no" style="edgeLabel;resizable=0;html=1;;align=center;verticalAlign=middle;" parent="Wtpfo83ekagGaFUSsDka-51" connectable="0" vertex="1">
          <mxGeometry relative="1" as="geometry" />
        </mxCell>
        <mxCell id="RB__XyWFmSgpDCHGHVvj-16" value="" style="endArrow=classic;html=1;rounded=0;fontSize=12;startSize=8;endSize=8;entryX=0.25;entryY=1;entryDx=0;entryDy=0;edgeStyle=orthogonalEdgeStyle;exitX=0.495;exitY=1.007;exitDx=0;exitDy=0;exitPerimeter=0;" parent="Wtpfo83ekagGaFUSsDka-23" source="xNgpLalz-9ATGTOnf1iT-6" target="Wtpfo83ekagGaFUSsDka-24" edge="1">
          <mxGeometry relative="1" as="geometry">
            <mxPoint x="109.96000000000001" y="1010" as="sourcePoint" />
            <mxPoint x="259.96" y="480" as="targetPoint" />
            <Array as="points">
              <mxPoint x="108.96000000000001" y="750" />
              <mxPoint x="19.96" y="750" />
              <mxPoint x="19.96" y="140" />
              <mxPoint x="79.96000000000001" y="140" />
            </Array>
          </mxGeometry>
        </mxCell>
        <mxCell id="RB__XyWFmSgpDCHGHVvj-17" value="Task state&lt;div&gt;cook&lt;/div&gt;" style="edgeLabel;resizable=0;html=1;;align=center;verticalAlign=middle;" parent="RB__XyWFmSgpDCHGHVvj-16" connectable="0" vertex="1">
          <mxGeometry relative="1" as="geometry">
            <mxPoint x="90" y="265" as="offset" />
          </mxGeometry>
        </mxCell>
        <mxCell id="Q367YZMe3S0lI6A5iBOH-49" value="Task state&lt;div&gt;cook&lt;/div&gt;" style="edgeLabel;resizable=0;html=1;;align=center;verticalAlign=middle;" parent="RB__XyWFmSgpDCHGHVvj-16" connectable="0" vertex="1">
          <mxGeometry relative="1" as="geometry">
            <mxPoint x="280" y="65" as="offset" />
          </mxGeometry>
        </mxCell>
        <mxCell id="RB__XyWFmSgpDCHGHVvj-23" value="state == cook" style="rhombus;whiteSpace=wrap;html=1;" parent="Wtpfo83ekagGaFUSsDka-23" vertex="1">
          <mxGeometry x="429.96" y="210" width="100" height="100" as="geometry" />
        </mxCell>
        <mxCell id="RB__XyWFmSgpDCHGHVvj-24" value="state == wait" style="rhombus;whiteSpace=wrap;html=1;" parent="Wtpfo83ekagGaFUSsDka-23" vertex="1">
          <mxGeometry x="429.96" y="369.68" width="100" height="100" as="geometry" />
        </mxCell>
        <mxCell id="Q367YZMe3S0lI6A5iBOH-1" value="&lt;span style=&quot;text-align: left;&quot;&gt;init pose&lt;/span&gt;" style="rounded=0;whiteSpace=wrap;html=1;" parent="Wtpfo83ekagGaFUSsDka-23" vertex="1">
          <mxGeometry x="419.96" y="670" width="120" height="60" as="geometry" />
        </mxCell>
        <mxCell id="Q367YZMe3S0lI6A5iBOH-2" value="time == 0" style="rhombus;whiteSpace=wrap;html=1;" parent="Wtpfo83ekagGaFUSsDka-23" vertex="1">
          <mxGeometry x="839.96" y="210" width="100" height="100" as="geometry" />
        </mxCell>
        <mxCell id="Q367YZMe3S0lI6A5iBOH-50" value="" style="endArrow=classic;html=1;rounded=0;fontSize=12;startSize=8;endSize=8;curved=1;exitX=1;exitY=0.5;exitDx=0;exitDy=0;entryX=0;entryY=0.5;entryDx=0;entryDy=0;" parent="Wtpfo83ekagGaFUSsDka-23" source="Wtpfo83ekagGaFUSsDka-38" target="RB__XyWFmSgpDCHGHVvj-23" edge="1">
          <mxGeometry relative="1" as="geometry">
            <mxPoint x="229.96" y="270" as="sourcePoint" />
            <mxPoint x="309.96" y="270" as="targetPoint" />
          </mxGeometry>
        </mxCell>
        <mxCell id="Q367YZMe3S0lI6A5iBOH-51" value="no" style="edgeLabel;resizable=0;html=1;;align=center;verticalAlign=middle;" parent="Q367YZMe3S0lI6A5iBOH-50" connectable="0" vertex="1">
          <mxGeometry relative="1" as="geometry" />
        </mxCell>
        <mxCell id="Q367YZMe3S0lI6A5iBOH-52" value="" style="endArrow=classic;html=1;rounded=0;fontSize=12;startSize=8;endSize=8;curved=1;exitX=1;exitY=0.5;exitDx=0;exitDy=0;entryX=0;entryY=0.5;entryDx=0;entryDy=0;" parent="Wtpfo83ekagGaFUSsDka-23" source="RB__XyWFmSgpDCHGHVvj-23" target="Wtpfo83ekagGaFUSsDka-32" edge="1">
          <mxGeometry relative="1" as="geometry">
            <mxPoint x="489.96" y="330" as="sourcePoint" />
            <mxPoint x="489.96" y="390" as="targetPoint" />
          </mxGeometry>
        </mxCell>
        <mxCell id="Q367YZMe3S0lI6A5iBOH-53" value="yes" style="edgeLabel;resizable=0;html=1;;align=center;verticalAlign=middle;" parent="Q367YZMe3S0lI6A5iBOH-52" connectable="0" vertex="1">
          <mxGeometry relative="1" as="geometry" />
        </mxCell>
        <mxCell id="Q367YZMe3S0lI6A5iBOH-54" value="" style="endArrow=classic;html=1;rounded=0;fontSize=12;startSize=8;endSize=8;curved=1;exitX=0.5;exitY=1;exitDx=0;exitDy=0;entryX=0.5;entryY=0;entryDx=0;entryDy=0;" parent="Wtpfo83ekagGaFUSsDka-23" source="RB__XyWFmSgpDCHGHVvj-23" target="RB__XyWFmSgpDCHGHVvj-24" edge="1">
          <mxGeometry relative="1" as="geometry">
            <mxPoint x="169.96" y="270" as="sourcePoint" />
            <mxPoint x="439.96" y="270" as="targetPoint" />
          </mxGeometry>
        </mxCell>
        <mxCell id="Q367YZMe3S0lI6A5iBOH-55" value="no" style="edgeLabel;resizable=0;html=1;;align=center;verticalAlign=middle;" parent="Q367YZMe3S0lI6A5iBOH-54" connectable="0" vertex="1">
          <mxGeometry relative="1" as="geometry" />
        </mxCell>
        <mxCell id="Q367YZMe3S0lI6A5iBOH-56" value="" style="endArrow=classic;html=1;rounded=0;fontSize=12;startSize=8;endSize=8;curved=1;exitX=1;exitY=0.5;exitDx=0;exitDy=0;entryX=0;entryY=0.5;entryDx=0;entryDy=0;" parent="Wtpfo83ekagGaFUSsDka-23" source="Wtpfo83ekagGaFUSsDka-32" target="Q367YZMe3S0lI6A5iBOH-2" edge="1">
          <mxGeometry relative="1" as="geometry">
            <mxPoint x="539.96" y="270" as="sourcePoint" />
            <mxPoint x="599.96" y="270" as="targetPoint" />
          </mxGeometry>
        </mxCell>
        <mxCell id="Q367YZMe3S0lI6A5iBOH-57" value="cooking time info" style="edgeLabel;resizable=0;html=1;;align=center;verticalAlign=middle;" parent="Q367YZMe3S0lI6A5iBOH-56" connectable="0" vertex="1">
          <mxGeometry relative="1" as="geometry" />
        </mxCell>
        <mxCell id="Q367YZMe3S0lI6A5iBOH-58" value="" style="endArrow=classic;html=1;rounded=0;fontSize=12;startSize=8;endSize=8;curved=1;exitX=1;exitY=0.5;exitDx=0;exitDy=0;entryX=-0.013;entryY=-0.003;entryDx=0;entryDy=0;entryPerimeter=0;" parent="Wtpfo83ekagGaFUSsDka-23" source="Q367YZMe3S0lI6A5iBOH-2" target="_dAwVBlpdnPLTQGumjuK-5" edge="1">
          <mxGeometry relative="1" as="geometry">
            <mxPoint x="979.96" y="370" as="sourcePoint" />
            <mxPoint x="1029.96" y="260" as="targetPoint" />
          </mxGeometry>
        </mxCell>
        <mxCell id="Q367YZMe3S0lI6A5iBOH-59" value="yes" style="edgeLabel;resizable=0;html=1;;align=center;verticalAlign=middle;" parent="Q367YZMe3S0lI6A5iBOH-58" connectable="0" vertex="1">
          <mxGeometry relative="1" as="geometry" />
        </mxCell>
        <mxCell id="Q367YZMe3S0lI6A5iBOH-60" value="" style="endArrow=classic;html=1;rounded=0;fontSize=12;startSize=8;endSize=8;exitX=0.5;exitY=0;exitDx=0;exitDy=0;entryX=1;entryY=0.5;entryDx=0;entryDy=0;edgeStyle=orthogonalEdgeStyle;" parent="Wtpfo83ekagGaFUSsDka-23" source="Q367YZMe3S0lI6A5iBOH-2" target="Wtpfo83ekagGaFUSsDka-24" edge="1">
          <mxGeometry relative="1" as="geometry">
            <mxPoint x="489.96" y="320" as="sourcePoint" />
            <mxPoint x="489.96" y="420" as="targetPoint" />
          </mxGeometry>
        </mxCell>
        <mxCell id="Q367YZMe3S0lI6A5iBOH-61" value="&lt;div&gt;no&lt;/div&gt;" style="edgeLabel;resizable=0;html=1;;align=center;verticalAlign=middle;" parent="Q367YZMe3S0lI6A5iBOH-60" connectable="0" vertex="1">
          <mxGeometry relative="1" as="geometry">
            <mxPoint x="295" y="100" as="offset" />
          </mxGeometry>
        </mxCell>
        <mxCell id="Q367YZMe3S0lI6A5iBOH-63" value="" style="endArrow=classic;html=1;rounded=0;fontSize=12;startSize=8;endSize=8;entryX=1;entryY=0.5;entryDx=0;entryDy=0;edgeStyle=orthogonalEdgeStyle;exitX=0.5;exitY=0;exitDx=0;exitDy=0;" parent="Wtpfo83ekagGaFUSsDka-23" source="_dAwVBlpdnPLTQGumjuK-1" target="Wtpfo83ekagGaFUSsDka-24" edge="1">
          <mxGeometry relative="1" as="geometry">
            <mxPoint x="1109.96" y="130" as="sourcePoint" />
            <mxPoint x="859.96" y="100" as="targetPoint" />
          </mxGeometry>
        </mxCell>
        <mxCell id="Q367YZMe3S0lI6A5iBOH-64" value="Task state&lt;div&gt;finish&lt;/div&gt;" style="edgeLabel;resizable=0;html=1;;align=center;verticalAlign=middle;" parent="Q367YZMe3S0lI6A5iBOH-63" connectable="0" vertex="1">
          <mxGeometry relative="1" as="geometry">
            <mxPoint x="440" y="40" as="offset" />
          </mxGeometry>
        </mxCell>
        <mxCell id="Q367YZMe3S0lI6A5iBOH-65" value="" style="endArrow=classic;html=1;rounded=0;fontSize=12;startSize=8;endSize=8;curved=1;exitX=1;exitY=0.5;exitDx=0;exitDy=0;entryX=0;entryY=0.011;entryDx=0;entryDy=0;entryPerimeter=0;" parent="Wtpfo83ekagGaFUSsDka-23" source="RB__XyWFmSgpDCHGHVvj-24" target="oFeijelknk6A-1aKBPob-3" edge="1">
          <mxGeometry relative="1" as="geometry">
            <mxPoint x="539.96" y="389.68" as="sourcePoint" />
            <mxPoint x="569.96" y="420" as="targetPoint" />
          </mxGeometry>
        </mxCell>
        <mxCell id="Q367YZMe3S0lI6A5iBOH-66" value="yes" style="edgeLabel;resizable=0;html=1;;align=center;verticalAlign=middle;" parent="Q367YZMe3S0lI6A5iBOH-65" connectable="0" vertex="1">
          <mxGeometry relative="1" as="geometry" />
        </mxCell>
        <mxCell id="Q367YZMe3S0lI6A5iBOH-67" value="detecting == 0" style="rhombus;whiteSpace=wrap;html=1;" parent="Wtpfo83ekagGaFUSsDka-23" vertex="1">
          <mxGeometry x="839.96" y="369.68" width="100" height="100" as="geometry" />
        </mxCell>
        <mxCell id="Q367YZMe3S0lI6A5iBOH-68" value="" style="endArrow=classic;html=1;rounded=0;fontSize=12;startSize=8;endSize=8;curved=1;entryX=0;entryY=0.5;entryDx=0;entryDy=0;exitX=1.003;exitY=0.016;exitDx=0;exitDy=0;exitPerimeter=0;" parent="Wtpfo83ekagGaFUSsDka-23" source="oFeijelknk6A-1aKBPob-3" target="Q367YZMe3S0lI6A5iBOH-67" edge="1">
          <mxGeometry relative="1" as="geometry">
            <mxPoint x="729.96" y="420" as="sourcePoint" />
            <mxPoint x="599.96" y="429.68" as="targetPoint" />
          </mxGeometry>
        </mxCell>
        <mxCell id="Q367YZMe3S0lI6A5iBOH-69" value="Detecting info" style="edgeLabel;resizable=0;html=1;;align=center;verticalAlign=middle;" parent="Q367YZMe3S0lI6A5iBOH-68" connectable="0" vertex="1">
          <mxGeometry relative="1" as="geometry" />
        </mxCell>
        <mxCell id="Q367YZMe3S0lI6A5iBOH-70" value="" style="endArrow=classic;html=1;rounded=0;fontSize=12;startSize=8;endSize=8;exitX=1;exitY=0.5;exitDx=0;exitDy=0;entryX=1;entryY=0.5;entryDx=0;entryDy=0;edgeStyle=orthogonalEdgeStyle;" parent="Wtpfo83ekagGaFUSsDka-23" source="Q367YZMe3S0lI6A5iBOH-67" target="Wtpfo83ekagGaFUSsDka-24" edge="1">
          <mxGeometry relative="1" as="geometry">
            <mxPoint x="989.96" y="470" as="sourcePoint" />
            <mxPoint x="1049.96" y="460" as="targetPoint" />
            <Array as="points">
              <mxPoint x="1189.96" y="420" />
              <mxPoint x="1189.96" y="80" />
            </Array>
          </mxGeometry>
        </mxCell>
        <mxCell id="Q367YZMe3S0lI6A5iBOH-71" value="yes" style="edgeLabel;resizable=0;html=1;;align=center;verticalAlign=middle;" parent="Q367YZMe3S0lI6A5iBOH-70" connectable="0" vertex="1">
          <mxGeometry relative="1" as="geometry">
            <mxPoint x="-15" y="340" as="offset" />
          </mxGeometry>
        </mxCell>
        <mxCell id="Q367YZMe3S0lI6A5iBOH-73" value="Task state&lt;div&gt;possible&lt;/div&gt;" style="edgeLabel;html=1;align=center;verticalAlign=middle;resizable=0;points=[];fontSize=12;" parent="Q367YZMe3S0lI6A5iBOH-70" vertex="1" connectable="0">
          <mxGeometry x="-0.8719" y="1" relative="1" as="geometry">
            <mxPoint as="offset" />
          </mxGeometry>
        </mxCell>
        <mxCell id="Q367YZMe3S0lI6A5iBOH-74" value="" style="endArrow=classic;html=1;rounded=0;fontSize=12;startSize=8;endSize=8;exitX=0.5;exitY=0;exitDx=0;exitDy=0;entryX=1;entryY=0.5;entryDx=0;entryDy=0;edgeStyle=orthogonalEdgeStyle;" parent="Wtpfo83ekagGaFUSsDka-23" source="Q367YZMe3S0lI6A5iBOH-67" target="Wtpfo83ekagGaFUSsDka-24" edge="1">
          <mxGeometry relative="1" as="geometry">
            <mxPoint x="899.96" y="220" as="sourcePoint" />
            <mxPoint x="179.96" y="90" as="targetPoint" />
            <Array as="points">
              <mxPoint x="889.96" y="340" />
              <mxPoint x="1189.96" y="340" />
              <mxPoint x="1189.96" y="80" />
            </Array>
          </mxGeometry>
        </mxCell>
        <mxCell id="Q367YZMe3S0lI6A5iBOH-75" value="&lt;div&gt;no&lt;/div&gt;" style="edgeLabel;resizable=0;html=1;;align=center;verticalAlign=middle;" parent="Q367YZMe3S0lI6A5iBOH-74" connectable="0" vertex="1">
          <mxGeometry relative="1" as="geometry">
            <mxPoint x="-85" y="270" as="offset" />
          </mxGeometry>
        </mxCell>
        <mxCell id="Q367YZMe3S0lI6A5iBOH-76" value="" style="endArrow=classic;html=1;rounded=0;fontSize=12;startSize=8;endSize=8;curved=1;exitX=0.5;exitY=1;exitDx=0;exitDy=0;entryX=0.5;entryY=0;entryDx=0;entryDy=0;" parent="Wtpfo83ekagGaFUSsDka-23" source="RB__XyWFmSgpDCHGHVvj-24" target="Wtpfo83ekagGaFUSsDka-37" edge="1">
          <mxGeometry relative="1" as="geometry">
            <mxPoint x="579.96" y="590" as="sourcePoint" />
            <mxPoint x="579.96" y="690" as="targetPoint" />
          </mxGeometry>
        </mxCell>
        <mxCell id="Q367YZMe3S0lI6A5iBOH-77" value="no" style="edgeLabel;resizable=0;html=1;;align=center;verticalAlign=middle;" parent="Q367YZMe3S0lI6A5iBOH-76" connectable="0" vertex="1">
          <mxGeometry relative="1" as="geometry" />
        </mxCell>
        <mxCell id="Q367YZMe3S0lI6A5iBOH-78" value="" style="endArrow=classic;html=1;rounded=0;fontSize=12;startSize=8;endSize=8;curved=1;exitX=0.5;exitY=1;exitDx=0;exitDy=0;entryX=0.5;entryY=0;entryDx=0;entryDy=0;" parent="Wtpfo83ekagGaFUSsDka-23" source="Wtpfo83ekagGaFUSsDka-37" target="Q367YZMe3S0lI6A5iBOH-1" edge="1">
          <mxGeometry relative="1" as="geometry">
            <mxPoint x="539.96" y="660" as="sourcePoint" />
            <mxPoint x="595.96" y="661" as="targetPoint" />
          </mxGeometry>
        </mxCell>
        <mxCell id="Q367YZMe3S0lI6A5iBOH-79" value="yes" style="edgeLabel;resizable=0;html=1;;align=center;verticalAlign=middle;" parent="Q367YZMe3S0lI6A5iBOH-78" connectable="0" vertex="1">
          <mxGeometry relative="1" as="geometry" />
        </mxCell>
        <mxCell id="Q367YZMe3S0lI6A5iBOH-80" value="" style="endArrow=classic;html=1;rounded=0;fontSize=12;startSize=8;endSize=8;exitX=1;exitY=0.5;exitDx=0;exitDy=0;entryX=1;entryY=0.5;entryDx=0;entryDy=0;edgeStyle=orthogonalEdgeStyle;" parent="Wtpfo83ekagGaFUSsDka-23" source="Wtpfo83ekagGaFUSsDka-37" target="Wtpfo83ekagGaFUSsDka-24" edge="1">
          <mxGeometry relative="1" as="geometry">
            <mxPoint x="553.96" y="479" as="sourcePoint" />
            <mxPoint x="229.96" y="290" as="targetPoint" />
            <Array as="points">
              <mxPoint x="1189.96" y="560" />
              <mxPoint x="1189.96" y="80" />
            </Array>
          </mxGeometry>
        </mxCell>
        <mxCell id="Q367YZMe3S0lI6A5iBOH-81" value="no" style="edgeLabel;resizable=0;html=1;;align=center;verticalAlign=middle;" parent="Q367YZMe3S0lI6A5iBOH-80" connectable="0" vertex="1">
          <mxGeometry relative="1" as="geometry">
            <mxPoint x="-640" y="420" as="offset" />
          </mxGeometry>
        </mxCell>
        <mxCell id="xNgpLalz-9ATGTOnf1iT-1" value="Use Microwave" style="swimlane;fontStyle=0;childLayout=stackLayout;horizontal=1;startSize=30;horizontalStack=0;resizeParent=1;resizeParentMax=0;resizeLast=0;collapsible=1;marginBottom=0;whiteSpace=wrap;html=1;" vertex="1" parent="Wtpfo83ekagGaFUSsDka-23">
          <mxGeometry x="39.96" y="530" width="140" height="180" as="geometry" />
        </mxCell>
        <mxCell id="xNgpLalz-9ATGTOnf1iT-2" value="open Microwave" style="text;strokeColor=none;fillColor=none;align=left;verticalAlign=middle;spacingLeft=4;spacingRight=4;overflow=hidden;points=[[0,0.5],[1,0.5]];portConstraint=eastwest;rotatable=0;whiteSpace=wrap;html=1;" vertex="1" parent="xNgpLalz-9ATGTOnf1iT-1">
          <mxGeometry y="30" width="140" height="30" as="geometry" />
        </mxCell>
        <mxCell id="xNgpLalz-9ATGTOnf1iT-3" value="&lt;span style=&quot;text-align: center;&quot;&gt;pick up food&lt;/span&gt;" style="text;strokeColor=none;fillColor=none;align=left;verticalAlign=middle;spacingLeft=4;spacingRight=4;overflow=hidden;points=[[0,0.5],[1,0.5]];portConstraint=eastwest;rotatable=0;whiteSpace=wrap;html=1;" vertex="1" parent="xNgpLalz-9ATGTOnf1iT-1">
          <mxGeometry y="60" width="140" height="30" as="geometry" />
        </mxCell>
        <mxCell id="xNgpLalz-9ATGTOnf1iT-4" value="&lt;span style=&quot;text-align: center;&quot;&gt;put food&lt;/span&gt;" style="text;strokeColor=none;fillColor=none;align=left;verticalAlign=middle;spacingLeft=4;spacingRight=4;overflow=hidden;points=[[0,0.5],[1,0.5]];portConstraint=eastwest;rotatable=0;whiteSpace=wrap;html=1;" vertex="1" parent="xNgpLalz-9ATGTOnf1iT-1">
          <mxGeometry y="90" width="140" height="30" as="geometry" />
        </mxCell>
        <mxCell id="xNgpLalz-9ATGTOnf1iT-5" value="&lt;span style=&quot;text-align: center;&quot;&gt;Close Microwave&lt;/span&gt;" style="text;strokeColor=none;fillColor=none;align=left;verticalAlign=middle;spacingLeft=4;spacingRight=4;overflow=hidden;points=[[0,0.5],[1,0.5]];portConstraint=eastwest;rotatable=0;whiteSpace=wrap;html=1;" vertex="1" parent="xNgpLalz-9ATGTOnf1iT-1">
          <mxGeometry y="120" width="140" height="30" as="geometry" />
        </mxCell>
        <mxCell id="xNgpLalz-9ATGTOnf1iT-6" value="&lt;span style=&quot;text-align: center;&quot;&gt;Timer&lt;/span&gt;" style="text;strokeColor=none;fillColor=none;align=left;verticalAlign=middle;spacingLeft=4;spacingRight=4;overflow=hidden;points=[[0,0.5],[1,0.5]];portConstraint=eastwest;rotatable=0;whiteSpace=wrap;html=1;" vertex="1" parent="xNgpLalz-9ATGTOnf1iT-1">
          <mxGeometry y="150" width="140" height="30" as="geometry" />
        </mxCell>
        <mxCell id="xNgpLalz-9ATGTOnf1iT-7" value="Use Microwave" style="swimlane;fontStyle=0;childLayout=stackLayout;horizontal=1;startSize=30;horizontalStack=0;resizeParent=1;resizeParentMax=0;resizeLast=0;collapsible=1;marginBottom=0;whiteSpace=wrap;html=1;" vertex="1" parent="Wtpfo83ekagGaFUSsDka-23">
          <mxGeometry x="229.96" y="330" width="140" height="180" as="geometry">
            <mxRectangle x="250" y="330" width="120" height="30" as="alternateBounds" />
          </mxGeometry>
        </mxCell>
        <mxCell id="xNgpLalz-9ATGTOnf1iT-8" value="&lt;span style=&quot;text-align: center;&quot;&gt;Pick up Ramen&lt;/span&gt;" style="text;strokeColor=none;fillColor=none;align=left;verticalAlign=middle;spacingLeft=4;spacingRight=4;overflow=hidden;points=[[0,0.5],[1,0.5]];portConstraint=eastwest;rotatable=0;whiteSpace=wrap;html=1;" vertex="1" parent="xNgpLalz-9ATGTOnf1iT-7">
          <mxGeometry y="30" width="140" height="30" as="geometry" />
        </mxCell>
        <mxCell id="xNgpLalz-9ATGTOnf1iT-9" value="&lt;span style=&quot;text-align: center;&quot;&gt;Pick up Ramen&lt;/span&gt;" style="text;strokeColor=none;fillColor=none;align=left;verticalAlign=middle;spacingLeft=4;spacingRight=4;overflow=hidden;points=[[0,0.5],[1,0.5]];portConstraint=eastwest;rotatable=0;whiteSpace=wrap;html=1;" vertex="1" parent="xNgpLalz-9ATGTOnf1iT-7">
          <mxGeometry y="60" width="140" height="30" as="geometry" />
        </mxCell>
        <mxCell id="xNgpLalz-9ATGTOnf1iT-10" value="&lt;span style=&quot;text-align: center;&quot;&gt;Pick up soup&lt;/span&gt;" style="text;strokeColor=none;fillColor=none;align=left;verticalAlign=middle;spacingLeft=4;spacingRight=4;overflow=hidden;points=[[0,0.5],[1,0.5]];portConstraint=eastwest;rotatable=0;whiteSpace=wrap;html=1;" vertex="1" parent="xNgpLalz-9ATGTOnf1iT-7">
          <mxGeometry y="90" width="140" height="30" as="geometry" />
        </mxCell>
        <mxCell id="xNgpLalz-9ATGTOnf1iT-11" value="&lt;span style=&quot;text-align: center;&quot;&gt;Put soup&lt;/span&gt;" style="text;strokeColor=none;fillColor=none;align=left;verticalAlign=middle;spacingLeft=4;spacingRight=4;overflow=hidden;points=[[0,0.5],[1,0.5]];portConstraint=eastwest;rotatable=0;whiteSpace=wrap;html=1;" vertex="1" parent="xNgpLalz-9ATGTOnf1iT-7">
          <mxGeometry y="120" width="140" height="30" as="geometry" />
        </mxCell>
        <mxCell id="xNgpLalz-9ATGTOnf1iT-12" value="&lt;span style=&quot;text-align: center;&quot;&gt;Timer&lt;/span&gt;" style="text;strokeColor=none;fillColor=none;align=left;verticalAlign=middle;spacingLeft=4;spacingRight=4;overflow=hidden;points=[[0,0.5],[1,0.5]];portConstraint=eastwest;rotatable=0;whiteSpace=wrap;html=1;" vertex="1" parent="xNgpLalz-9ATGTOnf1iT-7">
          <mxGeometry y="150" width="140" height="30" as="geometry" />
        </mxCell>
        <mxCell id="_dAwVBlpdnPLTQGumjuK-1" value="Serving" style="swimlane;fontStyle=0;childLayout=stackLayout;horizontal=1;startSize=30;horizontalStack=0;resizeParent=1;resizeParentMax=0;resizeLast=0;collapsible=1;marginBottom=0;whiteSpace=wrap;html=1;" vertex="1" parent="Wtpfo83ekagGaFUSsDka-23">
          <mxGeometry x="1029.96" y="140" width="140" height="180" as="geometry" />
        </mxCell>
        <mxCell id="_dAwVBlpdnPLTQGumjuK-2" value="&lt;div style=&quot;text-align: center;&quot;&gt;&lt;span style=&quot;background-color: transparent;&quot;&gt;Open Microwave&lt;/span&gt;&lt;/div&gt;" style="text;strokeColor=none;fillColor=none;align=left;verticalAlign=middle;spacingLeft=4;spacingRight=4;overflow=hidden;points=[[0,0.5],[1,0.5]];portConstraint=eastwest;rotatable=0;whiteSpace=wrap;html=1;" vertex="1" parent="_dAwVBlpdnPLTQGumjuK-1">
          <mxGeometry y="30" width="140" height="30" as="geometry" />
        </mxCell>
        <mxCell id="_dAwVBlpdnPLTQGumjuK-3" value="&lt;div style=&quot;text-align: center;&quot;&gt;&lt;span style=&quot;background-color: transparent;&quot;&gt;Pick up food&lt;/span&gt;&lt;/div&gt;" style="text;strokeColor=none;fillColor=none;align=left;verticalAlign=middle;spacingLeft=4;spacingRight=4;overflow=hidden;points=[[0,0.5],[1,0.5]];portConstraint=eastwest;rotatable=0;whiteSpace=wrap;html=1;" vertex="1" parent="_dAwVBlpdnPLTQGumjuK-1">
          <mxGeometry y="60" width="140" height="30" as="geometry" />
        </mxCell>
        <mxCell id="_dAwVBlpdnPLTQGumjuK-4" value="&lt;div style=&quot;text-align: center;&quot;&gt;&lt;span style=&quot;background-color: transparent;&quot;&gt;Close Microwave&lt;/span&gt;&lt;/div&gt;" style="text;strokeColor=none;fillColor=none;align=left;verticalAlign=middle;spacingLeft=4;spacingRight=4;overflow=hidden;points=[[0,0.5],[1,0.5]];portConstraint=eastwest;rotatable=0;whiteSpace=wrap;html=1;" vertex="1" parent="_dAwVBlpdnPLTQGumjuK-1">
          <mxGeometry y="90" width="140" height="30" as="geometry" />
        </mxCell>
        <mxCell id="_dAwVBlpdnPLTQGumjuK-5" value="&lt;div style=&quot;text-align: center;&quot;&gt;&lt;span style=&quot;background-color: transparent;&quot;&gt;Pick up bowl&lt;/span&gt;&lt;/div&gt;" style="text;strokeColor=none;fillColor=none;align=left;verticalAlign=middle;spacingLeft=4;spacingRight=4;overflow=hidden;points=[[0,0.5],[1,0.5]];portConstraint=eastwest;rotatable=0;whiteSpace=wrap;html=1;" vertex="1" parent="_dAwVBlpdnPLTQGumjuK-1">
          <mxGeometry y="120" width="140" height="30" as="geometry" />
        </mxCell>
        <mxCell id="_dAwVBlpdnPLTQGumjuK-6" value="serve" style="text;strokeColor=none;fillColor=none;align=left;verticalAlign=middle;spacingLeft=4;spacingRight=4;overflow=hidden;points=[[0,0.5],[1,0.5]];portConstraint=eastwest;rotatable=0;whiteSpace=wrap;html=1;" vertex="1" parent="_dAwVBlpdnPLTQGumjuK-1">
          <mxGeometry y="150" width="140" height="30" as="geometry" />
        </mxCell>
        <mxCell id="Wtpfo83ekagGaFUSsDka-41" value="" style="endArrow=classic;html=1;rounded=0;fontSize=12;startSize=8;endSize=8;curved=1;exitX=0;exitY=0.75;exitDx=0;exitDy=0;entryX=1;entryY=0.75;entryDx=0;entryDy=0;" parent="1" source="Wtpfo83ekagGaFUSsDka-24" target="Wtpfo83ekagGaFUSsDka-13" edge="1">
          <mxGeometry relative="1" as="geometry">
            <mxPoint x="30" y="425" as="sourcePoint" />
            <mxPoint x="210" y="425" as="targetPoint" />
          </mxGeometry>
        </mxCell>
        <mxCell id="Wtpfo83ekagGaFUSsDka-42" value="Service Response&lt;div&gt;success&lt;/div&gt;" style="edgeLabel;resizable=0;html=1;;align=center;verticalAlign=middle;" parent="Wtpfo83ekagGaFUSsDka-41" connectable="0" vertex="1">
          <mxGeometry relative="1" as="geometry" />
        </mxCell>
      </root>
    </mxGraphModel>
  </diagram>
  <diagram id="wEhbU9MTCLbv2q5rEuXZ" name="system detail design low level">
    <mxGraphModel dx="2889" dy="450" grid="1" gridSize="10" guides="1" tooltips="1" connect="1" arrows="1" fold="1" page="0" pageScale="1" pageWidth="827" pageHeight="1169" math="0" shadow="0">
      <root>
        <mxCell id="0" />
        <mxCell id="1" parent="0" />
        <mxCell id="jKT9HDs5_-q7vNWwmF9f-1" value="kiosk" style="swimlane;whiteSpace=wrap;html=1;" parent="1" vertex="1">
          <mxGeometry x="-1610" y="560" width="1297" height="1209" as="geometry" />
        </mxCell>
        <mxCell id="jKT9HDs5_-q7vNWwmF9f-2" value="Order GUI" style="rounded=0;whiteSpace=wrap;html=1;" parent="jKT9HDs5_-q7vNWwmF9f-1" vertex="1">
          <mxGeometry x="286" y="168" width="120" height="60" as="geometry" />
        </mxCell>
        <mxCell id="jKT9HDs5_-q7vNWwmF9f-3" value="Check Stock" style="rounded=0;whiteSpace=wrap;html=1;" parent="jKT9HDs5_-q7vNWwmF9f-1" vertex="1">
          <mxGeometry x="286" y="318" width="120" height="60" as="geometry" />
        </mxCell>
        <mxCell id="jKT9HDs5_-q7vNWwmF9f-4" value="" style="endArrow=classic;html=1;rounded=0;fontSize=12;startSize=8;endSize=8;curved=1;exitX=0.75;exitY=1;exitDx=0;exitDy=0;entryX=0.75;entryY=0;entryDx=0;entryDy=0;" parent="jKT9HDs5_-q7vNWwmF9f-1" source="jKT9HDs5_-q7vNWwmF9f-2" target="jKT9HDs5_-q7vNWwmF9f-3" edge="1">
          <mxGeometry relative="1" as="geometry">
            <mxPoint x="416" y="378" as="sourcePoint" />
            <mxPoint x="516" y="378" as="targetPoint" />
          </mxGeometry>
        </mxCell>
        <mxCell id="jKT9HDs5_-q7vNWwmF9f-5" value="order list" style="edgeLabel;resizable=0;html=1;;align=center;verticalAlign=middle;" parent="jKT9HDs5_-q7vNWwmF9f-4" connectable="0" vertex="1">
          <mxGeometry relative="1" as="geometry" />
        </mxCell>
        <mxCell id="jKT9HDs5_-q7vNWwmF9f-6" value="" style="endArrow=classic;html=1;rounded=0;fontSize=12;startSize=8;endSize=8;curved=1;exitX=0.25;exitY=0;exitDx=0;exitDy=0;entryX=0.25;entryY=1;entryDx=0;entryDy=0;" parent="jKT9HDs5_-q7vNWwmF9f-1" source="jKT9HDs5_-q7vNWwmF9f-3" target="jKT9HDs5_-q7vNWwmF9f-2" edge="1">
          <mxGeometry relative="1" as="geometry">
            <mxPoint x="386" y="238" as="sourcePoint" />
            <mxPoint x="386" y="328" as="targetPoint" />
          </mxGeometry>
        </mxCell>
        <mxCell id="jKT9HDs5_-q7vNWwmF9f-7" value="stock list" style="edgeLabel;resizable=0;html=1;;align=center;verticalAlign=middle;" parent="jKT9HDs5_-q7vNWwmF9f-6" connectable="0" vertex="1">
          <mxGeometry relative="1" as="geometry" />
        </mxCell>
        <mxCell id="jKT9HDs5_-q7vNWwmF9f-82" value="List" style="swimlane;fontStyle=0;childLayout=stackLayout;horizontal=1;startSize=30;horizontalStack=0;resizeParent=1;resizeParentMax=0;resizeLast=0;collapsible=1;marginBottom=0;whiteSpace=wrap;html=1;" parent="jKT9HDs5_-q7vNWwmF9f-1" vertex="1">
          <mxGeometry x="606" y="438" width="140" height="120" as="geometry" />
        </mxCell>
        <mxCell id="jKT9HDs5_-q7vNWwmF9f-83" value="Item 1" style="text;strokeColor=none;fillColor=none;align=left;verticalAlign=middle;spacingLeft=4;spacingRight=4;overflow=hidden;points=[[0,0.5],[1,0.5]];portConstraint=eastwest;rotatable=0;whiteSpace=wrap;html=1;" parent="jKT9HDs5_-q7vNWwmF9f-82" vertex="1">
          <mxGeometry y="30" width="140" height="30" as="geometry" />
        </mxCell>
        <mxCell id="jKT9HDs5_-q7vNWwmF9f-84" value="Item 2" style="text;strokeColor=none;fillColor=none;align=left;verticalAlign=middle;spacingLeft=4;spacingRight=4;overflow=hidden;points=[[0,0.5],[1,0.5]];portConstraint=eastwest;rotatable=0;whiteSpace=wrap;html=1;" parent="jKT9HDs5_-q7vNWwmF9f-82" vertex="1">
          <mxGeometry y="60" width="140" height="30" as="geometry" />
        </mxCell>
        <mxCell id="jKT9HDs5_-q7vNWwmF9f-85" value="Item 3" style="text;strokeColor=none;fillColor=none;align=left;verticalAlign=middle;spacingLeft=4;spacingRight=4;overflow=hidden;points=[[0,0.5],[1,0.5]];portConstraint=eastwest;rotatable=0;whiteSpace=wrap;html=1;" parent="jKT9HDs5_-q7vNWwmF9f-82" vertex="1">
          <mxGeometry y="90" width="140" height="30" as="geometry" />
        </mxCell>
        <mxCell id="nXLhDD2pSeDjX-iHtZF4-2" value="&lt;span style=&quot;font-weight: 400;&quot;&gt;Order GUI&lt;/span&gt;" style="swimlane;whiteSpace=wrap;html=1;" parent="jKT9HDs5_-q7vNWwmF9f-1" vertex="1">
          <mxGeometry x="206" y="568" width="200" height="200" as="geometry" />
        </mxCell>
        <mxCell id="nXLhDD2pSeDjX-iHtZF4-3" value="&lt;span style=&quot;font-weight: 400;&quot;&gt;Check Stock&lt;/span&gt;" style="swimlane;whiteSpace=wrap;html=1;" parent="jKT9HDs5_-q7vNWwmF9f-1" vertex="1">
          <mxGeometry x="206" y="818" width="200" height="200" as="geometry" />
        </mxCell>
        <mxCell id="jKT9HDs5_-q7vNWwmF9f-8" value="Controller" style="swimlane;whiteSpace=wrap;html=1;" parent="1" vertex="1">
          <mxGeometry x="-1610" y="1800" width="2350" height="1870" as="geometry" />
        </mxCell>
        <mxCell id="jKT9HDs5_-q7vNWwmF9f-168" value="Use Microwave" style="swimlane;whiteSpace=wrap;html=1;fillColor=#dae8fc;strokeColor=#6c8ebf;" parent="1" vertex="1">
          <mxGeometry x="-1550" y="2146" width="1000" height="450" as="geometry" />
        </mxCell>
        <mxCell id="gZS3kMBaPDpUWOl2VcNi-2" value="Open Microwave" style="swimlane;startSize=0;labelBackgroundColor=default;" vertex="1" parent="jKT9HDs5_-q7vNWwmF9f-168">
          <mxGeometry x="820.5" y="40" width="160" height="270" as="geometry" />
        </mxCell>
        <mxCell id="gZS3kMBaPDpUWOl2VcNi-17" style="edgeStyle=none;curved=1;rounded=0;orthogonalLoop=1;jettySize=auto;html=1;exitX=0.5;exitY=1;exitDx=0;exitDy=0;entryX=0.5;entryY=0;entryDx=0;entryDy=0;fontSize=12;startSize=8;endSize=8;" edge="1" parent="gZS3kMBaPDpUWOl2VcNi-2" source="gZS3kMBaPDpUWOl2VcNi-3" target="gZS3kMBaPDpUWOl2VcNi-6">
          <mxGeometry relative="1" as="geometry" />
        </mxCell>
        <mxCell id="gZS3kMBaPDpUWOl2VcNi-3" value="move JX" style="rounded=0;whiteSpace=wrap;html=1;" vertex="1" parent="gZS3kMBaPDpUWOl2VcNi-2">
          <mxGeometry x="20" y="20" width="120" height="30" as="geometry" />
        </mxCell>
        <mxCell id="gZS3kMBaPDpUWOl2VcNi-18" style="edgeStyle=none;curved=1;rounded=0;orthogonalLoop=1;jettySize=auto;html=1;exitX=0.5;exitY=1;exitDx=0;exitDy=0;entryX=0.5;entryY=0;entryDx=0;entryDy=0;fontSize=12;startSize=8;endSize=8;" edge="1" parent="gZS3kMBaPDpUWOl2VcNi-2" source="gZS3kMBaPDpUWOl2VcNi-6" target="gZS3kMBaPDpUWOl2VcNi-7">
          <mxGeometry relative="1" as="geometry" />
        </mxCell>
        <mxCell id="gZS3kMBaPDpUWOl2VcNi-6" value="move L" style="rounded=0;whiteSpace=wrap;html=1;" vertex="1" parent="gZS3kMBaPDpUWOl2VcNi-2">
          <mxGeometry x="20" y="60" width="120" height="30" as="geometry" />
        </mxCell>
        <mxCell id="gZS3kMBaPDpUWOl2VcNi-19" style="edgeStyle=none;curved=1;rounded=0;orthogonalLoop=1;jettySize=auto;html=1;exitX=0.5;exitY=1;exitDx=0;exitDy=0;entryX=0.5;entryY=0;entryDx=0;entryDy=0;fontSize=12;startSize=8;endSize=8;" edge="1" parent="gZS3kMBaPDpUWOl2VcNi-2" source="gZS3kMBaPDpUWOl2VcNi-7" target="gZS3kMBaPDpUWOl2VcNi-8">
          <mxGeometry relative="1" as="geometry" />
        </mxCell>
        <mxCell id="gZS3kMBaPDpUWOl2VcNi-7" value="grip" style="rounded=0;whiteSpace=wrap;html=1;" vertex="1" parent="gZS3kMBaPDpUWOl2VcNi-2">
          <mxGeometry x="20" y="100" width="120" height="30" as="geometry" />
        </mxCell>
        <mxCell id="gZS3kMBaPDpUWOl2VcNi-20" style="edgeStyle=none;curved=1;rounded=0;orthogonalLoop=1;jettySize=auto;html=1;exitX=0.5;exitY=1;exitDx=0;exitDy=0;entryX=0.5;entryY=0;entryDx=0;entryDy=0;fontSize=12;startSize=8;endSize=8;" edge="1" parent="gZS3kMBaPDpUWOl2VcNi-2" source="gZS3kMBaPDpUWOl2VcNi-8" target="gZS3kMBaPDpUWOl2VcNi-9">
          <mxGeometry relative="1" as="geometry" />
        </mxCell>
        <mxCell id="gZS3kMBaPDpUWOl2VcNi-8" value="move C" style="rounded=0;whiteSpace=wrap;html=1;" vertex="1" parent="gZS3kMBaPDpUWOl2VcNi-2">
          <mxGeometry x="20" y="140" width="120" height="30" as="geometry" />
        </mxCell>
        <mxCell id="gZS3kMBaPDpUWOl2VcNi-21" style="edgeStyle=none;curved=1;rounded=0;orthogonalLoop=1;jettySize=auto;html=1;exitX=0.5;exitY=1;exitDx=0;exitDy=0;entryX=0.5;entryY=0;entryDx=0;entryDy=0;fontSize=12;startSize=8;endSize=8;" edge="1" parent="gZS3kMBaPDpUWOl2VcNi-2" source="gZS3kMBaPDpUWOl2VcNi-9" target="gZS3kMBaPDpUWOl2VcNi-16">
          <mxGeometry relative="1" as="geometry" />
        </mxCell>
        <mxCell id="gZS3kMBaPDpUWOl2VcNi-9" value="release" style="rounded=0;whiteSpace=wrap;html=1;" vertex="1" parent="gZS3kMBaPDpUWOl2VcNi-2">
          <mxGeometry x="20" y="180" width="120" height="30" as="geometry" />
        </mxCell>
        <mxCell id="gZS3kMBaPDpUWOl2VcNi-16" value="move L" style="rounded=0;whiteSpace=wrap;html=1;" vertex="1" parent="gZS3kMBaPDpUWOl2VcNi-2">
          <mxGeometry x="20" y="220" width="120" height="30" as="geometry" />
        </mxCell>
        <mxCell id="NsHs3fZqD4ryJuYt5eu4-1" value="Pick up food" style="swimlane;startSize=0;labelBackgroundColor=default;" vertex="1" parent="jKT9HDs5_-q7vNWwmF9f-168">
          <mxGeometry x="620" y="40" width="160" height="390" as="geometry" />
        </mxCell>
        <mxCell id="NsHs3fZqD4ryJuYt5eu4-2" style="edgeStyle=none;curved=1;rounded=0;orthogonalLoop=1;jettySize=auto;html=1;exitX=0.5;exitY=1;exitDx=0;exitDy=0;entryX=0.5;entryY=0;entryDx=0;entryDy=0;fontSize=12;startSize=8;endSize=8;" edge="1" parent="NsHs3fZqD4ryJuYt5eu4-1" source="NsHs3fZqD4ryJuYt5eu4-3" target="NsHs3fZqD4ryJuYt5eu4-5">
          <mxGeometry relative="1" as="geometry" />
        </mxCell>
        <mxCell id="NsHs3fZqD4ryJuYt5eu4-3" value="move SX" style="rounded=0;whiteSpace=wrap;html=1;" vertex="1" parent="NsHs3fZqD4ryJuYt5eu4-1">
          <mxGeometry x="20" y="20" width="120" height="30" as="geometry" />
        </mxCell>
        <mxCell id="NsHs3fZqD4ryJuYt5eu4-4" style="edgeStyle=none;curved=1;rounded=0;orthogonalLoop=1;jettySize=auto;html=1;exitX=0.5;exitY=1;exitDx=0;exitDy=0;entryX=0.5;entryY=0;entryDx=0;entryDy=0;fontSize=12;startSize=8;endSize=8;" edge="1" parent="NsHs3fZqD4ryJuYt5eu4-1" source="NsHs3fZqD4ryJuYt5eu4-5" target="NsHs3fZqD4ryJuYt5eu4-7">
          <mxGeometry relative="1" as="geometry" />
        </mxCell>
        <mxCell id="NsHs3fZqD4ryJuYt5eu4-5" value="move JX" style="rounded=0;whiteSpace=wrap;html=1;" vertex="1" parent="NsHs3fZqD4ryJuYt5eu4-1">
          <mxGeometry x="20" y="60" width="120" height="30" as="geometry" />
        </mxCell>
        <mxCell id="NsHs3fZqD4ryJuYt5eu4-6" style="edgeStyle=none;curved=1;rounded=0;orthogonalLoop=1;jettySize=auto;html=1;exitX=0.5;exitY=1;exitDx=0;exitDy=0;entryX=0.5;entryY=0;entryDx=0;entryDy=0;fontSize=12;startSize=8;endSize=8;" edge="1" parent="NsHs3fZqD4ryJuYt5eu4-1" source="NsHs3fZqD4ryJuYt5eu4-7" target="NsHs3fZqD4ryJuYt5eu4-9">
          <mxGeometry relative="1" as="geometry" />
        </mxCell>
        <mxCell id="NsHs3fZqD4ryJuYt5eu4-7" value="move L" style="rounded=0;whiteSpace=wrap;html=1;" vertex="1" parent="NsHs3fZqD4ryJuYt5eu4-1">
          <mxGeometry x="20" y="100" width="120" height="30" as="geometry" />
        </mxCell>
        <mxCell id="NsHs3fZqD4ryJuYt5eu4-8" style="edgeStyle=none;curved=1;rounded=0;orthogonalLoop=1;jettySize=auto;html=1;exitX=0.5;exitY=1;exitDx=0;exitDy=0;entryX=0.5;entryY=0;entryDx=0;entryDy=0;fontSize=12;startSize=8;endSize=8;" edge="1" parent="NsHs3fZqD4ryJuYt5eu4-1" source="NsHs3fZqD4ryJuYt5eu4-9" target="NsHs3fZqD4ryJuYt5eu4-11">
          <mxGeometry relative="1" as="geometry" />
        </mxCell>
        <mxCell id="NsHs3fZqD4ryJuYt5eu4-9" value="compliance" style="rounded=0;whiteSpace=wrap;html=1;" vertex="1" parent="NsHs3fZqD4ryJuYt5eu4-1">
          <mxGeometry x="20" y="140" width="120" height="30" as="geometry" />
        </mxCell>
        <mxCell id="NsHs3fZqD4ryJuYt5eu4-10" style="edgeStyle=none;curved=1;rounded=0;orthogonalLoop=1;jettySize=auto;html=1;exitX=0.5;exitY=1;exitDx=0;exitDy=0;entryX=0.5;entryY=0;entryDx=0;entryDy=0;fontSize=12;startSize=8;endSize=8;" edge="1" parent="NsHs3fZqD4ryJuYt5eu4-1" source="NsHs3fZqD4ryJuYt5eu4-11" target="NsHs3fZqD4ryJuYt5eu4-12">
          <mxGeometry relative="1" as="geometry" />
        </mxCell>
        <mxCell id="NsHs3fZqD4ryJuYt5eu4-11" value="force" style="rounded=0;whiteSpace=wrap;html=1;" vertex="1" parent="NsHs3fZqD4ryJuYt5eu4-1">
          <mxGeometry x="20" y="180" width="120" height="30" as="geometry" />
        </mxCell>
        <mxCell id="NsHs3fZqD4ryJuYt5eu4-16" style="edgeStyle=none;curved=1;rounded=0;orthogonalLoop=1;jettySize=auto;html=1;exitX=0.5;exitY=1;exitDx=0;exitDy=0;entryX=0.5;entryY=0;entryDx=0;entryDy=0;fontSize=12;startSize=8;endSize=8;" edge="1" parent="NsHs3fZqD4ryJuYt5eu4-1" source="NsHs3fZqD4ryJuYt5eu4-12" target="NsHs3fZqD4ryJuYt5eu4-13">
          <mxGeometry relative="1" as="geometry" />
        </mxCell>
        <mxCell id="NsHs3fZqD4ryJuYt5eu4-12" value="&lt;span style=&quot;text-align: left;&quot;&gt;move periodic&lt;/span&gt;" style="rounded=0;whiteSpace=wrap;html=1;" vertex="1" parent="NsHs3fZqD4ryJuYt5eu4-1">
          <mxGeometry x="20" y="220" width="120" height="30" as="geometry" />
        </mxCell>
        <mxCell id="NsHs3fZqD4ryJuYt5eu4-17" style="edgeStyle=none;curved=1;rounded=0;orthogonalLoop=1;jettySize=auto;html=1;exitX=0.5;exitY=1;exitDx=0;exitDy=0;entryX=0.5;entryY=0;entryDx=0;entryDy=0;fontSize=12;startSize=8;endSize=8;" edge="1" parent="NsHs3fZqD4ryJuYt5eu4-1" source="NsHs3fZqD4ryJuYt5eu4-13" target="NsHs3fZqD4ryJuYt5eu4-14">
          <mxGeometry relative="1" as="geometry" />
        </mxCell>
        <mxCell id="NsHs3fZqD4ryJuYt5eu4-13" value="&lt;span style=&quot;text-align: left;&quot;&gt;grip&lt;/span&gt;" style="rounded=0;whiteSpace=wrap;html=1;" vertex="1" parent="NsHs3fZqD4ryJuYt5eu4-1">
          <mxGeometry x="20" y="260" width="120" height="30" as="geometry" />
        </mxCell>
        <mxCell id="NsHs3fZqD4ryJuYt5eu4-18" style="edgeStyle=none;curved=1;rounded=0;orthogonalLoop=1;jettySize=auto;html=1;exitX=0.5;exitY=1;exitDx=0;exitDy=0;entryX=0.5;entryY=0;entryDx=0;entryDy=0;fontSize=12;startSize=8;endSize=8;" edge="1" parent="NsHs3fZqD4ryJuYt5eu4-1" source="NsHs3fZqD4ryJuYt5eu4-14" target="NsHs3fZqD4ryJuYt5eu4-15">
          <mxGeometry relative="1" as="geometry" />
        </mxCell>
        <mxCell id="NsHs3fZqD4ryJuYt5eu4-14" value="&lt;span style=&quot;text-align: left;&quot;&gt;force release&lt;/span&gt;" style="rounded=0;whiteSpace=wrap;html=1;" vertex="1" parent="NsHs3fZqD4ryJuYt5eu4-1">
          <mxGeometry x="20" y="300" width="120" height="30" as="geometry" />
        </mxCell>
        <mxCell id="NsHs3fZqD4ryJuYt5eu4-15" value="&lt;span style=&quot;text-align: left;&quot;&gt;compliance release&lt;/span&gt;" style="rounded=0;whiteSpace=wrap;html=1;" vertex="1" parent="NsHs3fZqD4ryJuYt5eu4-1">
          <mxGeometry x="20" y="340" width="120" height="30" as="geometry" />
        </mxCell>
        <mxCell id="N-wSd2MaCEcpi2Gt7l_r-1" value="Put food" style="swimlane;startSize=0;labelBackgroundColor=default;" vertex="1" parent="jKT9HDs5_-q7vNWwmF9f-168">
          <mxGeometry x="420" y="40" width="160" height="230" as="geometry" />
        </mxCell>
        <mxCell id="N-wSd2MaCEcpi2Gt7l_r-2" style="edgeStyle=none;curved=1;rounded=0;orthogonalLoop=1;jettySize=auto;html=1;exitX=0.5;exitY=1;exitDx=0;exitDy=0;entryX=0.5;entryY=0;entryDx=0;entryDy=0;fontSize=12;startSize=8;endSize=8;" edge="1" parent="N-wSd2MaCEcpi2Gt7l_r-1" source="N-wSd2MaCEcpi2Gt7l_r-3" target="N-wSd2MaCEcpi2Gt7l_r-5">
          <mxGeometry relative="1" as="geometry" />
        </mxCell>
        <mxCell id="N-wSd2MaCEcpi2Gt7l_r-3" value="move L" style="rounded=0;whiteSpace=wrap;html=1;" vertex="1" parent="N-wSd2MaCEcpi2Gt7l_r-1">
          <mxGeometry x="20" y="20" width="120" height="30" as="geometry" />
        </mxCell>
        <mxCell id="N-wSd2MaCEcpi2Gt7l_r-4" style="edgeStyle=none;curved=1;rounded=0;orthogonalLoop=1;jettySize=auto;html=1;exitX=0.5;exitY=1;exitDx=0;exitDy=0;entryX=0.5;entryY=0;entryDx=0;entryDy=0;fontSize=12;startSize=8;endSize=8;" edge="1" parent="N-wSd2MaCEcpi2Gt7l_r-1" source="N-wSd2MaCEcpi2Gt7l_r-5" target="N-wSd2MaCEcpi2Gt7l_r-7">
          <mxGeometry relative="1" as="geometry" />
        </mxCell>
        <mxCell id="N-wSd2MaCEcpi2Gt7l_r-5" value="move SX" style="rounded=0;whiteSpace=wrap;html=1;" vertex="1" parent="N-wSd2MaCEcpi2Gt7l_r-1">
          <mxGeometry x="20" y="60" width="120" height="30" as="geometry" />
        </mxCell>
        <mxCell id="N-wSd2MaCEcpi2Gt7l_r-6" style="edgeStyle=none;curved=1;rounded=0;orthogonalLoop=1;jettySize=auto;html=1;exitX=0.5;exitY=1;exitDx=0;exitDy=0;entryX=0.5;entryY=0;entryDx=0;entryDy=0;fontSize=12;startSize=8;endSize=8;" edge="1" parent="N-wSd2MaCEcpi2Gt7l_r-1" source="N-wSd2MaCEcpi2Gt7l_r-7" target="N-wSd2MaCEcpi2Gt7l_r-9">
          <mxGeometry relative="1" as="geometry" />
        </mxCell>
        <mxCell id="N-wSd2MaCEcpi2Gt7l_r-7" value="move JX" style="rounded=0;whiteSpace=wrap;html=1;" vertex="1" parent="N-wSd2MaCEcpi2Gt7l_r-1">
          <mxGeometry x="20" y="100" width="120" height="30" as="geometry" />
        </mxCell>
        <mxCell id="N-wSd2MaCEcpi2Gt7l_r-8" style="edgeStyle=none;curved=1;rounded=0;orthogonalLoop=1;jettySize=auto;html=1;exitX=0.5;exitY=1;exitDx=0;exitDy=0;entryX=0.5;entryY=0;entryDx=0;entryDy=0;fontSize=12;startSize=8;endSize=8;" edge="1" parent="N-wSd2MaCEcpi2Gt7l_r-1" source="N-wSd2MaCEcpi2Gt7l_r-9" target="N-wSd2MaCEcpi2Gt7l_r-11">
          <mxGeometry relative="1" as="geometry" />
        </mxCell>
        <mxCell id="N-wSd2MaCEcpi2Gt7l_r-9" value="move L" style="rounded=0;whiteSpace=wrap;html=1;" vertex="1" parent="N-wSd2MaCEcpi2Gt7l_r-1">
          <mxGeometry x="20" y="140" width="120" height="30" as="geometry" />
        </mxCell>
        <mxCell id="N-wSd2MaCEcpi2Gt7l_r-11" value="release" style="rounded=0;whiteSpace=wrap;html=1;" vertex="1" parent="N-wSd2MaCEcpi2Gt7l_r-1">
          <mxGeometry x="20" y="180" width="120" height="30" as="geometry" />
        </mxCell>
        <mxCell id="aRxymyOW9koqq4f9hk7o-1" value="Close Microwave" style="swimlane;startSize=0;labelBackgroundColor=default;" vertex="1" parent="jKT9HDs5_-q7vNWwmF9f-168">
          <mxGeometry x="220" y="40" width="160" height="110" as="geometry" />
        </mxCell>
        <mxCell id="aRxymyOW9koqq4f9hk7o-2" style="edgeStyle=none;curved=1;rounded=0;orthogonalLoop=1;jettySize=auto;html=1;exitX=0.5;exitY=1;exitDx=0;exitDy=0;entryX=0.5;entryY=0;entryDx=0;entryDy=0;fontSize=12;startSize=8;endSize=8;" edge="1" parent="aRxymyOW9koqq4f9hk7o-1" source="aRxymyOW9koqq4f9hk7o-3" target="aRxymyOW9koqq4f9hk7o-5">
          <mxGeometry relative="1" as="geometry" />
        </mxCell>
        <mxCell id="aRxymyOW9koqq4f9hk7o-3" value="move L" style="rounded=0;whiteSpace=wrap;html=1;" vertex="1" parent="aRxymyOW9koqq4f9hk7o-1">
          <mxGeometry x="20" y="20" width="120" height="30" as="geometry" />
        </mxCell>
        <mxCell id="aRxymyOW9koqq4f9hk7o-5" value="move C" style="rounded=0;whiteSpace=wrap;html=1;" vertex="1" parent="aRxymyOW9koqq4f9hk7o-1">
          <mxGeometry x="20" y="60" width="120" height="30" as="geometry" />
        </mxCell>
        <mxCell id="gmFD7ORfAh10OK_hTZlQ-1" value="Timer" style="swimlane;startSize=0;labelBackgroundColor=default;" vertex="1" parent="jKT9HDs5_-q7vNWwmF9f-168">
          <mxGeometry x="20" y="40" width="160" height="190" as="geometry" />
        </mxCell>
        <mxCell id="gmFD7ORfAh10OK_hTZlQ-2" style="edgeStyle=none;curved=1;rounded=0;orthogonalLoop=1;jettySize=auto;html=1;exitX=0.5;exitY=1;exitDx=0;exitDy=0;entryX=0.5;entryY=0;entryDx=0;entryDy=0;fontSize=12;startSize=8;endSize=8;" edge="1" parent="gmFD7ORfAh10OK_hTZlQ-1" source="gmFD7ORfAh10OK_hTZlQ-3" target="gmFD7ORfAh10OK_hTZlQ-5">
          <mxGeometry relative="1" as="geometry" />
        </mxCell>
        <mxCell id="gmFD7ORfAh10OK_hTZlQ-3" value="move SX" style="rounded=0;whiteSpace=wrap;html=1;" vertex="1" parent="gmFD7ORfAh10OK_hTZlQ-1">
          <mxGeometry x="20" y="20" width="120" height="30" as="geometry" />
        </mxCell>
        <mxCell id="rMOnCRuuQ8FxxcGHwxTp-15" style="edgeStyle=none;curved=1;rounded=0;orthogonalLoop=1;jettySize=auto;html=1;exitX=0.5;exitY=1;exitDx=0;exitDy=0;entryX=0.5;entryY=0;entryDx=0;entryDy=0;fontSize=12;startSize=8;endSize=8;" edge="1" parent="gmFD7ORfAh10OK_hTZlQ-1" source="gmFD7ORfAh10OK_hTZlQ-5" target="rMOnCRuuQ8FxxcGHwxTp-14">
          <mxGeometry relative="1" as="geometry" />
        </mxCell>
        <mxCell id="gmFD7ORfAh10OK_hTZlQ-5" value="move J" style="rounded=0;whiteSpace=wrap;html=1;" vertex="1" parent="gmFD7ORfAh10OK_hTZlQ-1">
          <mxGeometry x="20" y="60" width="120" height="30" as="geometry" />
        </mxCell>
        <mxCell id="rMOnCRuuQ8FxxcGHwxTp-19" style="edgeStyle=none;curved=1;rounded=0;orthogonalLoop=1;jettySize=auto;html=1;exitX=0.5;exitY=1;exitDx=0;exitDy=0;entryX=0.5;entryY=0;entryDx=0;entryDy=0;fontSize=12;startSize=8;endSize=8;" edge="1" parent="gmFD7ORfAh10OK_hTZlQ-1" source="rMOnCRuuQ8FxxcGHwxTp-14" target="rMOnCRuuQ8FxxcGHwxTp-18">
          <mxGeometry relative="1" as="geometry" />
        </mxCell>
        <mxCell id="rMOnCRuuQ8FxxcGHwxTp-14" value="Task state = cook" style="rounded=0;whiteSpace=wrap;html=1;" vertex="1" parent="gmFD7ORfAh10OK_hTZlQ-1">
          <mxGeometry x="20" y="100" width="120" height="30" as="geometry" />
        </mxCell>
        <mxCell id="rMOnCRuuQ8FxxcGHwxTp-18" value="start time" style="rounded=0;whiteSpace=wrap;html=1;" vertex="1" parent="gmFD7ORfAh10OK_hTZlQ-1">
          <mxGeometry x="20" y="140" width="120" height="30" as="geometry" />
        </mxCell>
        <mxCell id="ORg8xzLfkLX12-m4msR1-5" style="edgeStyle=orthogonalEdgeStyle;rounded=0;orthogonalLoop=1;jettySize=auto;html=1;exitX=0;exitY=0.5;exitDx=0;exitDy=0;entryX=1;entryY=0.5;entryDx=0;entryDy=0;fontSize=12;startSize=8;endSize=8;" edge="1" parent="jKT9HDs5_-q7vNWwmF9f-168" source="gZS3kMBaPDpUWOl2VcNi-16" target="NsHs3fZqD4ryJuYt5eu4-3">
          <mxGeometry relative="1" as="geometry" />
        </mxCell>
        <mxCell id="ORg8xzLfkLX12-m4msR1-6" style="edgeStyle=orthogonalEdgeStyle;rounded=0;orthogonalLoop=1;jettySize=auto;html=1;exitX=0;exitY=0.5;exitDx=0;exitDy=0;entryX=1;entryY=0.5;entryDx=0;entryDy=0;fontSize=12;startSize=8;endSize=8;" edge="1" parent="jKT9HDs5_-q7vNWwmF9f-168" source="NsHs3fZqD4ryJuYt5eu4-15" target="N-wSd2MaCEcpi2Gt7l_r-3">
          <mxGeometry relative="1" as="geometry" />
        </mxCell>
        <mxCell id="ORg8xzLfkLX12-m4msR1-7" style="edgeStyle=orthogonalEdgeStyle;rounded=0;orthogonalLoop=1;jettySize=auto;html=1;exitX=0;exitY=0.5;exitDx=0;exitDy=0;entryX=1;entryY=0.5;entryDx=0;entryDy=0;fontSize=12;startSize=8;endSize=8;" edge="1" parent="jKT9HDs5_-q7vNWwmF9f-168" source="N-wSd2MaCEcpi2Gt7l_r-11" target="aRxymyOW9koqq4f9hk7o-3">
          <mxGeometry relative="1" as="geometry" />
        </mxCell>
        <mxCell id="ORg8xzLfkLX12-m4msR1-8" style="edgeStyle=orthogonalEdgeStyle;rounded=0;orthogonalLoop=1;jettySize=auto;html=1;exitX=0;exitY=0.5;exitDx=0;exitDy=0;entryX=1;entryY=0.5;entryDx=0;entryDy=0;fontSize=12;startSize=8;endSize=8;" edge="1" parent="jKT9HDs5_-q7vNWwmF9f-168" source="aRxymyOW9koqq4f9hk7o-5" target="gmFD7ORfAh10OK_hTZlQ-3">
          <mxGeometry relative="1" as="geometry" />
        </mxCell>
        <mxCell id="jKT9HDs5_-q7vNWwmF9f-169" value="&lt;span style=&quot;text-align: left;&quot;&gt;Use Ramen Cooker&lt;/span&gt;" style="swimlane;whiteSpace=wrap;html=1;fillColor=#ffe6cc;strokeColor=#d79b00;" parent="1" vertex="1">
          <mxGeometry x="-1550" y="2620" width="1000" height="570" as="geometry" />
        </mxCell>
        <mxCell id="_x9Xr2JgzCZ2sf4zK7X6-13" value="Pick up Ramen" style="swimlane;startSize=0;labelBackgroundColor=default;" vertex="1" parent="jKT9HDs5_-q7vNWwmF9f-169">
          <mxGeometry x="820" y="40" width="160" height="390" as="geometry" />
        </mxCell>
        <mxCell id="_x9Xr2JgzCZ2sf4zK7X6-14" style="edgeStyle=none;curved=1;rounded=0;orthogonalLoop=1;jettySize=auto;html=1;exitX=0.5;exitY=1;exitDx=0;exitDy=0;entryX=0.5;entryY=0;entryDx=0;entryDy=0;fontSize=12;startSize=8;endSize=8;" edge="1" parent="_x9Xr2JgzCZ2sf4zK7X6-13" source="_x9Xr2JgzCZ2sf4zK7X6-15" target="_x9Xr2JgzCZ2sf4zK7X6-17">
          <mxGeometry relative="1" as="geometry" />
        </mxCell>
        <mxCell id="_x9Xr2JgzCZ2sf4zK7X6-15" value="move SX" style="rounded=0;whiteSpace=wrap;html=1;" vertex="1" parent="_x9Xr2JgzCZ2sf4zK7X6-13">
          <mxGeometry x="20" y="20" width="120" height="30" as="geometry" />
        </mxCell>
        <mxCell id="_x9Xr2JgzCZ2sf4zK7X6-16" style="edgeStyle=none;curved=1;rounded=0;orthogonalLoop=1;jettySize=auto;html=1;exitX=0.5;exitY=1;exitDx=0;exitDy=0;entryX=0.5;entryY=0;entryDx=0;entryDy=0;fontSize=12;startSize=8;endSize=8;" edge="1" parent="_x9Xr2JgzCZ2sf4zK7X6-13" source="_x9Xr2JgzCZ2sf4zK7X6-17" target="_x9Xr2JgzCZ2sf4zK7X6-19">
          <mxGeometry relative="1" as="geometry" />
        </mxCell>
        <mxCell id="_x9Xr2JgzCZ2sf4zK7X6-17" value="move JX" style="rounded=0;whiteSpace=wrap;html=1;" vertex="1" parent="_x9Xr2JgzCZ2sf4zK7X6-13">
          <mxGeometry x="20" y="60" width="120" height="30" as="geometry" />
        </mxCell>
        <mxCell id="_x9Xr2JgzCZ2sf4zK7X6-18" style="edgeStyle=none;curved=1;rounded=0;orthogonalLoop=1;jettySize=auto;html=1;exitX=0.5;exitY=1;exitDx=0;exitDy=0;entryX=0.5;entryY=0;entryDx=0;entryDy=0;fontSize=12;startSize=8;endSize=8;" edge="1" parent="_x9Xr2JgzCZ2sf4zK7X6-13" source="_x9Xr2JgzCZ2sf4zK7X6-19" target="_x9Xr2JgzCZ2sf4zK7X6-21">
          <mxGeometry relative="1" as="geometry" />
        </mxCell>
        <mxCell id="_x9Xr2JgzCZ2sf4zK7X6-19" value="move L" style="rounded=0;whiteSpace=wrap;html=1;" vertex="1" parent="_x9Xr2JgzCZ2sf4zK7X6-13">
          <mxGeometry x="20" y="100" width="120" height="30" as="geometry" />
        </mxCell>
        <mxCell id="_x9Xr2JgzCZ2sf4zK7X6-20" style="edgeStyle=none;curved=1;rounded=0;orthogonalLoop=1;jettySize=auto;html=1;exitX=0.5;exitY=1;exitDx=0;exitDy=0;entryX=0.5;entryY=0;entryDx=0;entryDy=0;fontSize=12;startSize=8;endSize=8;" edge="1" parent="_x9Xr2JgzCZ2sf4zK7X6-13" source="_x9Xr2JgzCZ2sf4zK7X6-21" target="_x9Xr2JgzCZ2sf4zK7X6-23">
          <mxGeometry relative="1" as="geometry" />
        </mxCell>
        <mxCell id="_x9Xr2JgzCZ2sf4zK7X6-21" value="compliance" style="rounded=0;whiteSpace=wrap;html=1;" vertex="1" parent="_x9Xr2JgzCZ2sf4zK7X6-13">
          <mxGeometry x="20" y="140" width="120" height="30" as="geometry" />
        </mxCell>
        <mxCell id="_x9Xr2JgzCZ2sf4zK7X6-22" style="edgeStyle=none;curved=1;rounded=0;orthogonalLoop=1;jettySize=auto;html=1;exitX=0.5;exitY=1;exitDx=0;exitDy=0;entryX=0.5;entryY=0;entryDx=0;entryDy=0;fontSize=12;startSize=8;endSize=8;" edge="1" parent="_x9Xr2JgzCZ2sf4zK7X6-13" source="_x9Xr2JgzCZ2sf4zK7X6-23" target="_x9Xr2JgzCZ2sf4zK7X6-25">
          <mxGeometry relative="1" as="geometry" />
        </mxCell>
        <mxCell id="_x9Xr2JgzCZ2sf4zK7X6-23" value="force" style="rounded=0;whiteSpace=wrap;html=1;" vertex="1" parent="_x9Xr2JgzCZ2sf4zK7X6-13">
          <mxGeometry x="20" y="180" width="120" height="30" as="geometry" />
        </mxCell>
        <mxCell id="_x9Xr2JgzCZ2sf4zK7X6-24" style="edgeStyle=none;curved=1;rounded=0;orthogonalLoop=1;jettySize=auto;html=1;exitX=0.5;exitY=1;exitDx=0;exitDy=0;entryX=0.5;entryY=0;entryDx=0;entryDy=0;fontSize=12;startSize=8;endSize=8;" edge="1" parent="_x9Xr2JgzCZ2sf4zK7X6-13" source="_x9Xr2JgzCZ2sf4zK7X6-25" target="_x9Xr2JgzCZ2sf4zK7X6-27">
          <mxGeometry relative="1" as="geometry" />
        </mxCell>
        <mxCell id="_x9Xr2JgzCZ2sf4zK7X6-25" value="&lt;span style=&quot;text-align: left;&quot;&gt;move periodic&lt;/span&gt;" style="rounded=0;whiteSpace=wrap;html=1;" vertex="1" parent="_x9Xr2JgzCZ2sf4zK7X6-13">
          <mxGeometry x="20" y="220" width="120" height="30" as="geometry" />
        </mxCell>
        <mxCell id="_x9Xr2JgzCZ2sf4zK7X6-26" style="edgeStyle=none;curved=1;rounded=0;orthogonalLoop=1;jettySize=auto;html=1;exitX=0.5;exitY=1;exitDx=0;exitDy=0;entryX=0.5;entryY=0;entryDx=0;entryDy=0;fontSize=12;startSize=8;endSize=8;" edge="1" parent="_x9Xr2JgzCZ2sf4zK7X6-13" source="_x9Xr2JgzCZ2sf4zK7X6-27" target="_x9Xr2JgzCZ2sf4zK7X6-29">
          <mxGeometry relative="1" as="geometry" />
        </mxCell>
        <mxCell id="_x9Xr2JgzCZ2sf4zK7X6-27" value="&lt;span style=&quot;text-align: left;&quot;&gt;grip&lt;/span&gt;" style="rounded=0;whiteSpace=wrap;html=1;" vertex="1" parent="_x9Xr2JgzCZ2sf4zK7X6-13">
          <mxGeometry x="20" y="260" width="120" height="30" as="geometry" />
        </mxCell>
        <mxCell id="_x9Xr2JgzCZ2sf4zK7X6-28" style="edgeStyle=none;curved=1;rounded=0;orthogonalLoop=1;jettySize=auto;html=1;exitX=0.5;exitY=1;exitDx=0;exitDy=0;entryX=0.5;entryY=0;entryDx=0;entryDy=0;fontSize=12;startSize=8;endSize=8;" edge="1" parent="_x9Xr2JgzCZ2sf4zK7X6-13" source="_x9Xr2JgzCZ2sf4zK7X6-29" target="_x9Xr2JgzCZ2sf4zK7X6-30">
          <mxGeometry relative="1" as="geometry" />
        </mxCell>
        <mxCell id="_x9Xr2JgzCZ2sf4zK7X6-29" value="&lt;span style=&quot;text-align: left;&quot;&gt;force release&lt;/span&gt;" style="rounded=0;whiteSpace=wrap;html=1;" vertex="1" parent="_x9Xr2JgzCZ2sf4zK7X6-13">
          <mxGeometry x="20" y="300" width="120" height="30" as="geometry" />
        </mxCell>
        <mxCell id="_x9Xr2JgzCZ2sf4zK7X6-30" value="&lt;span style=&quot;text-align: left;&quot;&gt;compliance release&lt;/span&gt;" style="rounded=0;whiteSpace=wrap;html=1;" vertex="1" parent="_x9Xr2JgzCZ2sf4zK7X6-13">
          <mxGeometry x="20" y="340" width="120" height="30" as="geometry" />
        </mxCell>
        <mxCell id="_x9Xr2JgzCZ2sf4zK7X6-31" value="Put Ramen" style="swimlane;startSize=0;labelBackgroundColor=default;" vertex="1" parent="jKT9HDs5_-q7vNWwmF9f-169">
          <mxGeometry x="620" y="40" width="160" height="230" as="geometry" />
        </mxCell>
        <mxCell id="_x9Xr2JgzCZ2sf4zK7X6-32" style="edgeStyle=none;curved=1;rounded=0;orthogonalLoop=1;jettySize=auto;html=1;exitX=0.5;exitY=1;exitDx=0;exitDy=0;entryX=0.5;entryY=0;entryDx=0;entryDy=0;fontSize=12;startSize=8;endSize=8;" edge="1" parent="_x9Xr2JgzCZ2sf4zK7X6-31" source="_x9Xr2JgzCZ2sf4zK7X6-33" target="_x9Xr2JgzCZ2sf4zK7X6-35">
          <mxGeometry relative="1" as="geometry" />
        </mxCell>
        <mxCell id="_x9Xr2JgzCZ2sf4zK7X6-33" value="move L" style="rounded=0;whiteSpace=wrap;html=1;" vertex="1" parent="_x9Xr2JgzCZ2sf4zK7X6-31">
          <mxGeometry x="20" y="20" width="120" height="30" as="geometry" />
        </mxCell>
        <mxCell id="_x9Xr2JgzCZ2sf4zK7X6-34" style="edgeStyle=none;curved=1;rounded=0;orthogonalLoop=1;jettySize=auto;html=1;exitX=0.5;exitY=1;exitDx=0;exitDy=0;entryX=0.5;entryY=0;entryDx=0;entryDy=0;fontSize=12;startSize=8;endSize=8;" edge="1" parent="_x9Xr2JgzCZ2sf4zK7X6-31" source="_x9Xr2JgzCZ2sf4zK7X6-35" target="_x9Xr2JgzCZ2sf4zK7X6-37">
          <mxGeometry relative="1" as="geometry" />
        </mxCell>
        <mxCell id="_x9Xr2JgzCZ2sf4zK7X6-35" value="move SX" style="rounded=0;whiteSpace=wrap;html=1;" vertex="1" parent="_x9Xr2JgzCZ2sf4zK7X6-31">
          <mxGeometry x="20" y="60" width="120" height="30" as="geometry" />
        </mxCell>
        <mxCell id="_x9Xr2JgzCZ2sf4zK7X6-36" style="edgeStyle=none;curved=1;rounded=0;orthogonalLoop=1;jettySize=auto;html=1;exitX=0.5;exitY=1;exitDx=0;exitDy=0;entryX=0.5;entryY=0;entryDx=0;entryDy=0;fontSize=12;startSize=8;endSize=8;" edge="1" parent="_x9Xr2JgzCZ2sf4zK7X6-31" source="_x9Xr2JgzCZ2sf4zK7X6-37" target="_x9Xr2JgzCZ2sf4zK7X6-39">
          <mxGeometry relative="1" as="geometry" />
        </mxCell>
        <mxCell id="_x9Xr2JgzCZ2sf4zK7X6-37" value="move JX" style="rounded=0;whiteSpace=wrap;html=1;" vertex="1" parent="_x9Xr2JgzCZ2sf4zK7X6-31">
          <mxGeometry x="20" y="100" width="120" height="30" as="geometry" />
        </mxCell>
        <mxCell id="_x9Xr2JgzCZ2sf4zK7X6-38" style="edgeStyle=none;curved=1;rounded=0;orthogonalLoop=1;jettySize=auto;html=1;exitX=0.5;exitY=1;exitDx=0;exitDy=0;entryX=0.5;entryY=0;entryDx=0;entryDy=0;fontSize=12;startSize=8;endSize=8;" edge="1" parent="_x9Xr2JgzCZ2sf4zK7X6-31" source="_x9Xr2JgzCZ2sf4zK7X6-39" target="_x9Xr2JgzCZ2sf4zK7X6-40">
          <mxGeometry relative="1" as="geometry" />
        </mxCell>
        <mxCell id="_x9Xr2JgzCZ2sf4zK7X6-39" value="move L" style="rounded=0;whiteSpace=wrap;html=1;" vertex="1" parent="_x9Xr2JgzCZ2sf4zK7X6-31">
          <mxGeometry x="20" y="140" width="120" height="30" as="geometry" />
        </mxCell>
        <mxCell id="_x9Xr2JgzCZ2sf4zK7X6-40" value="release" style="rounded=0;whiteSpace=wrap;html=1;" vertex="1" parent="_x9Xr2JgzCZ2sf4zK7X6-31">
          <mxGeometry x="20" y="180" width="120" height="30" as="geometry" />
        </mxCell>
        <mxCell id="_x9Xr2JgzCZ2sf4zK7X6-49" value="Pick up soup" style="swimlane;startSize=0;labelBackgroundColor=default;" vertex="1" parent="jKT9HDs5_-q7vNWwmF9f-169">
          <mxGeometry x="420" y="40" width="160" height="390" as="geometry" />
        </mxCell>
        <mxCell id="_x9Xr2JgzCZ2sf4zK7X6-50" style="edgeStyle=none;curved=1;rounded=0;orthogonalLoop=1;jettySize=auto;html=1;exitX=0.5;exitY=1;exitDx=0;exitDy=0;entryX=0.5;entryY=0;entryDx=0;entryDy=0;fontSize=12;startSize=8;endSize=8;" edge="1" parent="_x9Xr2JgzCZ2sf4zK7X6-49" source="_x9Xr2JgzCZ2sf4zK7X6-51" target="_x9Xr2JgzCZ2sf4zK7X6-53">
          <mxGeometry relative="1" as="geometry" />
        </mxCell>
        <mxCell id="_x9Xr2JgzCZ2sf4zK7X6-51" value="move SX" style="rounded=0;whiteSpace=wrap;html=1;" vertex="1" parent="_x9Xr2JgzCZ2sf4zK7X6-49">
          <mxGeometry x="20" y="20" width="120" height="30" as="geometry" />
        </mxCell>
        <mxCell id="_x9Xr2JgzCZ2sf4zK7X6-52" style="edgeStyle=none;curved=1;rounded=0;orthogonalLoop=1;jettySize=auto;html=1;exitX=0.5;exitY=1;exitDx=0;exitDy=0;entryX=0.5;entryY=0;entryDx=0;entryDy=0;fontSize=12;startSize=8;endSize=8;" edge="1" parent="_x9Xr2JgzCZ2sf4zK7X6-49" source="_x9Xr2JgzCZ2sf4zK7X6-53" target="_x9Xr2JgzCZ2sf4zK7X6-55">
          <mxGeometry relative="1" as="geometry" />
        </mxCell>
        <mxCell id="_x9Xr2JgzCZ2sf4zK7X6-53" value="move JX" style="rounded=0;whiteSpace=wrap;html=1;" vertex="1" parent="_x9Xr2JgzCZ2sf4zK7X6-49">
          <mxGeometry x="20" y="60" width="120" height="30" as="geometry" />
        </mxCell>
        <mxCell id="_x9Xr2JgzCZ2sf4zK7X6-54" style="edgeStyle=none;curved=1;rounded=0;orthogonalLoop=1;jettySize=auto;html=1;exitX=0.5;exitY=1;exitDx=0;exitDy=0;entryX=0.5;entryY=0;entryDx=0;entryDy=0;fontSize=12;startSize=8;endSize=8;" edge="1" parent="_x9Xr2JgzCZ2sf4zK7X6-49" source="_x9Xr2JgzCZ2sf4zK7X6-55" target="_x9Xr2JgzCZ2sf4zK7X6-57">
          <mxGeometry relative="1" as="geometry" />
        </mxCell>
        <mxCell id="_x9Xr2JgzCZ2sf4zK7X6-55" value="move L" style="rounded=0;whiteSpace=wrap;html=1;" vertex="1" parent="_x9Xr2JgzCZ2sf4zK7X6-49">
          <mxGeometry x="20" y="100" width="120" height="30" as="geometry" />
        </mxCell>
        <mxCell id="_x9Xr2JgzCZ2sf4zK7X6-56" style="edgeStyle=none;curved=1;rounded=0;orthogonalLoop=1;jettySize=auto;html=1;exitX=0.5;exitY=1;exitDx=0;exitDy=0;entryX=0.5;entryY=0;entryDx=0;entryDy=0;fontSize=12;startSize=8;endSize=8;" edge="1" parent="_x9Xr2JgzCZ2sf4zK7X6-49" source="_x9Xr2JgzCZ2sf4zK7X6-57" target="_x9Xr2JgzCZ2sf4zK7X6-59">
          <mxGeometry relative="1" as="geometry" />
        </mxCell>
        <mxCell id="_x9Xr2JgzCZ2sf4zK7X6-57" value="compliance" style="rounded=0;whiteSpace=wrap;html=1;" vertex="1" parent="_x9Xr2JgzCZ2sf4zK7X6-49">
          <mxGeometry x="20" y="140" width="120" height="30" as="geometry" />
        </mxCell>
        <mxCell id="_x9Xr2JgzCZ2sf4zK7X6-58" style="edgeStyle=none;curved=1;rounded=0;orthogonalLoop=1;jettySize=auto;html=1;exitX=0.5;exitY=1;exitDx=0;exitDy=0;entryX=0.5;entryY=0;entryDx=0;entryDy=0;fontSize=12;startSize=8;endSize=8;" edge="1" parent="_x9Xr2JgzCZ2sf4zK7X6-49" source="_x9Xr2JgzCZ2sf4zK7X6-59" target="_x9Xr2JgzCZ2sf4zK7X6-61">
          <mxGeometry relative="1" as="geometry" />
        </mxCell>
        <mxCell id="_x9Xr2JgzCZ2sf4zK7X6-59" value="force" style="rounded=0;whiteSpace=wrap;html=1;" vertex="1" parent="_x9Xr2JgzCZ2sf4zK7X6-49">
          <mxGeometry x="20" y="180" width="120" height="30" as="geometry" />
        </mxCell>
        <mxCell id="_x9Xr2JgzCZ2sf4zK7X6-60" style="edgeStyle=none;curved=1;rounded=0;orthogonalLoop=1;jettySize=auto;html=1;exitX=0.5;exitY=1;exitDx=0;exitDy=0;entryX=0.5;entryY=0;entryDx=0;entryDy=0;fontSize=12;startSize=8;endSize=8;" edge="1" parent="_x9Xr2JgzCZ2sf4zK7X6-49" source="_x9Xr2JgzCZ2sf4zK7X6-61" target="_x9Xr2JgzCZ2sf4zK7X6-63">
          <mxGeometry relative="1" as="geometry" />
        </mxCell>
        <mxCell id="_x9Xr2JgzCZ2sf4zK7X6-61" value="&lt;span style=&quot;text-align: left;&quot;&gt;move periodic&lt;/span&gt;" style="rounded=0;whiteSpace=wrap;html=1;" vertex="1" parent="_x9Xr2JgzCZ2sf4zK7X6-49">
          <mxGeometry x="20" y="220" width="120" height="30" as="geometry" />
        </mxCell>
        <mxCell id="_x9Xr2JgzCZ2sf4zK7X6-62" style="edgeStyle=none;curved=1;rounded=0;orthogonalLoop=1;jettySize=auto;html=1;exitX=0.5;exitY=1;exitDx=0;exitDy=0;entryX=0.5;entryY=0;entryDx=0;entryDy=0;fontSize=12;startSize=8;endSize=8;" edge="1" parent="_x9Xr2JgzCZ2sf4zK7X6-49" source="_x9Xr2JgzCZ2sf4zK7X6-63" target="_x9Xr2JgzCZ2sf4zK7X6-65">
          <mxGeometry relative="1" as="geometry" />
        </mxCell>
        <mxCell id="_x9Xr2JgzCZ2sf4zK7X6-63" value="&lt;span style=&quot;text-align: left;&quot;&gt;grip&lt;/span&gt;" style="rounded=0;whiteSpace=wrap;html=1;" vertex="1" parent="_x9Xr2JgzCZ2sf4zK7X6-49">
          <mxGeometry x="20" y="260" width="120" height="30" as="geometry" />
        </mxCell>
        <mxCell id="_x9Xr2JgzCZ2sf4zK7X6-64" style="edgeStyle=none;curved=1;rounded=0;orthogonalLoop=1;jettySize=auto;html=1;exitX=0.5;exitY=1;exitDx=0;exitDy=0;entryX=0.5;entryY=0;entryDx=0;entryDy=0;fontSize=12;startSize=8;endSize=8;" edge="1" parent="_x9Xr2JgzCZ2sf4zK7X6-49" source="_x9Xr2JgzCZ2sf4zK7X6-65" target="_x9Xr2JgzCZ2sf4zK7X6-66">
          <mxGeometry relative="1" as="geometry" />
        </mxCell>
        <mxCell id="_x9Xr2JgzCZ2sf4zK7X6-65" value="&lt;span style=&quot;text-align: left;&quot;&gt;force release&lt;/span&gt;" style="rounded=0;whiteSpace=wrap;html=1;" vertex="1" parent="_x9Xr2JgzCZ2sf4zK7X6-49">
          <mxGeometry x="20" y="300" width="120" height="30" as="geometry" />
        </mxCell>
        <mxCell id="_x9Xr2JgzCZ2sf4zK7X6-66" value="&lt;span style=&quot;text-align: left;&quot;&gt;compliance release&lt;/span&gt;" style="rounded=0;whiteSpace=wrap;html=1;" vertex="1" parent="_x9Xr2JgzCZ2sf4zK7X6-49">
          <mxGeometry x="20" y="340" width="120" height="30" as="geometry" />
        </mxCell>
        <mxCell id="_x9Xr2JgzCZ2sf4zK7X6-67" value="Put soup" style="swimlane;startSize=0;labelBackgroundColor=default;" vertex="1" parent="jKT9HDs5_-q7vNWwmF9f-169">
          <mxGeometry x="220" y="40" width="160" height="510" as="geometry" />
        </mxCell>
        <mxCell id="_x9Xr2JgzCZ2sf4zK7X6-68" style="edgeStyle=none;curved=1;rounded=0;orthogonalLoop=1;jettySize=auto;html=1;exitX=0.5;exitY=1;exitDx=0;exitDy=0;entryX=0.5;entryY=0;entryDx=0;entryDy=0;fontSize=12;startSize=8;endSize=8;" edge="1" parent="_x9Xr2JgzCZ2sf4zK7X6-67" source="_x9Xr2JgzCZ2sf4zK7X6-69" target="_x9Xr2JgzCZ2sf4zK7X6-71">
          <mxGeometry relative="1" as="geometry" />
        </mxCell>
        <mxCell id="_x9Xr2JgzCZ2sf4zK7X6-69" value="move L" style="rounded=0;whiteSpace=wrap;html=1;" vertex="1" parent="_x9Xr2JgzCZ2sf4zK7X6-67">
          <mxGeometry x="20" y="20" width="120" height="30" as="geometry" />
        </mxCell>
        <mxCell id="_x9Xr2JgzCZ2sf4zK7X6-70" style="edgeStyle=none;curved=1;rounded=0;orthogonalLoop=1;jettySize=auto;html=1;exitX=0.5;exitY=1;exitDx=0;exitDy=0;entryX=0.5;entryY=0;entryDx=0;entryDy=0;fontSize=12;startSize=8;endSize=8;" edge="1" parent="_x9Xr2JgzCZ2sf4zK7X6-67" source="_x9Xr2JgzCZ2sf4zK7X6-71" target="_x9Xr2JgzCZ2sf4zK7X6-73">
          <mxGeometry relative="1" as="geometry" />
        </mxCell>
        <mxCell id="_x9Xr2JgzCZ2sf4zK7X6-71" value="move B" style="rounded=0;whiteSpace=wrap;html=1;" vertex="1" parent="_x9Xr2JgzCZ2sf4zK7X6-67">
          <mxGeometry x="20" y="60" width="120" height="30" as="geometry" />
        </mxCell>
        <mxCell id="_x9Xr2JgzCZ2sf4zK7X6-72" style="edgeStyle=none;curved=1;rounded=0;orthogonalLoop=1;jettySize=auto;html=1;exitX=0.5;exitY=1;exitDx=0;exitDy=0;entryX=0.5;entryY=0;entryDx=0;entryDy=0;fontSize=12;startSize=8;endSize=8;" edge="1" parent="_x9Xr2JgzCZ2sf4zK7X6-67" source="_x9Xr2JgzCZ2sf4zK7X6-73" target="_x9Xr2JgzCZ2sf4zK7X6-75">
          <mxGeometry relative="1" as="geometry" />
        </mxCell>
        <mxCell id="_x9Xr2JgzCZ2sf4zK7X6-73" value="&lt;span style=&quot;text-align: left;&quot;&gt;move periodic&lt;/span&gt;" style="rounded=0;whiteSpace=wrap;html=1;" vertex="1" parent="_x9Xr2JgzCZ2sf4zK7X6-67">
          <mxGeometry x="20" y="100" width="120" height="30" as="geometry" />
        </mxCell>
        <mxCell id="_x9Xr2JgzCZ2sf4zK7X6-74" style="edgeStyle=none;curved=1;rounded=0;orthogonalLoop=1;jettySize=auto;html=1;exitX=0.5;exitY=1;exitDx=0;exitDy=0;entryX=0.5;entryY=0;entryDx=0;entryDy=0;fontSize=12;startSize=8;endSize=8;" edge="1" parent="_x9Xr2JgzCZ2sf4zK7X6-67" source="_x9Xr2JgzCZ2sf4zK7X6-75" target="_x9Xr2JgzCZ2sf4zK7X6-76">
          <mxGeometry relative="1" as="geometry" />
        </mxCell>
        <mxCell id="_x9Xr2JgzCZ2sf4zK7X6-75" value="move SX" style="rounded=0;whiteSpace=wrap;html=1;" vertex="1" parent="_x9Xr2JgzCZ2sf4zK7X6-67">
          <mxGeometry x="20" y="140" width="120" height="30" as="geometry" />
        </mxCell>
        <mxCell id="_x9Xr2JgzCZ2sf4zK7X6-89" style="edgeStyle=none;curved=1;rounded=0;orthogonalLoop=1;jettySize=auto;html=1;exitX=0.5;exitY=1;exitDx=0;exitDy=0;entryX=0.5;entryY=0;entryDx=0;entryDy=0;fontSize=12;startSize=8;endSize=8;" edge="1" parent="_x9Xr2JgzCZ2sf4zK7X6-67" source="_x9Xr2JgzCZ2sf4zK7X6-76" target="_x9Xr2JgzCZ2sf4zK7X6-77">
          <mxGeometry relative="1" as="geometry" />
        </mxCell>
        <mxCell id="_x9Xr2JgzCZ2sf4zK7X6-76" value="&lt;span style=&quot;text-align: left;&quot;&gt;move JX&lt;/span&gt;" style="rounded=0;whiteSpace=wrap;html=1;" vertex="1" parent="_x9Xr2JgzCZ2sf4zK7X6-67">
          <mxGeometry x="20" y="180" width="120" height="30" as="geometry" />
        </mxCell>
        <mxCell id="_x9Xr2JgzCZ2sf4zK7X6-90" style="edgeStyle=none;curved=1;rounded=0;orthogonalLoop=1;jettySize=auto;html=1;exitX=0.5;exitY=1;exitDx=0;exitDy=0;entryX=0.5;entryY=0;entryDx=0;entryDy=0;fontSize=12;startSize=8;endSize=8;" edge="1" parent="_x9Xr2JgzCZ2sf4zK7X6-67" source="_x9Xr2JgzCZ2sf4zK7X6-77" target="_x9Xr2JgzCZ2sf4zK7X6-79">
          <mxGeometry relative="1" as="geometry" />
        </mxCell>
        <mxCell id="_x9Xr2JgzCZ2sf4zK7X6-77" value="&lt;div style=&quot;text-align: left;&quot;&gt;&lt;span style=&quot;background-color: transparent; color: light-dark(rgb(0, 0, 0), rgb(255, 255, 255));&quot;&gt;move L&lt;/span&gt;&lt;/div&gt;" style="rounded=0;whiteSpace=wrap;html=1;" vertex="1" parent="_x9Xr2JgzCZ2sf4zK7X6-67">
          <mxGeometry x="20" y="220" width="120" height="30" as="geometry" />
        </mxCell>
        <mxCell id="_x9Xr2JgzCZ2sf4zK7X6-78" style="edgeStyle=none;curved=1;rounded=0;orthogonalLoop=1;jettySize=auto;html=1;exitX=0.5;exitY=1;exitDx=0;exitDy=0;entryX=0.5;entryY=0;entryDx=0;entryDy=0;fontSize=12;startSize=8;endSize=8;" edge="1" source="_x9Xr2JgzCZ2sf4zK7X6-79" target="_x9Xr2JgzCZ2sf4zK7X6-81" parent="_x9Xr2JgzCZ2sf4zK7X6-67">
          <mxGeometry relative="1" as="geometry" />
        </mxCell>
        <mxCell id="_x9Xr2JgzCZ2sf4zK7X6-79" value="compliance" style="rounded=0;whiteSpace=wrap;html=1;" vertex="1" parent="_x9Xr2JgzCZ2sf4zK7X6-67">
          <mxGeometry x="20" y="260" width="120" height="30" as="geometry" />
        </mxCell>
        <mxCell id="_x9Xr2JgzCZ2sf4zK7X6-80" style="edgeStyle=none;curved=1;rounded=0;orthogonalLoop=1;jettySize=auto;html=1;exitX=0.5;exitY=1;exitDx=0;exitDy=0;entryX=0.5;entryY=0;entryDx=0;entryDy=0;fontSize=12;startSize=8;endSize=8;" edge="1" source="_x9Xr2JgzCZ2sf4zK7X6-81" target="_x9Xr2JgzCZ2sf4zK7X6-83" parent="_x9Xr2JgzCZ2sf4zK7X6-67">
          <mxGeometry relative="1" as="geometry" />
        </mxCell>
        <mxCell id="_x9Xr2JgzCZ2sf4zK7X6-81" value="force" style="rounded=0;whiteSpace=wrap;html=1;" vertex="1" parent="_x9Xr2JgzCZ2sf4zK7X6-67">
          <mxGeometry x="20" y="300" width="120" height="30" as="geometry" />
        </mxCell>
        <mxCell id="_x9Xr2JgzCZ2sf4zK7X6-82" style="edgeStyle=none;curved=1;rounded=0;orthogonalLoop=1;jettySize=auto;html=1;exitX=0.5;exitY=1;exitDx=0;exitDy=0;entryX=0.5;entryY=0;entryDx=0;entryDy=0;fontSize=12;startSize=8;endSize=8;" edge="1" source="_x9Xr2JgzCZ2sf4zK7X6-83" target="_x9Xr2JgzCZ2sf4zK7X6-85" parent="_x9Xr2JgzCZ2sf4zK7X6-67">
          <mxGeometry relative="1" as="geometry" />
        </mxCell>
        <mxCell id="_x9Xr2JgzCZ2sf4zK7X6-83" value="&lt;span style=&quot;text-align: left;&quot;&gt;move periodic&lt;/span&gt;" style="rounded=0;whiteSpace=wrap;html=1;" vertex="1" parent="_x9Xr2JgzCZ2sf4zK7X6-67">
          <mxGeometry x="20" y="340" width="120" height="30" as="geometry" />
        </mxCell>
        <mxCell id="_x9Xr2JgzCZ2sf4zK7X6-84" style="edgeStyle=none;curved=1;rounded=0;orthogonalLoop=1;jettySize=auto;html=1;exitX=0.5;exitY=1;exitDx=0;exitDy=0;entryX=0.5;entryY=0;entryDx=0;entryDy=0;fontSize=12;startSize=8;endSize=8;" edge="1" source="_x9Xr2JgzCZ2sf4zK7X6-85" target="_x9Xr2JgzCZ2sf4zK7X6-87" parent="_x9Xr2JgzCZ2sf4zK7X6-67">
          <mxGeometry relative="1" as="geometry" />
        </mxCell>
        <mxCell id="_x9Xr2JgzCZ2sf4zK7X6-85" value="&lt;span style=&quot;text-align: left;&quot;&gt;release&lt;/span&gt;" style="rounded=0;whiteSpace=wrap;html=1;" vertex="1" parent="_x9Xr2JgzCZ2sf4zK7X6-67">
          <mxGeometry x="20" y="380" width="120" height="30" as="geometry" />
        </mxCell>
        <mxCell id="_x9Xr2JgzCZ2sf4zK7X6-86" style="edgeStyle=none;curved=1;rounded=0;orthogonalLoop=1;jettySize=auto;html=1;exitX=0.5;exitY=1;exitDx=0;exitDy=0;entryX=0.5;entryY=0;entryDx=0;entryDy=0;fontSize=12;startSize=8;endSize=8;" edge="1" source="_x9Xr2JgzCZ2sf4zK7X6-87" target="_x9Xr2JgzCZ2sf4zK7X6-88" parent="_x9Xr2JgzCZ2sf4zK7X6-67">
          <mxGeometry relative="1" as="geometry" />
        </mxCell>
        <mxCell id="_x9Xr2JgzCZ2sf4zK7X6-87" value="&lt;span style=&quot;text-align: left;&quot;&gt;force release&lt;/span&gt;" style="rounded=0;whiteSpace=wrap;html=1;" vertex="1" parent="_x9Xr2JgzCZ2sf4zK7X6-67">
          <mxGeometry x="20" y="420" width="120" height="30" as="geometry" />
        </mxCell>
        <mxCell id="_x9Xr2JgzCZ2sf4zK7X6-88" value="&lt;span style=&quot;text-align: left;&quot;&gt;compliance release&lt;/span&gt;" style="rounded=0;whiteSpace=wrap;html=1;" vertex="1" parent="_x9Xr2JgzCZ2sf4zK7X6-67">
          <mxGeometry x="20" y="460" width="120" height="30" as="geometry" />
        </mxCell>
        <mxCell id="_x9Xr2JgzCZ2sf4zK7X6-45" value="Timer" style="swimlane;startSize=0;labelBackgroundColor=default;" vertex="1" parent="jKT9HDs5_-q7vNWwmF9f-169">
          <mxGeometry x="20" y="40" width="160" height="190" as="geometry" />
        </mxCell>
        <mxCell id="_x9Xr2JgzCZ2sf4zK7X6-46" style="edgeStyle=none;curved=1;rounded=0;orthogonalLoop=1;jettySize=auto;html=1;exitX=0.5;exitY=1;exitDx=0;exitDy=0;entryX=0.5;entryY=0;entryDx=0;entryDy=0;fontSize=12;startSize=8;endSize=8;" edge="1" parent="_x9Xr2JgzCZ2sf4zK7X6-45" source="_x9Xr2JgzCZ2sf4zK7X6-47" target="_x9Xr2JgzCZ2sf4zK7X6-48">
          <mxGeometry relative="1" as="geometry" />
        </mxCell>
        <mxCell id="_x9Xr2JgzCZ2sf4zK7X6-47" value="move SX" style="rounded=0;whiteSpace=wrap;html=1;" vertex="1" parent="_x9Xr2JgzCZ2sf4zK7X6-45">
          <mxGeometry x="20" y="20" width="120" height="30" as="geometry" />
        </mxCell>
        <mxCell id="rMOnCRuuQ8FxxcGHwxTp-17" style="edgeStyle=none;curved=1;rounded=0;orthogonalLoop=1;jettySize=auto;html=1;exitX=0.5;exitY=1;exitDx=0;exitDy=0;entryX=0.5;entryY=0;entryDx=0;entryDy=0;fontSize=12;startSize=8;endSize=8;" edge="1" parent="_x9Xr2JgzCZ2sf4zK7X6-45" source="_x9Xr2JgzCZ2sf4zK7X6-48" target="rMOnCRuuQ8FxxcGHwxTp-16">
          <mxGeometry relative="1" as="geometry" />
        </mxCell>
        <mxCell id="_x9Xr2JgzCZ2sf4zK7X6-48" value="move J" style="rounded=0;whiteSpace=wrap;html=1;" vertex="1" parent="_x9Xr2JgzCZ2sf4zK7X6-45">
          <mxGeometry x="20" y="60" width="120" height="30" as="geometry" />
        </mxCell>
        <mxCell id="rMOnCRuuQ8FxxcGHwxTp-21" style="edgeStyle=none;curved=1;rounded=0;orthogonalLoop=1;jettySize=auto;html=1;exitX=0.5;exitY=1;exitDx=0;exitDy=0;entryX=0.5;entryY=0;entryDx=0;entryDy=0;fontSize=12;startSize=8;endSize=8;" edge="1" parent="_x9Xr2JgzCZ2sf4zK7X6-45" source="rMOnCRuuQ8FxxcGHwxTp-16" target="rMOnCRuuQ8FxxcGHwxTp-20">
          <mxGeometry relative="1" as="geometry" />
        </mxCell>
        <mxCell id="rMOnCRuuQ8FxxcGHwxTp-16" value="Task state = cook" style="rounded=0;whiteSpace=wrap;html=1;" vertex="1" parent="_x9Xr2JgzCZ2sf4zK7X6-45">
          <mxGeometry x="20" y="100" width="120" height="30" as="geometry" />
        </mxCell>
        <mxCell id="rMOnCRuuQ8FxxcGHwxTp-20" value="start time" style="rounded=0;whiteSpace=wrap;html=1;" vertex="1" parent="_x9Xr2JgzCZ2sf4zK7X6-45">
          <mxGeometry x="20" y="140" width="120" height="30" as="geometry" />
        </mxCell>
        <mxCell id="rMOnCRuuQ8FxxcGHwxTp-134" style="edgeStyle=orthogonalEdgeStyle;rounded=0;orthogonalLoop=1;jettySize=auto;html=1;exitX=0;exitY=0.5;exitDx=0;exitDy=0;entryX=1;entryY=0.5;entryDx=0;entryDy=0;fontSize=12;startSize=8;endSize=8;" edge="1" parent="jKT9HDs5_-q7vNWwmF9f-169" source="_x9Xr2JgzCZ2sf4zK7X6-30" target="_x9Xr2JgzCZ2sf4zK7X6-33">
          <mxGeometry relative="1" as="geometry" />
        </mxCell>
        <mxCell id="rMOnCRuuQ8FxxcGHwxTp-135" style="edgeStyle=orthogonalEdgeStyle;rounded=0;orthogonalLoop=1;jettySize=auto;html=1;exitX=0;exitY=0.5;exitDx=0;exitDy=0;entryX=1;entryY=0.5;entryDx=0;entryDy=0;fontSize=12;startSize=8;endSize=8;" edge="1" parent="jKT9HDs5_-q7vNWwmF9f-169" source="_x9Xr2JgzCZ2sf4zK7X6-40" target="_x9Xr2JgzCZ2sf4zK7X6-51">
          <mxGeometry relative="1" as="geometry" />
        </mxCell>
        <mxCell id="rMOnCRuuQ8FxxcGHwxTp-136" style="edgeStyle=orthogonalEdgeStyle;rounded=0;orthogonalLoop=1;jettySize=auto;html=1;exitX=0;exitY=0.5;exitDx=0;exitDy=0;entryX=1;entryY=0.5;entryDx=0;entryDy=0;fontSize=12;startSize=8;endSize=8;" edge="1" parent="jKT9HDs5_-q7vNWwmF9f-169" source="_x9Xr2JgzCZ2sf4zK7X6-66" target="_x9Xr2JgzCZ2sf4zK7X6-69">
          <mxGeometry relative="1" as="geometry" />
        </mxCell>
        <mxCell id="rMOnCRuuQ8FxxcGHwxTp-137" style="edgeStyle=orthogonalEdgeStyle;rounded=0;orthogonalLoop=1;jettySize=auto;html=1;exitX=0;exitY=0.5;exitDx=0;exitDy=0;entryX=1;entryY=0.5;entryDx=0;entryDy=0;fontSize=12;startSize=8;endSize=8;" edge="1" parent="jKT9HDs5_-q7vNWwmF9f-169" source="_x9Xr2JgzCZ2sf4zK7X6-88" target="_x9Xr2JgzCZ2sf4zK7X6-47">
          <mxGeometry relative="1" as="geometry" />
        </mxCell>
        <mxCell id="jKT9HDs5_-q7vNWwmF9f-171" value="Detect Signal" style="swimlane;whiteSpace=wrap;html=1;fillColor=#e1d5e7;strokeColor=#9673a6;" parent="1" vertex="1">
          <mxGeometry x="30" y="1840" width="670" height="450" as="geometry" />
        </mxCell>
        <mxCell id="5Aa5h2jPWbvLuQX95g7r-43" style="edgeStyle=none;curved=1;rounded=0;orthogonalLoop=1;jettySize=auto;html=1;exitX=0.5;exitY=1;exitDx=0;exitDy=0;entryX=0.5;entryY=0;entryDx=0;entryDy=0;fontSize=12;startSize=8;endSize=8;" edge="1" parent="jKT9HDs5_-q7vNWwmF9f-171" source="5Aa5h2jPWbvLuQX95g7r-26" target="5Aa5h2jPWbvLuQX95g7r-28">
          <mxGeometry relative="1" as="geometry" />
        </mxCell>
        <mxCell id="5Aa5h2jPWbvLuQX95g7r-26" value="detect compress" style="rounded=0;whiteSpace=wrap;html=1;" vertex="1" parent="jKT9HDs5_-q7vNWwmF9f-171">
          <mxGeometry x="530" y="40" width="120" height="60" as="geometry" />
        </mxCell>
        <mxCell id="5Aa5h2jPWbvLuQX95g7r-28" value="x &amp;gt; 10" style="rhombus;whiteSpace=wrap;html=1;" vertex="1" parent="jKT9HDs5_-q7vNWwmF9f-171">
          <mxGeometry x="540.5" y="160" width="99" height="99" as="geometry" />
        </mxCell>
        <mxCell id="5Aa5h2jPWbvLuQX95g7r-29" value="y &amp;gt; 10" style="rhombus;whiteSpace=wrap;html=1;" vertex="1" parent="jKT9HDs5_-q7vNWwmF9f-171">
          <mxGeometry x="540.5" y="330" width="99" height="99" as="geometry" />
        </mxCell>
        <mxCell id="rMOnCRuuQ8FxxcGHwxTp-151" style="edgeStyle=none;curved=1;rounded=0;orthogonalLoop=1;jettySize=auto;html=1;exitX=0;exitY=0.5;exitDx=0;exitDy=0;entryX=1;entryY=0.5;entryDx=0;entryDy=0;fontSize=12;startSize=8;endSize=8;" edge="1" parent="jKT9HDs5_-q7vNWwmF9f-171" source="5Aa5h2jPWbvLuQX95g7r-33" target="rMOnCRuuQ8FxxcGHwxTp-144">
          <mxGeometry relative="1" as="geometry" />
        </mxCell>
        <mxCell id="5Aa5h2jPWbvLuQX95g7r-33" value="machine state = wait" style="rounded=0;whiteSpace=wrap;html=1;" vertex="1" parent="jKT9HDs5_-q7vNWwmF9f-171">
          <mxGeometry x="200" y="179.5" width="120" height="60" as="geometry" />
        </mxCell>
        <mxCell id="rMOnCRuuQ8FxxcGHwxTp-152" style="edgeStyle=none;curved=1;rounded=0;orthogonalLoop=1;jettySize=auto;html=1;exitX=0;exitY=0.5;exitDx=0;exitDy=0;entryX=1;entryY=0.5;entryDx=0;entryDy=0;fontSize=12;startSize=8;endSize=8;" edge="1" parent="jKT9HDs5_-q7vNWwmF9f-171" source="5Aa5h2jPWbvLuQX95g7r-34" target="rMOnCRuuQ8FxxcGHwxTp-145">
          <mxGeometry relative="1" as="geometry" />
        </mxCell>
        <mxCell id="5Aa5h2jPWbvLuQX95g7r-34" value="machine state = use" style="rounded=0;whiteSpace=wrap;html=1;" vertex="1" parent="jKT9HDs5_-q7vNWwmF9f-171">
          <mxGeometry x="200" y="350" width="120" height="60" as="geometry" />
        </mxCell>
        <mxCell id="5Aa5h2jPWbvLuQX95g7r-36" value="" style="endArrow=classic;html=1;rounded=0;fontSize=12;startSize=8;endSize=8;curved=1;exitX=0;exitY=0.5;exitDx=0;exitDy=0;entryX=1;entryY=0.5;entryDx=0;entryDy=0;" edge="1" parent="jKT9HDs5_-q7vNWwmF9f-171" source="5Aa5h2jPWbvLuQX95g7r-29" target="rMOnCRuuQ8FxxcGHwxTp-139">
          <mxGeometry relative="1" as="geometry">
            <mxPoint x="540" y="350" as="sourcePoint" />
            <mxPoint x="530" y="400" as="targetPoint" />
          </mxGeometry>
        </mxCell>
        <mxCell id="5Aa5h2jPWbvLuQX95g7r-37" value="yes" style="edgeLabel;resizable=0;html=1;;align=center;verticalAlign=middle;" connectable="0" vertex="1" parent="5Aa5h2jPWbvLuQX95g7r-36">
          <mxGeometry relative="1" as="geometry" />
        </mxCell>
        <mxCell id="5Aa5h2jPWbvLuQX95g7r-38" value="" style="endArrow=classic;html=1;rounded=0;fontSize=12;startSize=8;endSize=8;curved=1;exitX=0.5;exitY=1;exitDx=0;exitDy=0;entryX=0.5;entryY=0;entryDx=0;entryDy=0;" edge="1" parent="jKT9HDs5_-q7vNWwmF9f-171" source="5Aa5h2jPWbvLuQX95g7r-28" target="5Aa5h2jPWbvLuQX95g7r-29">
          <mxGeometry relative="1" as="geometry">
            <mxPoint x="700" y="350" as="sourcePoint" />
            <mxPoint x="791" y="350" as="targetPoint" />
          </mxGeometry>
        </mxCell>
        <mxCell id="5Aa5h2jPWbvLuQX95g7r-39" value="no" style="edgeLabel;resizable=0;html=1;;align=center;verticalAlign=middle;" connectable="0" vertex="1" parent="5Aa5h2jPWbvLuQX95g7r-38">
          <mxGeometry relative="1" as="geometry" />
        </mxCell>
        <mxCell id="5Aa5h2jPWbvLuQX95g7r-31" value="" style="endArrow=classic;html=1;rounded=0;fontSize=12;startSize=8;endSize=8;curved=1;exitX=0;exitY=0.5;exitDx=0;exitDy=0;entryX=1;entryY=0.5;entryDx=0;entryDy=0;" edge="1" parent="jKT9HDs5_-q7vNWwmF9f-171" source="5Aa5h2jPWbvLuQX95g7r-28" target="rMOnCRuuQ8FxxcGHwxTp-138">
          <mxGeometry relative="1" as="geometry">
            <mxPoint x="540" y="260" as="sourcePoint" />
            <mxPoint x="750" y="210" as="targetPoint" />
          </mxGeometry>
        </mxCell>
        <mxCell id="5Aa5h2jPWbvLuQX95g7r-32" value="yes" style="edgeLabel;resizable=0;html=1;;align=center;verticalAlign=middle;" connectable="0" vertex="1" parent="5Aa5h2jPWbvLuQX95g7r-31">
          <mxGeometry relative="1" as="geometry" />
        </mxCell>
        <mxCell id="rMOnCRuuQ8FxxcGHwxTp-138" value="Ramen cooker&lt;div&gt;state == &#39;&lt;span style=&quot;background-color: transparent; color: light-dark(rgb(0, 0, 0), rgb(255, 255, 255));&quot;&gt;use&#39;&lt;/span&gt;&lt;/div&gt;" style="rhombus;whiteSpace=wrap;html=1;" vertex="1" parent="jKT9HDs5_-q7vNWwmF9f-171">
          <mxGeometry x="380" y="160" width="99" height="99" as="geometry" />
        </mxCell>
        <mxCell id="rMOnCRuuQ8FxxcGHwxTp-139" value="Microwave&lt;div&gt;state == &#39;&lt;span style=&quot;background-color: transparent; color: light-dark(rgb(0, 0, 0), rgb(255, 255, 255));&quot;&gt;use&#39;&lt;/span&gt;&lt;/div&gt;" style="rhombus;whiteSpace=wrap;html=1;" vertex="1" parent="jKT9HDs5_-q7vNWwmF9f-171">
          <mxGeometry x="380" y="330" width="99" height="99" as="geometry" />
        </mxCell>
        <mxCell id="rMOnCRuuQ8FxxcGHwxTp-140" value="" style="endArrow=classic;html=1;rounded=0;fontSize=12;startSize=8;endSize=8;curved=1;exitX=0;exitY=0.5;exitDx=0;exitDy=0;entryX=1;entryY=0.5;entryDx=0;entryDy=0;" edge="1" parent="jKT9HDs5_-q7vNWwmF9f-171" source="rMOnCRuuQ8FxxcGHwxTp-139" target="5Aa5h2jPWbvLuQX95g7r-34">
          <mxGeometry relative="1" as="geometry">
            <mxPoint x="352" y="380" as="sourcePoint" />
            <mxPoint x="270" y="380" as="targetPoint" />
          </mxGeometry>
        </mxCell>
        <mxCell id="rMOnCRuuQ8FxxcGHwxTp-141" value="no" style="edgeLabel;resizable=0;html=1;;align=center;verticalAlign=middle;" connectable="0" vertex="1" parent="rMOnCRuuQ8FxxcGHwxTp-140">
          <mxGeometry relative="1" as="geometry">
            <mxPoint x="10" as="offset" />
          </mxGeometry>
        </mxCell>
        <mxCell id="rMOnCRuuQ8FxxcGHwxTp-142" value="" style="endArrow=classic;html=1;rounded=0;fontSize=12;startSize=8;endSize=8;curved=1;exitX=0;exitY=0.5;exitDx=0;exitDy=0;entryX=1;entryY=0.5;entryDx=0;entryDy=0;" edge="1" parent="jKT9HDs5_-q7vNWwmF9f-171" source="rMOnCRuuQ8FxxcGHwxTp-138" target="5Aa5h2jPWbvLuQX95g7r-33">
          <mxGeometry relative="1" as="geometry">
            <mxPoint x="352" y="210" as="sourcePoint" />
            <mxPoint x="270" y="210" as="targetPoint" />
          </mxGeometry>
        </mxCell>
        <mxCell id="rMOnCRuuQ8FxxcGHwxTp-143" value="yes" style="edgeLabel;resizable=0;html=1;;align=center;verticalAlign=middle;" connectable="0" vertex="1" parent="rMOnCRuuQ8FxxcGHwxTp-142">
          <mxGeometry relative="1" as="geometry">
            <mxPoint x="10" as="offset" />
          </mxGeometry>
        </mxCell>
        <mxCell id="rMOnCRuuQ8FxxcGHwxTp-144" value="Task state = possible" style="rounded=0;whiteSpace=wrap;html=1;" vertex="1" parent="jKT9HDs5_-q7vNWwmF9f-171">
          <mxGeometry x="20" y="179.5" width="120" height="60" as="geometry" />
        </mxCell>
        <mxCell id="rMOnCRuuQ8FxxcGHwxTp-145" value="Task state = wait" style="rounded=0;whiteSpace=wrap;html=1;" vertex="1" parent="jKT9HDs5_-q7vNWwmF9f-171">
          <mxGeometry x="20" y="350" width="120" height="60" as="geometry" />
        </mxCell>
        <mxCell id="rMOnCRuuQ8FxxcGHwxTp-146" value="" style="endArrow=classic;html=1;rounded=0;fontSize=12;startSize=8;endSize=8;curved=1;exitX=0;exitY=0;exitDx=0;exitDy=0;entryX=1;entryY=0.5;entryDx=0;entryDy=0;" edge="1" parent="jKT9HDs5_-q7vNWwmF9f-171" source="rMOnCRuuQ8FxxcGHwxTp-139" target="5Aa5h2jPWbvLuQX95g7r-33">
          <mxGeometry relative="1" as="geometry">
            <mxPoint x="390" y="280" as="sourcePoint" />
            <mxPoint x="270" y="280" as="targetPoint" />
          </mxGeometry>
        </mxCell>
        <mxCell id="rMOnCRuuQ8FxxcGHwxTp-147" value="no" style="edgeLabel;resizable=0;html=1;;align=center;verticalAlign=middle;" connectable="0" vertex="1" parent="rMOnCRuuQ8FxxcGHwxTp-146">
          <mxGeometry relative="1" as="geometry">
            <mxPoint x="28" y="48" as="offset" />
          </mxGeometry>
        </mxCell>
        <mxCell id="rMOnCRuuQ8FxxcGHwxTp-149" value="" style="endArrow=classic;html=1;rounded=0;fontSize=12;startSize=8;endSize=8;curved=1;exitX=0;exitY=1;exitDx=0;exitDy=0;entryX=1;entryY=0.5;entryDx=0;entryDy=0;" edge="1" parent="jKT9HDs5_-q7vNWwmF9f-171" source="rMOnCRuuQ8FxxcGHwxTp-138" target="5Aa5h2jPWbvLuQX95g7r-34">
          <mxGeometry relative="1" as="geometry">
            <mxPoint x="480" y="241" as="sourcePoint" />
            <mxPoint x="360" y="240" as="targetPoint" />
          </mxGeometry>
        </mxCell>
        <mxCell id="rMOnCRuuQ8FxxcGHwxTp-150" value="yes" style="edgeLabel;resizable=0;html=1;;align=center;verticalAlign=middle;" connectable="0" vertex="1" parent="rMOnCRuuQ8FxxcGHwxTp-149">
          <mxGeometry relative="1" as="geometry">
            <mxPoint x="27" y="-47" as="offset" />
          </mxGeometry>
        </mxCell>
        <mxCell id="jKT9HDs5_-q7vNWwmF9f-172" value="Serving" style="swimlane;whiteSpace=wrap;html=1;fillColor=#d5e8d4;strokeColor=#82b366;" parent="1" vertex="1">
          <mxGeometry x="-350" y="2900" width="820" height="730" as="geometry" />
        </mxCell>
        <mxCell id="rMOnCRuuQ8FxxcGHwxTp-25" value="machine ==&amp;nbsp;&lt;div&gt;&#39;Ramen&#39;&lt;/div&gt;" style="rhombus;whiteSpace=wrap;html=1;" vertex="1" parent="jKT9HDs5_-q7vNWwmF9f-172">
          <mxGeometry x="50.5" y="35.5" width="99" height="99" as="geometry" />
        </mxCell>
        <mxCell id="rMOnCRuuQ8FxxcGHwxTp-62" value="Pick up bowl" style="swimlane;startSize=0;labelBackgroundColor=default;" vertex="1" parent="jKT9HDs5_-q7vNWwmF9f-172">
          <mxGeometry x="220" y="50" width="320" height="230" as="geometry" />
        </mxCell>
        <mxCell id="rMOnCRuuQ8FxxcGHwxTp-63" style="edgeStyle=none;curved=1;rounded=0;orthogonalLoop=1;jettySize=auto;html=1;exitX=0.5;exitY=1;exitDx=0;exitDy=0;entryX=0.5;entryY=0;entryDx=0;entryDy=0;fontSize=12;startSize=8;endSize=8;" edge="1" parent="rMOnCRuuQ8FxxcGHwxTp-62" source="rMOnCRuuQ8FxxcGHwxTp-64" target="rMOnCRuuQ8FxxcGHwxTp-66">
          <mxGeometry relative="1" as="geometry" />
        </mxCell>
        <mxCell id="rMOnCRuuQ8FxxcGHwxTp-64" value="move SX" style="rounded=0;whiteSpace=wrap;html=1;" vertex="1" parent="rMOnCRuuQ8FxxcGHwxTp-62">
          <mxGeometry x="20" y="20" width="120" height="30" as="geometry" />
        </mxCell>
        <mxCell id="rMOnCRuuQ8FxxcGHwxTp-65" style="edgeStyle=none;curved=1;rounded=0;orthogonalLoop=1;jettySize=auto;html=1;exitX=0.5;exitY=1;exitDx=0;exitDy=0;entryX=0.5;entryY=0;entryDx=0;entryDy=0;fontSize=12;startSize=8;endSize=8;" edge="1" parent="rMOnCRuuQ8FxxcGHwxTp-62" source="rMOnCRuuQ8FxxcGHwxTp-66" target="rMOnCRuuQ8FxxcGHwxTp-68">
          <mxGeometry relative="1" as="geometry" />
        </mxCell>
        <mxCell id="rMOnCRuuQ8FxxcGHwxTp-66" value="move JX" style="rounded=0;whiteSpace=wrap;html=1;" vertex="1" parent="rMOnCRuuQ8FxxcGHwxTp-62">
          <mxGeometry x="20" y="60" width="120" height="30" as="geometry" />
        </mxCell>
        <mxCell id="rMOnCRuuQ8FxxcGHwxTp-67" style="edgeStyle=none;curved=1;rounded=0;orthogonalLoop=1;jettySize=auto;html=1;exitX=0.5;exitY=1;exitDx=0;exitDy=0;entryX=0.5;entryY=0;entryDx=0;entryDy=0;fontSize=12;startSize=8;endSize=8;" edge="1" parent="rMOnCRuuQ8FxxcGHwxTp-62" source="rMOnCRuuQ8FxxcGHwxTp-68" target="rMOnCRuuQ8FxxcGHwxTp-70">
          <mxGeometry relative="1" as="geometry" />
        </mxCell>
        <mxCell id="rMOnCRuuQ8FxxcGHwxTp-68" value="move L" style="rounded=0;whiteSpace=wrap;html=1;" vertex="1" parent="rMOnCRuuQ8FxxcGHwxTp-62">
          <mxGeometry x="20" y="100" width="120" height="30" as="geometry" />
        </mxCell>
        <mxCell id="rMOnCRuuQ8FxxcGHwxTp-69" style="edgeStyle=none;curved=1;rounded=0;orthogonalLoop=1;jettySize=auto;html=1;exitX=0.5;exitY=1;exitDx=0;exitDy=0;entryX=0.5;entryY=0;entryDx=0;entryDy=0;fontSize=12;startSize=8;endSize=8;" edge="1" parent="rMOnCRuuQ8FxxcGHwxTp-62" source="rMOnCRuuQ8FxxcGHwxTp-70" target="rMOnCRuuQ8FxxcGHwxTp-72">
          <mxGeometry relative="1" as="geometry" />
        </mxCell>
        <mxCell id="rMOnCRuuQ8FxxcGHwxTp-70" value="compliance" style="rounded=0;whiteSpace=wrap;html=1;" vertex="1" parent="rMOnCRuuQ8FxxcGHwxTp-62">
          <mxGeometry x="20" y="140" width="120" height="30" as="geometry" />
        </mxCell>
        <mxCell id="rMOnCRuuQ8FxxcGHwxTp-80" style="edgeStyle=orthogonalEdgeStyle;rounded=0;orthogonalLoop=1;jettySize=auto;html=1;exitX=1;exitY=0.5;exitDx=0;exitDy=0;entryX=0;entryY=0.5;entryDx=0;entryDy=0;fontSize=12;startSize=8;endSize=8;" edge="1" parent="rMOnCRuuQ8FxxcGHwxTp-62" source="rMOnCRuuQ8FxxcGHwxTp-72" target="rMOnCRuuQ8FxxcGHwxTp-74">
          <mxGeometry relative="1" as="geometry" />
        </mxCell>
        <mxCell id="rMOnCRuuQ8FxxcGHwxTp-72" value="force" style="rounded=0;whiteSpace=wrap;html=1;" vertex="1" parent="rMOnCRuuQ8FxxcGHwxTp-62">
          <mxGeometry x="20" y="180" width="120" height="30" as="geometry" />
        </mxCell>
        <mxCell id="rMOnCRuuQ8FxxcGHwxTp-73" style="edgeStyle=none;curved=1;rounded=0;orthogonalLoop=1;jettySize=auto;html=1;exitX=0.5;exitY=1;exitDx=0;exitDy=0;entryX=0.5;entryY=0;entryDx=0;entryDy=0;fontSize=12;startSize=8;endSize=8;" edge="1" parent="rMOnCRuuQ8FxxcGHwxTp-62" source="rMOnCRuuQ8FxxcGHwxTp-74" target="rMOnCRuuQ8FxxcGHwxTp-76">
          <mxGeometry relative="1" as="geometry" />
        </mxCell>
        <mxCell id="rMOnCRuuQ8FxxcGHwxTp-74" value="&lt;span style=&quot;text-align: left;&quot;&gt;move periodic&lt;/span&gt;" style="rounded=0;whiteSpace=wrap;html=1;" vertex="1" parent="rMOnCRuuQ8FxxcGHwxTp-62">
          <mxGeometry x="180" y="20" width="120" height="30" as="geometry" />
        </mxCell>
        <mxCell id="rMOnCRuuQ8FxxcGHwxTp-75" style="edgeStyle=none;curved=1;rounded=0;orthogonalLoop=1;jettySize=auto;html=1;exitX=0.5;exitY=1;exitDx=0;exitDy=0;entryX=0.5;entryY=0;entryDx=0;entryDy=0;fontSize=12;startSize=8;endSize=8;" edge="1" parent="rMOnCRuuQ8FxxcGHwxTp-62" source="rMOnCRuuQ8FxxcGHwxTp-76" target="rMOnCRuuQ8FxxcGHwxTp-78">
          <mxGeometry relative="1" as="geometry" />
        </mxCell>
        <mxCell id="rMOnCRuuQ8FxxcGHwxTp-76" value="&lt;span style=&quot;text-align: left;&quot;&gt;grip&lt;/span&gt;" style="rounded=0;whiteSpace=wrap;html=1;" vertex="1" parent="rMOnCRuuQ8FxxcGHwxTp-62">
          <mxGeometry x="180" y="60" width="120" height="30" as="geometry" />
        </mxCell>
        <mxCell id="rMOnCRuuQ8FxxcGHwxTp-77" style="edgeStyle=none;curved=1;rounded=0;orthogonalLoop=1;jettySize=auto;html=1;exitX=0.5;exitY=1;exitDx=0;exitDy=0;entryX=0.5;entryY=0;entryDx=0;entryDy=0;fontSize=12;startSize=8;endSize=8;" edge="1" parent="rMOnCRuuQ8FxxcGHwxTp-62" source="rMOnCRuuQ8FxxcGHwxTp-78" target="rMOnCRuuQ8FxxcGHwxTp-79">
          <mxGeometry relative="1" as="geometry" />
        </mxCell>
        <mxCell id="rMOnCRuuQ8FxxcGHwxTp-78" value="&lt;span style=&quot;text-align: left;&quot;&gt;force release&lt;/span&gt;" style="rounded=0;whiteSpace=wrap;html=1;" vertex="1" parent="rMOnCRuuQ8FxxcGHwxTp-62">
          <mxGeometry x="180" y="100" width="120" height="30" as="geometry" />
        </mxCell>
        <mxCell id="rMOnCRuuQ8FxxcGHwxTp-79" value="&lt;span style=&quot;text-align: left;&quot;&gt;compliance release&lt;/span&gt;" style="rounded=0;whiteSpace=wrap;html=1;" vertex="1" parent="rMOnCRuuQ8FxxcGHwxTp-62">
          <mxGeometry x="180" y="140" width="120" height="30" as="geometry" />
        </mxCell>
        <mxCell id="rMOnCRuuQ8FxxcGHwxTp-38" value="Pick up food" style="swimlane;startSize=0;labelBackgroundColor=default;" vertex="1" parent="jKT9HDs5_-q7vNWwmF9f-172">
          <mxGeometry x="220" y="300" width="160" height="390" as="geometry" />
        </mxCell>
        <mxCell id="rMOnCRuuQ8FxxcGHwxTp-39" style="edgeStyle=none;curved=1;rounded=0;orthogonalLoop=1;jettySize=auto;html=1;exitX=0.5;exitY=1;exitDx=0;exitDy=0;entryX=0.5;entryY=0;entryDx=0;entryDy=0;fontSize=12;startSize=8;endSize=8;" edge="1" parent="rMOnCRuuQ8FxxcGHwxTp-38" source="rMOnCRuuQ8FxxcGHwxTp-40" target="rMOnCRuuQ8FxxcGHwxTp-42">
          <mxGeometry relative="1" as="geometry" />
        </mxCell>
        <mxCell id="rMOnCRuuQ8FxxcGHwxTp-40" value="move SX" style="rounded=0;whiteSpace=wrap;html=1;" vertex="1" parent="rMOnCRuuQ8FxxcGHwxTp-38">
          <mxGeometry x="20" y="20" width="120" height="30" as="geometry" />
        </mxCell>
        <mxCell id="rMOnCRuuQ8FxxcGHwxTp-41" style="edgeStyle=none;curved=1;rounded=0;orthogonalLoop=1;jettySize=auto;html=1;exitX=0.5;exitY=1;exitDx=0;exitDy=0;entryX=0.5;entryY=0;entryDx=0;entryDy=0;fontSize=12;startSize=8;endSize=8;" edge="1" parent="rMOnCRuuQ8FxxcGHwxTp-38" source="rMOnCRuuQ8FxxcGHwxTp-42" target="rMOnCRuuQ8FxxcGHwxTp-44">
          <mxGeometry relative="1" as="geometry" />
        </mxCell>
        <mxCell id="rMOnCRuuQ8FxxcGHwxTp-42" value="move JX" style="rounded=0;whiteSpace=wrap;html=1;" vertex="1" parent="rMOnCRuuQ8FxxcGHwxTp-38">
          <mxGeometry x="20" y="60" width="120" height="30" as="geometry" />
        </mxCell>
        <mxCell id="rMOnCRuuQ8FxxcGHwxTp-43" style="edgeStyle=none;curved=1;rounded=0;orthogonalLoop=1;jettySize=auto;html=1;exitX=0.5;exitY=1;exitDx=0;exitDy=0;entryX=0.5;entryY=0;entryDx=0;entryDy=0;fontSize=12;startSize=8;endSize=8;" edge="1" parent="rMOnCRuuQ8FxxcGHwxTp-38" source="rMOnCRuuQ8FxxcGHwxTp-44" target="rMOnCRuuQ8FxxcGHwxTp-46">
          <mxGeometry relative="1" as="geometry" />
        </mxCell>
        <mxCell id="rMOnCRuuQ8FxxcGHwxTp-44" value="move L" style="rounded=0;whiteSpace=wrap;html=1;" vertex="1" parent="rMOnCRuuQ8FxxcGHwxTp-38">
          <mxGeometry x="20" y="100" width="120" height="30" as="geometry" />
        </mxCell>
        <mxCell id="rMOnCRuuQ8FxxcGHwxTp-45" style="edgeStyle=none;curved=1;rounded=0;orthogonalLoop=1;jettySize=auto;html=1;exitX=0.5;exitY=1;exitDx=0;exitDy=0;entryX=0.5;entryY=0;entryDx=0;entryDy=0;fontSize=12;startSize=8;endSize=8;" edge="1" parent="rMOnCRuuQ8FxxcGHwxTp-38" source="rMOnCRuuQ8FxxcGHwxTp-46" target="rMOnCRuuQ8FxxcGHwxTp-48">
          <mxGeometry relative="1" as="geometry" />
        </mxCell>
        <mxCell id="rMOnCRuuQ8FxxcGHwxTp-46" value="compliance" style="rounded=0;whiteSpace=wrap;html=1;" vertex="1" parent="rMOnCRuuQ8FxxcGHwxTp-38">
          <mxGeometry x="20" y="140" width="120" height="30" as="geometry" />
        </mxCell>
        <mxCell id="rMOnCRuuQ8FxxcGHwxTp-47" style="edgeStyle=none;curved=1;rounded=0;orthogonalLoop=1;jettySize=auto;html=1;exitX=0.5;exitY=1;exitDx=0;exitDy=0;entryX=0.5;entryY=0;entryDx=0;entryDy=0;fontSize=12;startSize=8;endSize=8;" edge="1" parent="rMOnCRuuQ8FxxcGHwxTp-38" source="rMOnCRuuQ8FxxcGHwxTp-48" target="rMOnCRuuQ8FxxcGHwxTp-50">
          <mxGeometry relative="1" as="geometry" />
        </mxCell>
        <mxCell id="rMOnCRuuQ8FxxcGHwxTp-48" value="force" style="rounded=0;whiteSpace=wrap;html=1;" vertex="1" parent="rMOnCRuuQ8FxxcGHwxTp-38">
          <mxGeometry x="20" y="180" width="120" height="30" as="geometry" />
        </mxCell>
        <mxCell id="rMOnCRuuQ8FxxcGHwxTp-49" style="edgeStyle=none;curved=1;rounded=0;orthogonalLoop=1;jettySize=auto;html=1;exitX=0.5;exitY=1;exitDx=0;exitDy=0;entryX=0.5;entryY=0;entryDx=0;entryDy=0;fontSize=12;startSize=8;endSize=8;" edge="1" parent="rMOnCRuuQ8FxxcGHwxTp-38" source="rMOnCRuuQ8FxxcGHwxTp-50" target="rMOnCRuuQ8FxxcGHwxTp-52">
          <mxGeometry relative="1" as="geometry" />
        </mxCell>
        <mxCell id="rMOnCRuuQ8FxxcGHwxTp-50" value="&lt;span style=&quot;text-align: left;&quot;&gt;move periodic&lt;/span&gt;" style="rounded=0;whiteSpace=wrap;html=1;" vertex="1" parent="rMOnCRuuQ8FxxcGHwxTp-38">
          <mxGeometry x="20" y="220" width="120" height="30" as="geometry" />
        </mxCell>
        <mxCell id="rMOnCRuuQ8FxxcGHwxTp-51" style="edgeStyle=none;curved=1;rounded=0;orthogonalLoop=1;jettySize=auto;html=1;exitX=0.5;exitY=1;exitDx=0;exitDy=0;entryX=0.5;entryY=0;entryDx=0;entryDy=0;fontSize=12;startSize=8;endSize=8;" edge="1" parent="rMOnCRuuQ8FxxcGHwxTp-38" source="rMOnCRuuQ8FxxcGHwxTp-52" target="rMOnCRuuQ8FxxcGHwxTp-54">
          <mxGeometry relative="1" as="geometry" />
        </mxCell>
        <mxCell id="rMOnCRuuQ8FxxcGHwxTp-52" value="&lt;span style=&quot;text-align: left;&quot;&gt;grip&lt;/span&gt;" style="rounded=0;whiteSpace=wrap;html=1;" vertex="1" parent="rMOnCRuuQ8FxxcGHwxTp-38">
          <mxGeometry x="20" y="260" width="120" height="30" as="geometry" />
        </mxCell>
        <mxCell id="rMOnCRuuQ8FxxcGHwxTp-53" style="edgeStyle=none;curved=1;rounded=0;orthogonalLoop=1;jettySize=auto;html=1;exitX=0.5;exitY=1;exitDx=0;exitDy=0;entryX=0.5;entryY=0;entryDx=0;entryDy=0;fontSize=12;startSize=8;endSize=8;" edge="1" parent="rMOnCRuuQ8FxxcGHwxTp-38" source="rMOnCRuuQ8FxxcGHwxTp-54" target="rMOnCRuuQ8FxxcGHwxTp-55">
          <mxGeometry relative="1" as="geometry" />
        </mxCell>
        <mxCell id="rMOnCRuuQ8FxxcGHwxTp-54" value="&lt;span style=&quot;text-align: left;&quot;&gt;force release&lt;/span&gt;" style="rounded=0;whiteSpace=wrap;html=1;" vertex="1" parent="rMOnCRuuQ8FxxcGHwxTp-38">
          <mxGeometry x="20" y="300" width="120" height="30" as="geometry" />
        </mxCell>
        <mxCell id="rMOnCRuuQ8FxxcGHwxTp-55" value="&lt;span style=&quot;text-align: left;&quot;&gt;compliance release&lt;/span&gt;" style="rounded=0;whiteSpace=wrap;html=1;" vertex="1" parent="rMOnCRuuQ8FxxcGHwxTp-38">
          <mxGeometry x="20" y="340" width="120" height="30" as="geometry" />
        </mxCell>
        <mxCell id="rMOnCRuuQ8FxxcGHwxTp-58" value="Close Microwave" style="swimlane;startSize=0;labelBackgroundColor=default;" vertex="1" parent="jKT9HDs5_-q7vNWwmF9f-172">
          <mxGeometry x="620" y="300" width="160" height="110" as="geometry" />
        </mxCell>
        <mxCell id="rMOnCRuuQ8FxxcGHwxTp-59" style="edgeStyle=none;curved=1;rounded=0;orthogonalLoop=1;jettySize=auto;html=1;exitX=0.5;exitY=1;exitDx=0;exitDy=0;entryX=0.5;entryY=0;entryDx=0;entryDy=0;fontSize=12;startSize=8;endSize=8;" edge="1" parent="rMOnCRuuQ8FxxcGHwxTp-58" source="rMOnCRuuQ8FxxcGHwxTp-60" target="rMOnCRuuQ8FxxcGHwxTp-61">
          <mxGeometry relative="1" as="geometry" />
        </mxCell>
        <mxCell id="rMOnCRuuQ8FxxcGHwxTp-60" value="move L" style="rounded=0;whiteSpace=wrap;html=1;" vertex="1" parent="rMOnCRuuQ8FxxcGHwxTp-58">
          <mxGeometry x="20" y="20" width="120" height="30" as="geometry" />
        </mxCell>
        <mxCell id="rMOnCRuuQ8FxxcGHwxTp-61" value="move C" style="rounded=0;whiteSpace=wrap;html=1;" vertex="1" parent="rMOnCRuuQ8FxxcGHwxTp-58">
          <mxGeometry x="20" y="60" width="120" height="30" as="geometry" />
        </mxCell>
        <mxCell id="rMOnCRuuQ8FxxcGHwxTp-81" style="edgeStyle=orthogonalEdgeStyle;rounded=0;orthogonalLoop=1;jettySize=auto;html=1;exitX=1;exitY=0.5;exitDx=0;exitDy=0;entryX=0;entryY=0.5;entryDx=0;entryDy=0;fontSize=12;startSize=8;endSize=8;" edge="1" parent="jKT9HDs5_-q7vNWwmF9f-172" source="rMOnCRuuQ8FxxcGHwxTp-37" target="rMOnCRuuQ8FxxcGHwxTp-40">
          <mxGeometry relative="1" as="geometry" />
        </mxCell>
        <mxCell id="rMOnCRuuQ8FxxcGHwxTp-83" value="serve" style="swimlane;startSize=0;labelBackgroundColor=default;" vertex="1" parent="jKT9HDs5_-q7vNWwmF9f-172">
          <mxGeometry x="580" y="50" width="160" height="190" as="geometry" />
        </mxCell>
        <mxCell id="rMOnCRuuQ8FxxcGHwxTp-84" style="edgeStyle=none;curved=1;rounded=0;orthogonalLoop=1;jettySize=auto;html=1;exitX=0.5;exitY=1;exitDx=0;exitDy=0;entryX=0.5;entryY=0;entryDx=0;entryDy=0;fontSize=12;startSize=8;endSize=8;" edge="1" parent="rMOnCRuuQ8FxxcGHwxTp-83" source="rMOnCRuuQ8FxxcGHwxTp-85" target="rMOnCRuuQ8FxxcGHwxTp-87">
          <mxGeometry relative="1" as="geometry" />
        </mxCell>
        <mxCell id="rMOnCRuuQ8FxxcGHwxTp-85" value="move B" style="rounded=0;whiteSpace=wrap;html=1;" vertex="1" parent="rMOnCRuuQ8FxxcGHwxTp-83">
          <mxGeometry x="20" y="20" width="120" height="30" as="geometry" />
        </mxCell>
        <mxCell id="rMOnCRuuQ8FxxcGHwxTp-86" style="edgeStyle=none;curved=1;rounded=0;orthogonalLoop=1;jettySize=auto;html=1;exitX=0.5;exitY=1;exitDx=0;exitDy=0;entryX=0.5;entryY=0;entryDx=0;entryDy=0;fontSize=12;startSize=8;endSize=8;" edge="1" parent="rMOnCRuuQ8FxxcGHwxTp-83" source="rMOnCRuuQ8FxxcGHwxTp-87" target="rMOnCRuuQ8FxxcGHwxTp-89">
          <mxGeometry relative="1" as="geometry" />
        </mxCell>
        <mxCell id="rMOnCRuuQ8FxxcGHwxTp-87" value="move JX" style="rounded=0;whiteSpace=wrap;html=1;" vertex="1" parent="rMOnCRuuQ8FxxcGHwxTp-83">
          <mxGeometry x="20" y="60" width="120" height="30" as="geometry" />
        </mxCell>
        <mxCell id="rMOnCRuuQ8FxxcGHwxTp-88" style="edgeStyle=none;curved=1;rounded=0;orthogonalLoop=1;jettySize=auto;html=1;exitX=0.5;exitY=1;exitDx=0;exitDy=0;entryX=0.5;entryY=0;entryDx=0;entryDy=0;fontSize=12;startSize=8;endSize=8;" edge="1" parent="rMOnCRuuQ8FxxcGHwxTp-83" source="rMOnCRuuQ8FxxcGHwxTp-89" target="rMOnCRuuQ8FxxcGHwxTp-91">
          <mxGeometry relative="1" as="geometry" />
        </mxCell>
        <mxCell id="rMOnCRuuQ8FxxcGHwxTp-89" value="move L" style="rounded=0;whiteSpace=wrap;html=1;" vertex="1" parent="rMOnCRuuQ8FxxcGHwxTp-83">
          <mxGeometry x="20" y="100" width="120" height="30" as="geometry" />
        </mxCell>
        <mxCell id="rMOnCRuuQ8FxxcGHwxTp-91" value="release" style="rounded=0;whiteSpace=wrap;html=1;" vertex="1" parent="rMOnCRuuQ8FxxcGHwxTp-83">
          <mxGeometry x="20" y="140" width="120" height="30" as="geometry" />
        </mxCell>
        <mxCell id="rMOnCRuuQ8FxxcGHwxTp-95" value="serve" style="swimlane;startSize=0;labelBackgroundColor=default;" vertex="1" parent="jKT9HDs5_-q7vNWwmF9f-172">
          <mxGeometry x="420" y="300" width="160" height="230" as="geometry" />
        </mxCell>
        <mxCell id="rMOnCRuuQ8FxxcGHwxTp-96" style="edgeStyle=none;curved=1;rounded=0;orthogonalLoop=1;jettySize=auto;html=1;exitX=0.5;exitY=1;exitDx=0;exitDy=0;entryX=0.5;entryY=0;entryDx=0;entryDy=0;fontSize=12;startSize=8;endSize=8;" edge="1" parent="rMOnCRuuQ8FxxcGHwxTp-95" source="rMOnCRuuQ8FxxcGHwxTp-97" target="rMOnCRuuQ8FxxcGHwxTp-99">
          <mxGeometry relative="1" as="geometry" />
        </mxCell>
        <mxCell id="rMOnCRuuQ8FxxcGHwxTp-97" value="move B" style="rounded=0;whiteSpace=wrap;html=1;" vertex="1" parent="rMOnCRuuQ8FxxcGHwxTp-95">
          <mxGeometry x="20" y="20" width="120" height="30" as="geometry" />
        </mxCell>
        <mxCell id="rMOnCRuuQ8FxxcGHwxTp-98" style="edgeStyle=none;curved=1;rounded=0;orthogonalLoop=1;jettySize=auto;html=1;exitX=0.5;exitY=1;exitDx=0;exitDy=0;entryX=0.5;entryY=0;entryDx=0;entryDy=0;fontSize=12;startSize=8;endSize=8;" edge="1" parent="rMOnCRuuQ8FxxcGHwxTp-95" source="rMOnCRuuQ8FxxcGHwxTp-99" target="rMOnCRuuQ8FxxcGHwxTp-101">
          <mxGeometry relative="1" as="geometry" />
        </mxCell>
        <mxCell id="rMOnCRuuQ8FxxcGHwxTp-99" value="move JX" style="rounded=0;whiteSpace=wrap;html=1;" vertex="1" parent="rMOnCRuuQ8FxxcGHwxTp-95">
          <mxGeometry x="20" y="60" width="120" height="30" as="geometry" />
        </mxCell>
        <mxCell id="rMOnCRuuQ8FxxcGHwxTp-100" style="edgeStyle=none;curved=1;rounded=0;orthogonalLoop=1;jettySize=auto;html=1;exitX=0.5;exitY=1;exitDx=0;exitDy=0;entryX=0.5;entryY=0;entryDx=0;entryDy=0;fontSize=12;startSize=8;endSize=8;" edge="1" parent="rMOnCRuuQ8FxxcGHwxTp-95" source="rMOnCRuuQ8FxxcGHwxTp-101" target="rMOnCRuuQ8FxxcGHwxTp-103">
          <mxGeometry relative="1" as="geometry" />
        </mxCell>
        <mxCell id="rMOnCRuuQ8FxxcGHwxTp-101" value="move L" style="rounded=0;whiteSpace=wrap;html=1;" vertex="1" parent="rMOnCRuuQ8FxxcGHwxTp-95">
          <mxGeometry x="20" y="100" width="120" height="30" as="geometry" />
        </mxCell>
        <mxCell id="rMOnCRuuQ8FxxcGHwxTp-111" style="edgeStyle=none;curved=1;rounded=0;orthogonalLoop=1;jettySize=auto;html=1;exitX=0.5;exitY=1;exitDx=0;exitDy=0;entryX=0.5;entryY=0;entryDx=0;entryDy=0;fontSize=12;startSize=8;endSize=8;" edge="1" parent="rMOnCRuuQ8FxxcGHwxTp-95" source="rMOnCRuuQ8FxxcGHwxTp-103" target="rMOnCRuuQ8FxxcGHwxTp-110">
          <mxGeometry relative="1" as="geometry" />
        </mxCell>
        <mxCell id="rMOnCRuuQ8FxxcGHwxTp-103" value="release" style="rounded=0;whiteSpace=wrap;html=1;" vertex="1" parent="rMOnCRuuQ8FxxcGHwxTp-95">
          <mxGeometry x="20" y="140" width="120" height="30" as="geometry" />
        </mxCell>
        <mxCell id="rMOnCRuuQ8FxxcGHwxTp-110" value="&lt;span style=&quot;font-size: 11px; text-wrap: nowrap; background-color: rgb(255, 255, 255);&quot;&gt;quantity -= 1&lt;/span&gt;" style="rounded=0;whiteSpace=wrap;html=1;" vertex="1" parent="rMOnCRuuQ8FxxcGHwxTp-95">
          <mxGeometry x="20" y="180" width="120" height="30" as="geometry" />
        </mxCell>
        <mxCell id="rMOnCRuuQ8FxxcGHwxTp-107" value="&lt;span style=&quot;font-size: 11px; text-wrap: nowrap; background-color: rgb(255, 255, 255);&quot;&gt;quantity == 0&lt;/span&gt;" style="rhombus;whiteSpace=wrap;html=1;" vertex="1" parent="jKT9HDs5_-q7vNWwmF9f-172">
          <mxGeometry x="450.5" y="550" width="99" height="99" as="geometry" />
        </mxCell>
        <mxCell id="rMOnCRuuQ8FxxcGHwxTp-108" style="edgeStyle=orthogonalEdgeStyle;rounded=0;orthogonalLoop=1;jettySize=auto;html=1;exitX=1;exitY=0.5;exitDx=0;exitDy=0;entryX=0;entryY=0.5;entryDx=0;entryDy=0;fontSize=12;startSize=8;endSize=8;" edge="1" parent="jKT9HDs5_-q7vNWwmF9f-172" source="rMOnCRuuQ8FxxcGHwxTp-55" target="rMOnCRuuQ8FxxcGHwxTp-97">
          <mxGeometry relative="1" as="geometry" />
        </mxCell>
        <mxCell id="rMOnCRuuQ8FxxcGHwxTp-109" style="edgeStyle=orthogonalEdgeStyle;rounded=0;orthogonalLoop=1;jettySize=auto;html=1;exitX=1;exitY=0.5;exitDx=0;exitDy=0;entryX=0;entryY=0.5;entryDx=0;entryDy=0;fontSize=12;startSize=8;endSize=8;" edge="1" parent="jKT9HDs5_-q7vNWwmF9f-172" source="rMOnCRuuQ8FxxcGHwxTp-79" target="rMOnCRuuQ8FxxcGHwxTp-85">
          <mxGeometry relative="1" as="geometry" />
        </mxCell>
        <mxCell id="rMOnCRuuQ8FxxcGHwxTp-112" style="edgeStyle=none;curved=1;rounded=0;orthogonalLoop=1;jettySize=auto;html=1;exitX=0.5;exitY=1;exitDx=0;exitDy=0;entryX=0.5;entryY=0;entryDx=0;entryDy=0;fontSize=12;startSize=8;endSize=8;" edge="1" parent="jKT9HDs5_-q7vNWwmF9f-172" source="rMOnCRuuQ8FxxcGHwxTp-110" target="rMOnCRuuQ8FxxcGHwxTp-107">
          <mxGeometry relative="1" as="geometry" />
        </mxCell>
        <mxCell id="rMOnCRuuQ8FxxcGHwxTp-113" value="" style="endArrow=classic;html=1;rounded=0;fontSize=12;startSize=8;endSize=8;exitX=1;exitY=0.5;exitDx=0;exitDy=0;entryX=0;entryY=0.5;entryDx=0;entryDy=0;edgeStyle=orthogonalEdgeStyle;" edge="1" parent="jKT9HDs5_-q7vNWwmF9f-172" source="rMOnCRuuQ8FxxcGHwxTp-107" target="rMOnCRuuQ8FxxcGHwxTp-60">
          <mxGeometry relative="1" as="geometry">
            <mxPoint x="480" y="480" as="sourcePoint" />
            <mxPoint x="580" y="480" as="targetPoint" />
          </mxGeometry>
        </mxCell>
        <mxCell id="rMOnCRuuQ8FxxcGHwxTp-114" value="yes" style="edgeLabel;resizable=0;html=1;;align=center;verticalAlign=middle;" connectable="0" vertex="1" parent="rMOnCRuuQ8FxxcGHwxTp-113">
          <mxGeometry relative="1" as="geometry">
            <mxPoint x="-15" y="132" as="offset" />
          </mxGeometry>
        </mxCell>
        <mxCell id="rMOnCRuuQ8FxxcGHwxTp-115" value="" style="endArrow=classic;html=1;rounded=0;fontSize=12;startSize=8;endSize=8;exitX=0.5;exitY=1;exitDx=0;exitDy=0;entryX=0;entryY=0.5;entryDx=0;entryDy=0;edgeStyle=orthogonalEdgeStyle;" edge="1" parent="jKT9HDs5_-q7vNWwmF9f-172" source="rMOnCRuuQ8FxxcGHwxTp-107" target="rMOnCRuuQ8FxxcGHwxTp-40">
          <mxGeometry relative="1" as="geometry">
            <mxPoint x="340" y="680" as="sourcePoint" />
            <mxPoint x="440" y="680" as="targetPoint" />
            <Array as="points">
              <mxPoint x="500" y="710" />
              <mxPoint x="200" y="710" />
              <mxPoint x="200" y="335" />
            </Array>
          </mxGeometry>
        </mxCell>
        <mxCell id="rMOnCRuuQ8FxxcGHwxTp-116" value="no" style="edgeLabel;resizable=0;html=1;;align=center;verticalAlign=middle;" connectable="0" vertex="1" parent="rMOnCRuuQ8FxxcGHwxTp-115">
          <mxGeometry relative="1" as="geometry">
            <mxPoint x="300" y="-13" as="offset" />
          </mxGeometry>
        </mxCell>
        <mxCell id="rMOnCRuuQ8FxxcGHwxTp-117" value="" style="endArrow=classic;html=1;rounded=0;fontSize=12;startSize=8;endSize=8;curved=1;exitX=1;exitY=0.5;exitDx=0;exitDy=0;entryX=0;entryY=0.5;entryDx=0;entryDy=0;" edge="1" parent="jKT9HDs5_-q7vNWwmF9f-172" source="rMOnCRuuQ8FxxcGHwxTp-25" target="rMOnCRuuQ8FxxcGHwxTp-64">
          <mxGeometry relative="1" as="geometry">
            <mxPoint x="149" y="99.5" as="sourcePoint" />
            <mxPoint x="330" y="200" as="targetPoint" />
          </mxGeometry>
        </mxCell>
        <mxCell id="rMOnCRuuQ8FxxcGHwxTp-118" value="yes" style="edgeLabel;resizable=0;html=1;;align=center;verticalAlign=middle;" connectable="0" vertex="1" parent="rMOnCRuuQ8FxxcGHwxTp-117">
          <mxGeometry relative="1" as="geometry">
            <mxPoint x="-24" as="offset" />
          </mxGeometry>
        </mxCell>
        <mxCell id="rMOnCRuuQ8FxxcGHwxTp-119" value="" style="endArrow=classic;html=1;rounded=0;fontSize=12;startSize=8;endSize=8;curved=1;exitX=0.5;exitY=1;exitDx=0;exitDy=0;entryX=0.5;entryY=0;entryDx=0;entryDy=0;" edge="1" parent="jKT9HDs5_-q7vNWwmF9f-172" source="rMOnCRuuQ8FxxcGHwxTp-25" target="rMOnCRuuQ8FxxcGHwxTp-28">
          <mxGeometry relative="1" as="geometry">
            <mxPoint x="99.5" y="149" as="sourcePoint" />
            <mxPoint x="251" y="150" as="targetPoint" />
          </mxGeometry>
        </mxCell>
        <mxCell id="rMOnCRuuQ8FxxcGHwxTp-120" value="no" style="edgeLabel;resizable=0;html=1;;align=center;verticalAlign=middle;" connectable="0" vertex="1" parent="rMOnCRuuQ8FxxcGHwxTp-119">
          <mxGeometry relative="1" as="geometry">
            <mxPoint y="-65" as="offset" />
          </mxGeometry>
        </mxCell>
        <mxCell id="rMOnCRuuQ8FxxcGHwxTp-26" value="Open Microwave" style="swimlane;startSize=0;labelBackgroundColor=default;" vertex="1" parent="jKT9HDs5_-q7vNWwmF9f-172">
          <mxGeometry x="20" y="300" width="160" height="270" as="geometry" />
        </mxCell>
        <mxCell id="rMOnCRuuQ8FxxcGHwxTp-27" style="edgeStyle=none;curved=1;rounded=0;orthogonalLoop=1;jettySize=auto;html=1;exitX=0.5;exitY=1;exitDx=0;exitDy=0;entryX=0.5;entryY=0;entryDx=0;entryDy=0;fontSize=12;startSize=8;endSize=8;" edge="1" parent="rMOnCRuuQ8FxxcGHwxTp-26" source="rMOnCRuuQ8FxxcGHwxTp-28" target="rMOnCRuuQ8FxxcGHwxTp-30">
          <mxGeometry relative="1" as="geometry" />
        </mxCell>
        <mxCell id="rMOnCRuuQ8FxxcGHwxTp-28" value="move JX" style="rounded=0;whiteSpace=wrap;html=1;" vertex="1" parent="rMOnCRuuQ8FxxcGHwxTp-26">
          <mxGeometry x="20" y="20" width="120" height="30" as="geometry" />
        </mxCell>
        <mxCell id="rMOnCRuuQ8FxxcGHwxTp-29" style="edgeStyle=none;curved=1;rounded=0;orthogonalLoop=1;jettySize=auto;html=1;exitX=0.5;exitY=1;exitDx=0;exitDy=0;entryX=0.5;entryY=0;entryDx=0;entryDy=0;fontSize=12;startSize=8;endSize=8;" edge="1" parent="rMOnCRuuQ8FxxcGHwxTp-26" source="rMOnCRuuQ8FxxcGHwxTp-30" target="rMOnCRuuQ8FxxcGHwxTp-32">
          <mxGeometry relative="1" as="geometry" />
        </mxCell>
        <mxCell id="rMOnCRuuQ8FxxcGHwxTp-30" value="move L" style="rounded=0;whiteSpace=wrap;html=1;" vertex="1" parent="rMOnCRuuQ8FxxcGHwxTp-26">
          <mxGeometry x="20" y="60" width="120" height="30" as="geometry" />
        </mxCell>
        <mxCell id="rMOnCRuuQ8FxxcGHwxTp-31" style="edgeStyle=none;curved=1;rounded=0;orthogonalLoop=1;jettySize=auto;html=1;exitX=0.5;exitY=1;exitDx=0;exitDy=0;entryX=0.5;entryY=0;entryDx=0;entryDy=0;fontSize=12;startSize=8;endSize=8;" edge="1" parent="rMOnCRuuQ8FxxcGHwxTp-26" source="rMOnCRuuQ8FxxcGHwxTp-32" target="rMOnCRuuQ8FxxcGHwxTp-34">
          <mxGeometry relative="1" as="geometry" />
        </mxCell>
        <mxCell id="rMOnCRuuQ8FxxcGHwxTp-32" value="grip" style="rounded=0;whiteSpace=wrap;html=1;" vertex="1" parent="rMOnCRuuQ8FxxcGHwxTp-26">
          <mxGeometry x="20" y="100" width="120" height="30" as="geometry" />
        </mxCell>
        <mxCell id="rMOnCRuuQ8FxxcGHwxTp-33" style="edgeStyle=none;curved=1;rounded=0;orthogonalLoop=1;jettySize=auto;html=1;exitX=0.5;exitY=1;exitDx=0;exitDy=0;entryX=0.5;entryY=0;entryDx=0;entryDy=0;fontSize=12;startSize=8;endSize=8;" edge="1" parent="rMOnCRuuQ8FxxcGHwxTp-26" source="rMOnCRuuQ8FxxcGHwxTp-34" target="rMOnCRuuQ8FxxcGHwxTp-36">
          <mxGeometry relative="1" as="geometry" />
        </mxCell>
        <mxCell id="rMOnCRuuQ8FxxcGHwxTp-34" value="move C" style="rounded=0;whiteSpace=wrap;html=1;" vertex="1" parent="rMOnCRuuQ8FxxcGHwxTp-26">
          <mxGeometry x="20" y="140" width="120" height="30" as="geometry" />
        </mxCell>
        <mxCell id="rMOnCRuuQ8FxxcGHwxTp-35" style="edgeStyle=none;curved=1;rounded=0;orthogonalLoop=1;jettySize=auto;html=1;exitX=0.5;exitY=1;exitDx=0;exitDy=0;entryX=0.5;entryY=0;entryDx=0;entryDy=0;fontSize=12;startSize=8;endSize=8;" edge="1" parent="rMOnCRuuQ8FxxcGHwxTp-26" source="rMOnCRuuQ8FxxcGHwxTp-36" target="rMOnCRuuQ8FxxcGHwxTp-37">
          <mxGeometry relative="1" as="geometry" />
        </mxCell>
        <mxCell id="rMOnCRuuQ8FxxcGHwxTp-36" value="release" style="rounded=0;whiteSpace=wrap;html=1;" vertex="1" parent="rMOnCRuuQ8FxxcGHwxTp-26">
          <mxGeometry x="20" y="180" width="120" height="30" as="geometry" />
        </mxCell>
        <mxCell id="rMOnCRuuQ8FxxcGHwxTp-37" value="move L" style="rounded=0;whiteSpace=wrap;html=1;" vertex="1" parent="rMOnCRuuQ8FxxcGHwxTp-26">
          <mxGeometry x="20" y="220" width="120" height="30" as="geometry" />
        </mxCell>
        <mxCell id="rMOnCRuuQ8FxxcGHwxTp-132" style="edgeStyle=none;curved=1;rounded=0;orthogonalLoop=1;jettySize=auto;html=1;exitX=0.5;exitY=1;exitDx=0;exitDy=0;entryX=0.5;entryY=0;entryDx=0;entryDy=0;fontSize=12;startSize=8;endSize=8;" edge="1" parent="jKT9HDs5_-q7vNWwmF9f-172" source="rMOnCRuuQ8FxxcGHwxTp-125" target="rMOnCRuuQ8FxxcGHwxTp-126">
          <mxGeometry relative="1" as="geometry" />
        </mxCell>
        <mxCell id="rMOnCRuuQ8FxxcGHwxTp-125" value="move J" style="rounded=0;whiteSpace=wrap;html=1;" vertex="1" parent="jKT9HDs5_-q7vNWwmF9f-172">
          <mxGeometry x="640" y="430" width="120" height="30" as="geometry" />
        </mxCell>
        <mxCell id="rMOnCRuuQ8FxxcGHwxTp-126" value="Task state = finish" style="rounded=0;whiteSpace=wrap;html=1;" vertex="1" parent="jKT9HDs5_-q7vNWwmF9f-172">
          <mxGeometry x="640" y="470" width="120" height="30" as="geometry" />
        </mxCell>
        <mxCell id="rMOnCRuuQ8FxxcGHwxTp-131" style="edgeStyle=none;curved=1;rounded=0;orthogonalLoop=1;jettySize=auto;html=1;exitX=0.5;exitY=1;exitDx=0;exitDy=0;entryX=0.5;entryY=0;entryDx=0;entryDy=0;fontSize=12;startSize=8;endSize=8;" edge="1" parent="jKT9HDs5_-q7vNWwmF9f-172" source="rMOnCRuuQ8FxxcGHwxTp-61" target="rMOnCRuuQ8FxxcGHwxTp-125">
          <mxGeometry relative="1" as="geometry" />
        </mxCell>
        <mxCell id="rMOnCRuuQ8FxxcGHwxTp-133" style="edgeStyle=orthogonalEdgeStyle;rounded=0;orthogonalLoop=1;jettySize=auto;html=1;exitX=1;exitY=0.5;exitDx=0;exitDy=0;entryX=1;entryY=0.5;entryDx=0;entryDy=0;fontSize=12;startSize=8;endSize=8;" edge="1" parent="jKT9HDs5_-q7vNWwmF9f-172" source="rMOnCRuuQ8FxxcGHwxTp-91" target="rMOnCRuuQ8FxxcGHwxTp-125">
          <mxGeometry relative="1" as="geometry">
            <Array as="points">
              <mxPoint x="800" y="205" />
              <mxPoint x="800" y="445" />
            </Array>
          </mxGeometry>
        </mxCell>
        <mxCell id="jKT9HDs5_-q7vNWwmF9f-90" value="Task manager" style="swimlane;whiteSpace=wrap;html=1;fillColor=#f8cecc;strokeColor=#b85450;" parent="1" vertex="1">
          <mxGeometry x="-510" y="1840" width="500" height="740" as="geometry" />
        </mxCell>
        <mxCell id="5Aa5h2jPWbvLuQX95g7r-4" value="order ==&amp;nbsp;&lt;div&gt;&#39;라면&#39;&lt;/div&gt;" style="rhombus;whiteSpace=wrap;html=1;" vertex="1" parent="jKT9HDs5_-q7vNWwmF9f-90">
          <mxGeometry x="30.5" y="50" width="99" height="99" as="geometry" />
        </mxCell>
        <mxCell id="5Aa5h2jPWbvLuQX95g7r-5" value="Task M&lt;span style=&quot;text-wrap: nowrap; font-size: 11px; background-color: rgb(255, 255, 255);&quot;&gt;achine&amp;nbsp;&lt;/span&gt;&lt;div&gt;&lt;span style=&quot;text-wrap: nowrap; font-size: 11px; background-color: rgb(255, 255, 255);&quot;&gt;Ramen cooker&lt;/span&gt;&lt;/div&gt;" style="rounded=0;whiteSpace=wrap;html=1;" vertex="1" parent="jKT9HDs5_-q7vNWwmF9f-90">
          <mxGeometry x="20" y="210" width="120" height="60" as="geometry" />
        </mxCell>
        <mxCell id="5Aa5h2jPWbvLuQX95g7r-6" value="Task M&lt;span style=&quot;text-wrap: nowrap; font-size: 11px; background-color: rgb(255, 255, 255);&quot;&gt;achine&amp;nbsp;&lt;/span&gt;&lt;div&gt;&lt;span style=&quot;font-size: 11px; text-wrap: nowrap; background-color: rgb(255, 255, 255);&quot;&gt;Microwave&lt;/span&gt;&lt;br&gt;&lt;/div&gt;" style="rounded=0;whiteSpace=wrap;html=1;" vertex="1" parent="jKT9HDs5_-q7vNWwmF9f-90">
          <mxGeometry x="240" y="70" width="120" height="60" as="geometry" />
        </mxCell>
        <mxCell id="5Aa5h2jPWbvLuQX95g7r-13" value="" style="endArrow=classic;html=1;rounded=0;fontSize=12;startSize=8;endSize=8;curved=1;exitX=0.5;exitY=1;exitDx=0;exitDy=0;entryX=0.5;entryY=0;entryDx=0;entryDy=0;" edge="1" parent="jKT9HDs5_-q7vNWwmF9f-90" source="5Aa5h2jPWbvLuQX95g7r-4" target="5Aa5h2jPWbvLuQX95g7r-5">
          <mxGeometry relative="1" as="geometry">
            <mxPoint x="110" y="34.5" as="sourcePoint" />
            <mxPoint x="110" y="109.5" as="targetPoint" />
          </mxGeometry>
        </mxCell>
        <mxCell id="5Aa5h2jPWbvLuQX95g7r-14" value="yes" style="edgeLabel;resizable=0;html=1;;align=center;verticalAlign=middle;" connectable="0" vertex="1" parent="5Aa5h2jPWbvLuQX95g7r-13">
          <mxGeometry relative="1" as="geometry" />
        </mxCell>
        <mxCell id="5Aa5h2jPWbvLuQX95g7r-15" value="" style="endArrow=classic;html=1;rounded=0;fontSize=12;startSize=8;endSize=8;exitX=1;exitY=0.5;exitDx=0;exitDy=0;entryX=0;entryY=0.5;entryDx=0;entryDy=0;edgeStyle=orthogonalEdgeStyle;" edge="1" parent="jKT9HDs5_-q7vNWwmF9f-90" source="5Aa5h2jPWbvLuQX95g7r-4" target="5Aa5h2jPWbvLuQX95g7r-6">
          <mxGeometry relative="1" as="geometry">
            <mxPoint x="174" y="204.5" as="sourcePoint" />
            <mxPoint x="174" y="289.5" as="targetPoint" />
            <Array as="points">
              <mxPoint x="164" y="100" />
              <mxPoint x="184" y="100" />
            </Array>
          </mxGeometry>
        </mxCell>
        <mxCell id="5Aa5h2jPWbvLuQX95g7r-16" value="no" style="edgeLabel;resizable=0;html=1;;align=center;verticalAlign=middle;" connectable="0" vertex="1" parent="5Aa5h2jPWbvLuQX95g7r-15">
          <mxGeometry relative="1" as="geometry" />
        </mxCell>
        <mxCell id="5Aa5h2jPWbvLuQX95g7r-22" value="Task State" style="rounded=0;whiteSpace=wrap;html=1;" vertex="1" parent="jKT9HDs5_-q7vNWwmF9f-90">
          <mxGeometry x="240" y="210" width="120" height="60" as="geometry" />
        </mxCell>
        <mxCell id="5Aa5h2jPWbvLuQX95g7r-18" value="" style="endArrow=classic;html=1;rounded=0;fontSize=12;startSize=8;endSize=8;curved=1;exitX=0.5;exitY=1;exitDx=0;exitDy=0;entryX=0.5;entryY=0;entryDx=0;entryDy=0;" edge="1" parent="jKT9HDs5_-q7vNWwmF9f-90" source="5Aa5h2jPWbvLuQX95g7r-6" target="5Aa5h2jPWbvLuQX95g7r-22">
          <mxGeometry relative="1" as="geometry">
            <mxPoint x="156" y="380" as="sourcePoint" />
            <mxPoint x="156" y="540" as="targetPoint" />
          </mxGeometry>
        </mxCell>
        <mxCell id="5Aa5h2jPWbvLuQX95g7r-19" value="Task info&lt;br&gt;dictionary" style="edgeLabel;resizable=0;html=1;;align=center;verticalAlign=middle;" connectable="0" vertex="1" parent="5Aa5h2jPWbvLuQX95g7r-18">
          <mxGeometry relative="1" as="geometry" />
        </mxCell>
        <mxCell id="5Aa5h2jPWbvLuQX95g7r-23" value="" style="endArrow=classic;html=1;rounded=0;fontSize=12;startSize=8;endSize=8;curved=1;exitX=1;exitY=0.5;exitDx=0;exitDy=0;entryX=0;entryY=0.5;entryDx=0;entryDy=0;" edge="1" parent="jKT9HDs5_-q7vNWwmF9f-90" source="5Aa5h2jPWbvLuQX95g7r-5" target="5Aa5h2jPWbvLuQX95g7r-22">
          <mxGeometry relative="1" as="geometry">
            <mxPoint x="270" y="145.5" as="sourcePoint" />
            <mxPoint x="270" y="250.5" as="targetPoint" />
          </mxGeometry>
        </mxCell>
        <mxCell id="5Aa5h2jPWbvLuQX95g7r-24" value="Task info&lt;br&gt;dictionary" style="edgeLabel;resizable=0;html=1;;align=center;verticalAlign=middle;" connectable="0" vertex="1" parent="5Aa5h2jPWbvLuQX95g7r-23">
          <mxGeometry relative="1" as="geometry" />
        </mxCell>
        <mxCell id="5Aa5h2jPWbvLuQX95g7r-44" value="state ==&amp;nbsp;&lt;div&gt;&#39;possible&#39;&lt;/div&gt;" style="rhombus;whiteSpace=wrap;html=1;" vertex="1" parent="jKT9HDs5_-q7vNWwmF9f-90">
          <mxGeometry x="190.5" y="330" width="99" height="99" as="geometry" />
        </mxCell>
        <mxCell id="5Aa5h2jPWbvLuQX95g7r-52" value="" style="endArrow=classic;html=1;rounded=0;fontSize=12;startSize=8;endSize=8;curved=1;exitX=0;exitY=0.5;exitDx=0;exitDy=0;entryX=1;entryY=0.5;entryDx=0;entryDy=0;" edge="1" parent="jKT9HDs5_-q7vNWwmF9f-90" source="5Aa5h2jPWbvLuQX95g7r-44" target="5Aa5h2jPWbvLuQX95g7r-50">
          <mxGeometry relative="1" as="geometry">
            <mxPoint x="330" y="650" as="sourcePoint" />
            <mxPoint x="330" y="791" as="targetPoint" />
          </mxGeometry>
        </mxCell>
        <mxCell id="5Aa5h2jPWbvLuQX95g7r-53" value="yes" style="edgeLabel;resizable=0;html=1;;align=center;verticalAlign=middle;" connectable="0" vertex="1" parent="5Aa5h2jPWbvLuQX95g7r-52">
          <mxGeometry relative="1" as="geometry" />
        </mxCell>
        <mxCell id="5Aa5h2jPWbvLuQX95g7r-54" value="" style="endArrow=classic;html=1;rounded=0;fontSize=12;startSize=8;endSize=8;curved=1;exitX=0.5;exitY=1;exitDx=0;exitDy=0;entryX=0.5;entryY=0;entryDx=0;entryDy=0;" edge="1" parent="jKT9HDs5_-q7vNWwmF9f-90" source="5Aa5h2jPWbvLuQX95g7r-44" target="5Aa5h2jPWbvLuQX95g7r-47">
          <mxGeometry relative="1" as="geometry">
            <mxPoint x="360" y="500" as="sourcePoint" />
            <mxPoint x="320" y="500" as="targetPoint" />
          </mxGeometry>
        </mxCell>
        <mxCell id="5Aa5h2jPWbvLuQX95g7r-55" value="no" style="edgeLabel;resizable=0;html=1;;align=center;verticalAlign=middle;" connectable="0" vertex="1" parent="5Aa5h2jPWbvLuQX95g7r-54">
          <mxGeometry relative="1" as="geometry" />
        </mxCell>
        <mxCell id="5Aa5h2jPWbvLuQX95g7r-47" value="state ==&amp;nbsp;&lt;div&gt;&#39;cook&#39;&lt;/div&gt;" style="rhombus;whiteSpace=wrap;html=1;" vertex="1" parent="jKT9HDs5_-q7vNWwmF9f-90">
          <mxGeometry x="190" y="490" width="99" height="99" as="geometry" />
        </mxCell>
        <mxCell id="5Aa5h2jPWbvLuQX95g7r-48" value="state ==&amp;nbsp;&lt;div&gt;&#39;wait&#39;&lt;/div&gt;" style="rhombus;whiteSpace=wrap;html=1;" vertex="1" parent="jKT9HDs5_-q7vNWwmF9f-90">
          <mxGeometry x="370.5" y="490" width="99" height="99" as="geometry" />
        </mxCell>
        <mxCell id="5Aa5h2jPWbvLuQX95g7r-56" value="" style="endArrow=classic;html=1;rounded=0;fontSize=12;startSize=8;endSize=8;curved=1;exitX=1;exitY=0.5;exitDx=0;exitDy=0;entryX=0;entryY=0.5;entryDx=0;entryDy=0;" edge="1" parent="jKT9HDs5_-q7vNWwmF9f-90" source="5Aa5h2jPWbvLuQX95g7r-47" target="5Aa5h2jPWbvLuQX95g7r-48">
          <mxGeometry relative="1" as="geometry">
            <mxPoint x="220" y="610" as="sourcePoint" />
            <mxPoint x="290" y="610" as="targetPoint" />
          </mxGeometry>
        </mxCell>
        <mxCell id="5Aa5h2jPWbvLuQX95g7r-57" value="no" style="edgeLabel;resizable=0;html=1;;align=center;verticalAlign=middle;" connectable="0" vertex="1" parent="5Aa5h2jPWbvLuQX95g7r-56">
          <mxGeometry relative="1" as="geometry">
            <mxPoint x="-25" as="offset" />
          </mxGeometry>
        </mxCell>
        <mxCell id="5Aa5h2jPWbvLuQX95g7r-50" value="machine ==&amp;nbsp;&lt;div&gt;&#39;Ramen&#39;&lt;/div&gt;" style="rhombus;whiteSpace=wrap;html=1;" vertex="1" parent="jKT9HDs5_-q7vNWwmF9f-90">
          <mxGeometry x="30.5" y="330" width="99" height="99" as="geometry" />
        </mxCell>
        <mxCell id="rMOnCRuuQ8FxxcGHwxTp-154" value="move J" style="rounded=0;whiteSpace=wrap;html=1;" vertex="1" parent="jKT9HDs5_-q7vNWwmF9f-90">
          <mxGeometry x="360" y="650" width="120" height="30" as="geometry" />
        </mxCell>
        <mxCell id="rMOnCRuuQ8FxxcGHwxTp-155" value="Task clear" style="rounded=0;whiteSpace=wrap;html=1;" vertex="1" parent="jKT9HDs5_-q7vNWwmF9f-90">
          <mxGeometry x="360" y="690" width="120" height="30" as="geometry" />
        </mxCell>
        <mxCell id="rMOnCRuuQ8FxxcGHwxTp-153" style="edgeStyle=none;curved=1;rounded=0;orthogonalLoop=1;jettySize=auto;html=1;exitX=0.5;exitY=1;exitDx=0;exitDy=0;entryX=0.5;entryY=0;entryDx=0;entryDy=0;fontSize=12;startSize=8;endSize=8;" edge="1" parent="jKT9HDs5_-q7vNWwmF9f-90" source="rMOnCRuuQ8FxxcGHwxTp-154" target="rMOnCRuuQ8FxxcGHwxTp-155">
          <mxGeometry relative="1" as="geometry" />
        </mxCell>
        <mxCell id="rMOnCRuuQ8FxxcGHwxTp-160" value="" style="endArrow=classic;html=1;rounded=0;fontSize=12;startSize=8;endSize=8;curved=1;exitX=0.5;exitY=1;exitDx=0;exitDy=0;entryX=0.5;entryY=0;entryDx=0;entryDy=0;" edge="1" parent="jKT9HDs5_-q7vNWwmF9f-90" source="5Aa5h2jPWbvLuQX95g7r-48" target="rMOnCRuuQ8FxxcGHwxTp-154">
          <mxGeometry relative="1" as="geometry">
            <mxPoint x="320.5" y="630" as="sourcePoint" />
            <mxPoint x="320.5" y="751" as="targetPoint" />
          </mxGeometry>
        </mxCell>
        <mxCell id="rMOnCRuuQ8FxxcGHwxTp-161" value="no" style="edgeLabel;resizable=0;html=1;;align=center;verticalAlign=middle;" connectable="0" vertex="1" parent="rMOnCRuuQ8FxxcGHwxTp-160">
          <mxGeometry relative="1" as="geometry" />
        </mxCell>
        <mxCell id="5Aa5h2jPWbvLuQX95g7r-58" value="" style="endArrow=classic;html=1;rounded=0;fontSize=12;startSize=8;endSize=8;curved=1;exitX=0.5;exitY=1;exitDx=0;exitDy=0;entryX=0.5;entryY=0;entryDx=0;entryDy=0;" edge="1" parent="1" source="5Aa5h2jPWbvLuQX95g7r-47" target="rMOnCRuuQ8FxxcGHwxTp-22">
          <mxGeometry relative="1" as="geometry">
            <mxPoint x="-320" y="2580" as="sourcePoint" />
            <mxPoint x="-220" y="2600" as="targetPoint" />
          </mxGeometry>
        </mxCell>
        <mxCell id="5Aa5h2jPWbvLuQX95g7r-59" value="yes" style="edgeLabel;resizable=0;html=1;;align=center;verticalAlign=middle;" connectable="0" vertex="1" parent="5Aa5h2jPWbvLuQX95g7r-58">
          <mxGeometry relative="1" as="geometry" />
        </mxCell>
        <mxCell id="jKT9HDs5_-q7vNWwmF9f-170" value="&lt;span style=&quot;text-align: left;&quot;&gt;Check Cooking Time&lt;/span&gt;" style="swimlane;whiteSpace=wrap;html=1;fillColor=#fff2cc;strokeColor=#d6b656;" parent="1" vertex="1">
          <mxGeometry x="-350" y="2620" width="160" height="240" as="geometry" />
        </mxCell>
        <mxCell id="rMOnCRuuQ8FxxcGHwxTp-24" style="edgeStyle=none;curved=1;rounded=0;orthogonalLoop=1;jettySize=auto;html=1;exitX=0.5;exitY=1;exitDx=0;exitDy=0;entryX=0.5;entryY=0;entryDx=0;entryDy=0;fontSize=12;startSize=8;endSize=8;" edge="1" parent="jKT9HDs5_-q7vNWwmF9f-170" source="rMOnCRuuQ8FxxcGHwxTp-22" target="rMOnCRuuQ8FxxcGHwxTp-23">
          <mxGeometry relative="1" as="geometry" />
        </mxCell>
        <mxCell id="rMOnCRuuQ8FxxcGHwxTp-22" value="calculate end time" style="rounded=0;whiteSpace=wrap;html=1;" vertex="1" parent="jKT9HDs5_-q7vNWwmF9f-170">
          <mxGeometry x="20" y="40" width="120" height="30" as="geometry" />
        </mxCell>
        <mxCell id="rMOnCRuuQ8FxxcGHwxTp-23" value="end time ==&amp;nbsp;&lt;div&gt;current time&lt;/div&gt;" style="rhombus;whiteSpace=wrap;html=1;" vertex="1" parent="jKT9HDs5_-q7vNWwmF9f-170">
          <mxGeometry x="30.5" y="120" width="99" height="99" as="geometry" />
        </mxCell>
        <mxCell id="5Aa5h2jPWbvLuQX95g7r-20" value="" style="endArrow=classic;html=1;rounded=0;fontSize=12;startSize=8;endSize=8;exitX=1;exitY=0.5;exitDx=0;exitDy=0;entryX=0;entryY=0.5;entryDx=0;entryDy=0;edgeStyle=orthogonalEdgeStyle;" edge="1" parent="1" source="5Aa5h2jPWbvLuQX95g7r-22" target="5Aa5h2jPWbvLuQX95g7r-26">
          <mxGeometry relative="1" as="geometry">
            <mxPoint x="-202.59000000000003" y="2029.5" as="sourcePoint" />
            <mxPoint x="-220" y="2230" as="targetPoint" />
            <Array as="points">
              <mxPoint x="-110" y="2080" />
              <mxPoint x="-110" y="1910" />
            </Array>
          </mxGeometry>
        </mxCell>
        <mxCell id="5Aa5h2jPWbvLuQX95g7r-21" value="Task info&lt;br&gt;dictionary" style="edgeLabel;resizable=0;html=1;;align=center;verticalAlign=middle;" connectable="0" vertex="1" parent="5Aa5h2jPWbvLuQX95g7r-20">
          <mxGeometry relative="1" as="geometry">
            <mxPoint x="-110" as="offset" />
          </mxGeometry>
        </mxCell>
        <mxCell id="5Aa5h2jPWbvLuQX95g7r-69" value="" style="endArrow=classic;html=1;rounded=0;fontSize=12;startSize=8;endSize=8;exitX=0;exitY=0.5;exitDx=0;exitDy=0;entryX=1;entryY=0.5;entryDx=0;entryDy=0;edgeStyle=orthogonalEdgeStyle;" edge="1" parent="1" source="rMOnCRuuQ8FxxcGHwxTp-144" target="5Aa5h2jPWbvLuQX95g7r-44">
          <mxGeometry relative="1" as="geometry">
            <mxPoint x="-5.5" y="2230" as="sourcePoint" />
            <mxPoint x="-135.5" y="2230.5" as="targetPoint" />
            <Array as="points">
              <mxPoint x="-80" y="2050" />
              <mxPoint x="-80" y="2220" />
              <mxPoint x="-221" y="2220" />
            </Array>
          </mxGeometry>
        </mxCell>
        <mxCell id="5Aa5h2jPWbvLuQX95g7r-70" value="Task info&lt;br&gt;dictionary" style="edgeLabel;resizable=0;html=1;;align=center;verticalAlign=middle;" connectable="0" vertex="1" parent="5Aa5h2jPWbvLuQX95g7r-69">
          <mxGeometry relative="1" as="geometry">
            <mxPoint x="90" y="-91" as="offset" />
          </mxGeometry>
        </mxCell>
        <mxCell id="rMOnCRuuQ8FxxcGHwxTp-158" value="" style="endArrow=classic;html=1;rounded=0;fontSize=12;startSize=8;endSize=8;exitX=0;exitY=0.5;exitDx=0;exitDy=0;entryX=1;entryY=0.5;entryDx=0;entryDy=0;edgeStyle=orthogonalEdgeStyle;" edge="1" parent="1" source="rMOnCRuuQ8FxxcGHwxTp-145" target="5Aa5h2jPWbvLuQX95g7r-44">
          <mxGeometry relative="1" as="geometry">
            <mxPoint x="240" y="2240" as="sourcePoint" />
            <mxPoint x="20" y="2470" as="targetPoint" />
            <Array as="points">
              <mxPoint x="-220" y="2220" />
            </Array>
          </mxGeometry>
        </mxCell>
        <mxCell id="rMOnCRuuQ8FxxcGHwxTp-159" value="Task info&lt;br&gt;dictionary" style="edgeLabel;resizable=0;html=1;;align=center;verticalAlign=middle;" connectable="0" vertex="1" parent="rMOnCRuuQ8FxxcGHwxTp-158">
          <mxGeometry relative="1" as="geometry">
            <mxPoint x="95" as="offset" />
          </mxGeometry>
        </mxCell>
        <mxCell id="5Aa5h2jPWbvLuQX95g7r-60" value="" style="endArrow=classic;html=1;rounded=0;fontSize=12;startSize=8;endSize=8;exitX=1;exitY=0.5;exitDx=0;exitDy=0;entryX=1;entryY=0.5;entryDx=0;entryDy=0;edgeStyle=orthogonalEdgeStyle;" edge="1" parent="1" source="5Aa5h2jPWbvLuQX95g7r-48" target="5Aa5h2jPWbvLuQX95g7r-26">
          <mxGeometry relative="1" as="geometry">
            <mxPoint x="-170" y="2590" as="sourcePoint" />
            <mxPoint x="310" y="2450" as="targetPoint" />
            <Array as="points">
              <mxPoint x="720" y="2380" />
              <mxPoint x="720" y="1910" />
            </Array>
          </mxGeometry>
        </mxCell>
        <mxCell id="5Aa5h2jPWbvLuQX95g7r-61" value="yes" style="edgeLabel;resizable=0;html=1;;align=center;verticalAlign=middle;" connectable="0" vertex="1" parent="5Aa5h2jPWbvLuQX95g7r-60">
          <mxGeometry relative="1" as="geometry">
            <mxPoint x="-604" as="offset" />
          </mxGeometry>
        </mxCell>
        <mxCell id="rMOnCRuuQ8FxxcGHwxTp-162" value="" style="endArrow=classic;html=1;rounded=0;fontSize=12;startSize=8;endSize=8;curved=1;exitX=0;exitY=0.5;exitDx=0;exitDy=0;entryX=1;entryY=0.5;entryDx=0;entryDy=0;" edge="1" parent="1" source="5Aa5h2jPWbvLuQX95g7r-50" target="gZS3kMBaPDpUWOl2VcNi-3">
          <mxGeometry relative="1" as="geometry">
            <mxPoint x="-509" y="2220" as="sourcePoint" />
            <mxPoint x="-570" y="2220" as="targetPoint" />
          </mxGeometry>
        </mxCell>
        <mxCell id="rMOnCRuuQ8FxxcGHwxTp-163" value="no" style="edgeLabel;resizable=0;html=1;;align=center;verticalAlign=middle;" connectable="0" vertex="1" parent="rMOnCRuuQ8FxxcGHwxTp-162">
          <mxGeometry relative="1" as="geometry">
            <mxPoint x="55" y="-1" as="offset" />
          </mxGeometry>
        </mxCell>
        <mxCell id="rMOnCRuuQ8FxxcGHwxTp-164" value="" style="endArrow=classic;html=1;rounded=0;fontSize=12;startSize=8;endSize=8;exitX=0.5;exitY=1;exitDx=0;exitDy=0;entryX=1;entryY=0.5;entryDx=0;entryDy=0;edgeStyle=orthogonalEdgeStyle;" edge="1" parent="1" source="5Aa5h2jPWbvLuQX95g7r-50" target="_x9Xr2JgzCZ2sf4zK7X6-15">
          <mxGeometry relative="1" as="geometry">
            <mxPoint x="-390" y="2380" as="sourcePoint" />
            <mxPoint x="-540" y="2381" as="targetPoint" />
          </mxGeometry>
        </mxCell>
        <mxCell id="rMOnCRuuQ8FxxcGHwxTp-165" value="yes" style="edgeLabel;resizable=0;html=1;;align=center;verticalAlign=middle;" connectable="0" vertex="1" parent="rMOnCRuuQ8FxxcGHwxTp-164">
          <mxGeometry relative="1" as="geometry">
            <mxPoint y="-286" as="offset" />
          </mxGeometry>
        </mxCell>
        <mxCell id="rMOnCRuuQ8FxxcGHwxTp-168" value="" style="endArrow=classic;html=1;rounded=0;fontSize=12;startSize=8;endSize=8;exitX=0;exitY=0.5;exitDx=0;exitDy=0;entryX=0.5;entryY=0;entryDx=0;entryDy=0;edgeStyle=orthogonalEdgeStyle;" edge="1" parent="1" source="rMOnCRuuQ8FxxcGHwxTp-18" target="5Aa5h2jPWbvLuQX95g7r-44">
          <mxGeometry relative="1" as="geometry">
            <mxPoint x="-670" y="2090" as="sourcePoint" />
            <mxPoint x="-570" y="2090" as="targetPoint" />
            <Array as="points">
              <mxPoint x="-1590" y="2341" />
              <mxPoint x="-1590" y="2130" />
              <mxPoint x="-270" y="2130" />
            </Array>
          </mxGeometry>
        </mxCell>
        <mxCell id="rMOnCRuuQ8FxxcGHwxTp-169" value="Task info&lt;br&gt;dictionary" style="edgeLabel;resizable=0;html=1;;align=center;verticalAlign=middle;" connectable="0" vertex="1" parent="rMOnCRuuQ8FxxcGHwxTp-168">
          <mxGeometry relative="1" as="geometry">
            <mxPoint x="-494" y="211" as="offset" />
          </mxGeometry>
        </mxCell>
        <mxCell id="rMOnCRuuQ8FxxcGHwxTp-172" value="" style="endArrow=classic;html=1;rounded=0;fontSize=12;startSize=8;endSize=8;entryX=0.5;entryY=0;entryDx=0;entryDy=0;exitX=0;exitY=0.5;exitDx=0;exitDy=0;edgeStyle=orthogonalEdgeStyle;" edge="1" parent="1" source="rMOnCRuuQ8FxxcGHwxTp-20" target="5Aa5h2jPWbvLuQX95g7r-44">
          <mxGeometry relative="1" as="geometry">
            <mxPoint x="-1210" y="2570" as="sourcePoint" />
            <mxPoint x="-260" y="2230" as="targetPoint" />
            <Array as="points">
              <mxPoint x="-1590" y="2815" />
              <mxPoint x="-1590" y="2130" />
              <mxPoint x="-270" y="2130" />
            </Array>
          </mxGeometry>
        </mxCell>
        <mxCell id="rMOnCRuuQ8FxxcGHwxTp-173" value="Task info&lt;br&gt;dictionary" style="edgeLabel;resizable=0;html=1;;align=center;verticalAlign=middle;" connectable="0" vertex="1" parent="rMOnCRuuQ8FxxcGHwxTp-172">
          <mxGeometry relative="1" as="geometry">
            <mxPoint x="-257" y="685" as="offset" />
          </mxGeometry>
        </mxCell>
        <mxCell id="rMOnCRuuQ8FxxcGHwxTp-174" value="" style="endArrow=classic;html=1;rounded=0;fontSize=12;startSize=8;endSize=8;exitX=0;exitY=0.5;exitDx=0;exitDy=0;entryX=0;entryY=0.5;entryDx=0;entryDy=0;edgeStyle=orthogonalEdgeStyle;" edge="1" parent="1" source="rMOnCRuuQ8FxxcGHwxTp-23" target="rMOnCRuuQ8FxxcGHwxTp-25">
          <mxGeometry relative="1" as="geometry">
            <mxPoint x="-210" y="2580" as="sourcePoint" />
            <mxPoint x="-210" y="2811" as="targetPoint" />
            <Array as="points">
              <mxPoint x="-370" y="2790" />
              <mxPoint x="-370" y="2985" />
            </Array>
          </mxGeometry>
        </mxCell>
        <mxCell id="rMOnCRuuQ8FxxcGHwxTp-175" value="yes" style="edgeLabel;resizable=0;html=1;;align=center;verticalAlign=middle;" connectable="0" vertex="1" parent="rMOnCRuuQ8FxxcGHwxTp-174">
          <mxGeometry relative="1" as="geometry" />
        </mxCell>
        <mxCell id="rMOnCRuuQ8FxxcGHwxTp-176" value="" style="endArrow=classic;html=1;rounded=0;fontSize=12;startSize=8;endSize=8;exitX=1;exitY=0.5;exitDx=0;exitDy=0;entryX=0;entryY=0.5;entryDx=0;entryDy=0;edgeStyle=orthogonalEdgeStyle;" edge="1" parent="1" source="rMOnCRuuQ8FxxcGHwxTp-23" target="5Aa5h2jPWbvLuQX95g7r-48">
          <mxGeometry relative="1" as="geometry">
            <mxPoint x="-170" y="2780" as="sourcePoint" />
            <mxPoint x="-78" y="2780" as="targetPoint" />
            <Array as="points">
              <mxPoint x="-170" y="2790" />
              <mxPoint x="-170" y="2380" />
            </Array>
          </mxGeometry>
        </mxCell>
        <mxCell id="rMOnCRuuQ8FxxcGHwxTp-177" value="no" style="edgeLabel;resizable=0;html=1;;align=center;verticalAlign=middle;" connectable="0" vertex="1" parent="rMOnCRuuQ8FxxcGHwxTp-176">
          <mxGeometry relative="1" as="geometry">
            <mxPoint x="-20" y="195" as="offset" />
          </mxGeometry>
        </mxCell>
        <mxCell id="rMOnCRuuQ8FxxcGHwxTp-178" value="" style="endArrow=classic;html=1;rounded=0;fontSize=12;startSize=8;endSize=8;entryX=0.5;entryY=0;entryDx=0;entryDy=0;exitX=0.5;exitY=1;exitDx=0;exitDy=0;edgeStyle=orthogonalEdgeStyle;" edge="1" parent="1" source="rMOnCRuuQ8FxxcGHwxTp-126" target="5Aa5h2jPWbvLuQX95g7r-44">
          <mxGeometry relative="1" as="geometry">
            <mxPoint x="140" y="2790" as="sourcePoint" />
            <mxPoint x="-230" y="2540" as="targetPoint" />
            <Array as="points">
              <mxPoint x="350" y="3650" />
              <mxPoint x="-1590" y="3650" />
              <mxPoint x="-1590" y="2130" />
              <mxPoint x="-270" y="2130" />
            </Array>
          </mxGeometry>
        </mxCell>
        <mxCell id="rMOnCRuuQ8FxxcGHwxTp-179" value="Task info&lt;br&gt;dictionary" style="edgeLabel;resizable=0;html=1;;align=center;verticalAlign=middle;" connectable="0" vertex="1" parent="rMOnCRuuQ8FxxcGHwxTp-178">
          <mxGeometry relative="1" as="geometry">
            <mxPoint x="1940" y="325" as="offset" />
          </mxGeometry>
        </mxCell>
      </root>
    </mxGraphModel>
  </diagram>
</mxfile>
